%FSLAX45Y45*%
G04 Gerber Fmt 4.5, Leading zero omitted, Abs format (unit mm)*
G04 Created by KiCad (PCBNEW (5.1.12)-1) date 2021-12-05 12:24:00*
%MOMM*%
%LPD*%
G01*
G04 APERTURE LIST*
%TA.AperFunction,Profile*%
%ADD10C,0.050000*%
%TD*%
%ADD11C,0.200000*%
%ADD12C,0.300000*%
G04 APERTURE END LIST*
D10*
X14750000Y-7500000D02*
X14750000Y-14500000D01*
X4750000Y-7500000D02*
X14750000Y-7500000D01*
X4750000Y-14500000D02*
X4750000Y-7500000D01*
X14750000Y-14500000D02*
X4750000Y-14500000D01*
D11*
X8450000Y-7772500D02*
X8600000Y-7922500D01*
X8600000Y-7772500D02*
X8450000Y-7922500D01*
X8450000Y-8472500D02*
X8600000Y-8622500D01*
X8600000Y-8472500D02*
X8450000Y-8622500D01*
X13802500Y-12450000D02*
X13952500Y-12600000D01*
X13952500Y-12450000D02*
X13802500Y-12600000D01*
X14502500Y-12450000D02*
X14652500Y-12600000D01*
X14652500Y-12450000D02*
X14502500Y-12600000D01*
X8172500Y-14249746D02*
G75*
G03*
X8172500Y-14249746I-100000J0D01*
G01*
X10077500Y-14249746D02*
G75*
G03*
X10077500Y-14249746I-100000J0D01*
G01*
X5000000Y-7640000D02*
X5000000Y-7860000D01*
X4890000Y-7750000D02*
X5110000Y-7750000D01*
X5000000Y-14140000D02*
X5000000Y-14360000D01*
X4890000Y-14250000D02*
X5110000Y-14250000D01*
X14500000Y-7640000D02*
X14500000Y-7860000D01*
X14390000Y-7750000D02*
X14610000Y-7750000D01*
X14500000Y-14140000D02*
X14500000Y-14360000D01*
X14390000Y-14250000D02*
X14610000Y-14250000D01*
D12*
X5033928Y-14968214D02*
X5033928Y-14668214D01*
X5105357Y-14668214D01*
X5148214Y-14682500D01*
X5176786Y-14711071D01*
X5191071Y-14739643D01*
X5205357Y-14796786D01*
X5205357Y-14839643D01*
X5191071Y-14896786D01*
X5176786Y-14925357D01*
X5148214Y-14953929D01*
X5105357Y-14968214D01*
X5033928Y-14968214D01*
X5333928Y-14968214D02*
X5333928Y-14768214D01*
X5333928Y-14825357D02*
X5348214Y-14796786D01*
X5362500Y-14782500D01*
X5391071Y-14768214D01*
X5419643Y-14768214D01*
X5519643Y-14968214D02*
X5519643Y-14768214D01*
X5519643Y-14668214D02*
X5505357Y-14682500D01*
X5519643Y-14696786D01*
X5533928Y-14682500D01*
X5519643Y-14668214D01*
X5519643Y-14696786D01*
X5705357Y-14968214D02*
X5676786Y-14953929D01*
X5662500Y-14925357D01*
X5662500Y-14668214D01*
X5862500Y-14968214D02*
X5833928Y-14953929D01*
X5819643Y-14925357D01*
X5819643Y-14668214D01*
X6205357Y-14968214D02*
X6205357Y-14668214D01*
X6305357Y-14882500D01*
X6405357Y-14668214D01*
X6405357Y-14968214D01*
X6676786Y-14968214D02*
X6676786Y-14811071D01*
X6662500Y-14782500D01*
X6633928Y-14768214D01*
X6576786Y-14768214D01*
X6548214Y-14782500D01*
X6676786Y-14953929D02*
X6648214Y-14968214D01*
X6576786Y-14968214D01*
X6548214Y-14953929D01*
X6533928Y-14925357D01*
X6533928Y-14896786D01*
X6548214Y-14868214D01*
X6576786Y-14853929D01*
X6648214Y-14853929D01*
X6676786Y-14839643D01*
X6819643Y-14768214D02*
X6819643Y-15068214D01*
X6819643Y-14782500D02*
X6848214Y-14768214D01*
X6905357Y-14768214D01*
X6933928Y-14782500D01*
X6948214Y-14796786D01*
X6962500Y-14825357D01*
X6962500Y-14911071D01*
X6948214Y-14939643D01*
X6933928Y-14953929D01*
X6905357Y-14968214D01*
X6848214Y-14968214D01*
X6819643Y-14953929D01*
X7091071Y-14939643D02*
X7105357Y-14953929D01*
X7091071Y-14968214D01*
X7076786Y-14953929D01*
X7091071Y-14939643D01*
X7091071Y-14968214D01*
X7091071Y-14782500D02*
X7105357Y-14796786D01*
X7091071Y-14811071D01*
X7076786Y-14796786D01*
X7091071Y-14782500D01*
X7091071Y-14811071D01*
X4597500Y-15387500D02*
X4747500Y-15537500D01*
X4747500Y-15387500D02*
X4597500Y-15537500D01*
X5191071Y-15598214D02*
X5019643Y-15598214D01*
X5105357Y-15598214D02*
X5105357Y-15298214D01*
X5076786Y-15341071D01*
X5048214Y-15369643D01*
X5019643Y-15383929D01*
X5319643Y-15569643D02*
X5333928Y-15583929D01*
X5319643Y-15598214D01*
X5305357Y-15583929D01*
X5319643Y-15569643D01*
X5319643Y-15598214D01*
X5605357Y-15298214D02*
X5462500Y-15298214D01*
X5448214Y-15441071D01*
X5462500Y-15426786D01*
X5491071Y-15412500D01*
X5562500Y-15412500D01*
X5591071Y-15426786D01*
X5605357Y-15441071D01*
X5619643Y-15469643D01*
X5619643Y-15541071D01*
X5605357Y-15569643D01*
X5591071Y-15583929D01*
X5562500Y-15598214D01*
X5491071Y-15598214D01*
X5462500Y-15583929D01*
X5448214Y-15569643D01*
X5805357Y-15298214D02*
X5833928Y-15298214D01*
X5862500Y-15312500D01*
X5876786Y-15326786D01*
X5891071Y-15355357D01*
X5905357Y-15412500D01*
X5905357Y-15483929D01*
X5891071Y-15541071D01*
X5876786Y-15569643D01*
X5862500Y-15583929D01*
X5833928Y-15598214D01*
X5805357Y-15598214D01*
X5776786Y-15583929D01*
X5762500Y-15569643D01*
X5748214Y-15541071D01*
X5733928Y-15483929D01*
X5733928Y-15412500D01*
X5748214Y-15355357D01*
X5762500Y-15326786D01*
X5776786Y-15312500D01*
X5805357Y-15298214D01*
X6091071Y-15298214D02*
X6119643Y-15298214D01*
X6148214Y-15312500D01*
X6162500Y-15326786D01*
X6176786Y-15355357D01*
X6191071Y-15412500D01*
X6191071Y-15483929D01*
X6176786Y-15541071D01*
X6162500Y-15569643D01*
X6148214Y-15583929D01*
X6119643Y-15598214D01*
X6091071Y-15598214D01*
X6062500Y-15583929D01*
X6048214Y-15569643D01*
X6033928Y-15541071D01*
X6019643Y-15483929D01*
X6019643Y-15412500D01*
X6033928Y-15355357D01*
X6048214Y-15326786D01*
X6062500Y-15312500D01*
X6091071Y-15298214D01*
X6319643Y-15598214D02*
X6319643Y-15398214D01*
X6319643Y-15426786D02*
X6333928Y-15412500D01*
X6362500Y-15398214D01*
X6405357Y-15398214D01*
X6433928Y-15412500D01*
X6448214Y-15441071D01*
X6448214Y-15598214D01*
X6448214Y-15441071D02*
X6462500Y-15412500D01*
X6491071Y-15398214D01*
X6533928Y-15398214D01*
X6562500Y-15412500D01*
X6576786Y-15441071D01*
X6576786Y-15598214D01*
X6719643Y-15598214D02*
X6719643Y-15398214D01*
X6719643Y-15426786D02*
X6733928Y-15412500D01*
X6762500Y-15398214D01*
X6805357Y-15398214D01*
X6833928Y-15412500D01*
X6848214Y-15441071D01*
X6848214Y-15598214D01*
X6848214Y-15441071D02*
X6862500Y-15412500D01*
X6891071Y-15398214D01*
X6933928Y-15398214D01*
X6962500Y-15412500D01*
X6976786Y-15441071D01*
X6976786Y-15598214D01*
X7562500Y-15283929D02*
X7305357Y-15669643D01*
X7948214Y-15298214D02*
X7976786Y-15298214D01*
X8005357Y-15312500D01*
X8019643Y-15326786D01*
X8033928Y-15355357D01*
X8048214Y-15412500D01*
X8048214Y-15483929D01*
X8033928Y-15541071D01*
X8019643Y-15569643D01*
X8005357Y-15583929D01*
X7976786Y-15598214D01*
X7948214Y-15598214D01*
X7919643Y-15583929D01*
X7905357Y-15569643D01*
X7891071Y-15541071D01*
X7876786Y-15483929D01*
X7876786Y-15412500D01*
X7891071Y-15355357D01*
X7905357Y-15326786D01*
X7919643Y-15312500D01*
X7948214Y-15298214D01*
X8176786Y-15569643D02*
X8191071Y-15583929D01*
X8176786Y-15598214D01*
X8162500Y-15583929D01*
X8176786Y-15569643D01*
X8176786Y-15598214D01*
X8376786Y-15298214D02*
X8405357Y-15298214D01*
X8433928Y-15312500D01*
X8448214Y-15326786D01*
X8462500Y-15355357D01*
X8476786Y-15412500D01*
X8476786Y-15483929D01*
X8462500Y-15541071D01*
X8448214Y-15569643D01*
X8433928Y-15583929D01*
X8405357Y-15598214D01*
X8376786Y-15598214D01*
X8348214Y-15583929D01*
X8333928Y-15569643D01*
X8319643Y-15541071D01*
X8305357Y-15483929D01*
X8305357Y-15412500D01*
X8319643Y-15355357D01*
X8333928Y-15326786D01*
X8348214Y-15312500D01*
X8376786Y-15298214D01*
X8748214Y-15298214D02*
X8605357Y-15298214D01*
X8591071Y-15441071D01*
X8605357Y-15426786D01*
X8633928Y-15412500D01*
X8705357Y-15412500D01*
X8733928Y-15426786D01*
X8748214Y-15441071D01*
X8762500Y-15469643D01*
X8762500Y-15541071D01*
X8748214Y-15569643D01*
X8733928Y-15583929D01*
X8705357Y-15598214D01*
X8633928Y-15598214D01*
X8605357Y-15583929D01*
X8591071Y-15569643D01*
X8905357Y-15598214D02*
X8962500Y-15598214D01*
X8991071Y-15583929D01*
X9005357Y-15569643D01*
X9033928Y-15526786D01*
X9048214Y-15469643D01*
X9048214Y-15355357D01*
X9033928Y-15326786D01*
X9019643Y-15312500D01*
X8991071Y-15298214D01*
X8933928Y-15298214D01*
X8905357Y-15312500D01*
X8891071Y-15326786D01*
X8876786Y-15355357D01*
X8876786Y-15426786D01*
X8891071Y-15455357D01*
X8905357Y-15469643D01*
X8933928Y-15483929D01*
X8991071Y-15483929D01*
X9019643Y-15469643D01*
X9033928Y-15455357D01*
X9048214Y-15426786D01*
X9333928Y-15598214D02*
X9162500Y-15598214D01*
X9248214Y-15598214D02*
X9248214Y-15298214D01*
X9219643Y-15341071D01*
X9191071Y-15369643D01*
X9162500Y-15383929D01*
X9448214Y-15298214D02*
X9448214Y-15355357D01*
X9562500Y-15298214D02*
X9562500Y-15355357D01*
X10005357Y-15712500D02*
X9991071Y-15698214D01*
X9962500Y-15655357D01*
X9948214Y-15626786D01*
X9933928Y-15583929D01*
X9919643Y-15512500D01*
X9919643Y-15455357D01*
X9933928Y-15383929D01*
X9948214Y-15341071D01*
X9962500Y-15312500D01*
X9991071Y-15269643D01*
X10005357Y-15255357D01*
X10248214Y-15398214D02*
X10248214Y-15598214D01*
X10176786Y-15283929D02*
X10105357Y-15498214D01*
X10291071Y-15498214D01*
X10633928Y-15598214D02*
X10633928Y-15298214D01*
X10762500Y-15598214D02*
X10762500Y-15441071D01*
X10748214Y-15412500D01*
X10719643Y-15398214D01*
X10676786Y-15398214D01*
X10648214Y-15412500D01*
X10633928Y-15426786D01*
X10948214Y-15598214D02*
X10919643Y-15583929D01*
X10905357Y-15569643D01*
X10891071Y-15541071D01*
X10891071Y-15455357D01*
X10905357Y-15426786D01*
X10919643Y-15412500D01*
X10948214Y-15398214D01*
X10991071Y-15398214D01*
X11019643Y-15412500D01*
X11033928Y-15426786D01*
X11048214Y-15455357D01*
X11048214Y-15541071D01*
X11033928Y-15569643D01*
X11019643Y-15583929D01*
X10991071Y-15598214D01*
X10948214Y-15598214D01*
X11219643Y-15598214D02*
X11191071Y-15583929D01*
X11176786Y-15555357D01*
X11176786Y-15298214D01*
X11448214Y-15583929D02*
X11419643Y-15598214D01*
X11362500Y-15598214D01*
X11333928Y-15583929D01*
X11319643Y-15555357D01*
X11319643Y-15441071D01*
X11333928Y-15412500D01*
X11362500Y-15398214D01*
X11419643Y-15398214D01*
X11448214Y-15412500D01*
X11462500Y-15441071D01*
X11462500Y-15469643D01*
X11319643Y-15498214D01*
X11576786Y-15583929D02*
X11605357Y-15598214D01*
X11662500Y-15598214D01*
X11691071Y-15583929D01*
X11705357Y-15555357D01*
X11705357Y-15541071D01*
X11691071Y-15512500D01*
X11662500Y-15498214D01*
X11619643Y-15498214D01*
X11591071Y-15483929D01*
X11576786Y-15455357D01*
X11576786Y-15441071D01*
X11591071Y-15412500D01*
X11619643Y-15398214D01*
X11662500Y-15398214D01*
X11691071Y-15412500D01*
X11805357Y-15712500D02*
X11819643Y-15698214D01*
X11848214Y-15655357D01*
X11862500Y-15626786D01*
X11876786Y-15583929D01*
X11891071Y-15512500D01*
X11891071Y-15455357D01*
X11876786Y-15383929D01*
X11862500Y-15341071D01*
X11848214Y-15312500D01*
X11819643Y-15269643D01*
X11805357Y-15255357D01*
X12348214Y-15712500D02*
X12333928Y-15698214D01*
X12305357Y-15655357D01*
X12291071Y-15626786D01*
X12276786Y-15583929D01*
X12262500Y-15512500D01*
X12262500Y-15455357D01*
X12276786Y-15383929D01*
X12291071Y-15341071D01*
X12305357Y-15312500D01*
X12333928Y-15269643D01*
X12348214Y-15255357D01*
X12462500Y-15398214D02*
X12462500Y-15598214D01*
X12462500Y-15426786D02*
X12476786Y-15412500D01*
X12505357Y-15398214D01*
X12548214Y-15398214D01*
X12576786Y-15412500D01*
X12591071Y-15441071D01*
X12591071Y-15598214D01*
X12776786Y-15598214D02*
X12748214Y-15583929D01*
X12733928Y-15569643D01*
X12719643Y-15541071D01*
X12719643Y-15455357D01*
X12733928Y-15426786D01*
X12748214Y-15412500D01*
X12776786Y-15398214D01*
X12819643Y-15398214D01*
X12848214Y-15412500D01*
X12862500Y-15426786D01*
X12876786Y-15455357D01*
X12876786Y-15541071D01*
X12862500Y-15569643D01*
X12848214Y-15583929D01*
X12819643Y-15598214D01*
X12776786Y-15598214D01*
X12962500Y-15398214D02*
X13076786Y-15398214D01*
X13005357Y-15298214D02*
X13005357Y-15555357D01*
X13019643Y-15583929D01*
X13048214Y-15598214D01*
X13076786Y-15598214D01*
X13405357Y-15398214D02*
X13405357Y-15698214D01*
X13405357Y-15412500D02*
X13433928Y-15398214D01*
X13491071Y-15398214D01*
X13519643Y-15412500D01*
X13533928Y-15426786D01*
X13548214Y-15455357D01*
X13548214Y-15541071D01*
X13533928Y-15569643D01*
X13519643Y-15583929D01*
X13491071Y-15598214D01*
X13433928Y-15598214D01*
X13405357Y-15583929D01*
X13719643Y-15598214D02*
X13691071Y-15583929D01*
X13676786Y-15555357D01*
X13676786Y-15298214D01*
X13962500Y-15598214D02*
X13962500Y-15441071D01*
X13948214Y-15412500D01*
X13919643Y-15398214D01*
X13862500Y-15398214D01*
X13833928Y-15412500D01*
X13962500Y-15583929D02*
X13933928Y-15598214D01*
X13862500Y-15598214D01*
X13833928Y-15583929D01*
X13819643Y-15555357D01*
X13819643Y-15526786D01*
X13833928Y-15498214D01*
X13862500Y-15483929D01*
X13933928Y-15483929D01*
X13962500Y-15469643D01*
X14062500Y-15398214D02*
X14176786Y-15398214D01*
X14105357Y-15298214D02*
X14105357Y-15555357D01*
X14119643Y-15583929D01*
X14148214Y-15598214D01*
X14176786Y-15598214D01*
X14391071Y-15583929D02*
X14362500Y-15598214D01*
X14305357Y-15598214D01*
X14276786Y-15583929D01*
X14262500Y-15555357D01*
X14262500Y-15441071D01*
X14276786Y-15412500D01*
X14305357Y-15398214D01*
X14362500Y-15398214D01*
X14391071Y-15412500D01*
X14405357Y-15441071D01*
X14405357Y-15469643D01*
X14262500Y-15498214D01*
X14662500Y-15598214D02*
X14662500Y-15298214D01*
X14662500Y-15583929D02*
X14633928Y-15598214D01*
X14576786Y-15598214D01*
X14548214Y-15583929D01*
X14533928Y-15569643D01*
X14519643Y-15541071D01*
X14519643Y-15455357D01*
X14533928Y-15426786D01*
X14548214Y-15412500D01*
X14576786Y-15398214D01*
X14633928Y-15398214D01*
X14662500Y-15412500D01*
X14776786Y-15712500D02*
X14791071Y-15698214D01*
X14819643Y-15655357D01*
X14833928Y-15626786D01*
X14848214Y-15583929D01*
X14862500Y-15512500D01*
X14862500Y-15455357D01*
X14848214Y-15383929D01*
X14833928Y-15341071D01*
X14819643Y-15312500D01*
X14791071Y-15269643D01*
X14776786Y-15255357D01*
X4747500Y-15858500D02*
G75*
G03*
X4747500Y-15858500I-100000J0D01*
G01*
X5019643Y-15722786D02*
X5033928Y-15708500D01*
X5062500Y-15694214D01*
X5133928Y-15694214D01*
X5162500Y-15708500D01*
X5176786Y-15722786D01*
X5191071Y-15751357D01*
X5191071Y-15779929D01*
X5176786Y-15822786D01*
X5005357Y-15994214D01*
X5191071Y-15994214D01*
X5319643Y-15965643D02*
X5333928Y-15979929D01*
X5319643Y-15994214D01*
X5305357Y-15979929D01*
X5319643Y-15965643D01*
X5319643Y-15994214D01*
X5519643Y-15694214D02*
X5548214Y-15694214D01*
X5576786Y-15708500D01*
X5591071Y-15722786D01*
X5605357Y-15751357D01*
X5619643Y-15808500D01*
X5619643Y-15879929D01*
X5605357Y-15937071D01*
X5591071Y-15965643D01*
X5576786Y-15979929D01*
X5548214Y-15994214D01*
X5519643Y-15994214D01*
X5491071Y-15979929D01*
X5476786Y-15965643D01*
X5462500Y-15937071D01*
X5448214Y-15879929D01*
X5448214Y-15808500D01*
X5462500Y-15751357D01*
X5476786Y-15722786D01*
X5491071Y-15708500D01*
X5519643Y-15694214D01*
X5805357Y-15694214D02*
X5833928Y-15694214D01*
X5862500Y-15708500D01*
X5876786Y-15722786D01*
X5891071Y-15751357D01*
X5905357Y-15808500D01*
X5905357Y-15879929D01*
X5891071Y-15937071D01*
X5876786Y-15965643D01*
X5862500Y-15979929D01*
X5833928Y-15994214D01*
X5805357Y-15994214D01*
X5776786Y-15979929D01*
X5762500Y-15965643D01*
X5748214Y-15937071D01*
X5733928Y-15879929D01*
X5733928Y-15808500D01*
X5748214Y-15751357D01*
X5762500Y-15722786D01*
X5776786Y-15708500D01*
X5805357Y-15694214D01*
X6091071Y-15694214D02*
X6119643Y-15694214D01*
X6148214Y-15708500D01*
X6162500Y-15722786D01*
X6176786Y-15751357D01*
X6191071Y-15808500D01*
X6191071Y-15879929D01*
X6176786Y-15937071D01*
X6162500Y-15965643D01*
X6148214Y-15979929D01*
X6119643Y-15994214D01*
X6091071Y-15994214D01*
X6062500Y-15979929D01*
X6048214Y-15965643D01*
X6033928Y-15937071D01*
X6019643Y-15879929D01*
X6019643Y-15808500D01*
X6033928Y-15751357D01*
X6048214Y-15722786D01*
X6062500Y-15708500D01*
X6091071Y-15694214D01*
X6319643Y-15994214D02*
X6319643Y-15794214D01*
X6319643Y-15822786D02*
X6333928Y-15808500D01*
X6362500Y-15794214D01*
X6405357Y-15794214D01*
X6433928Y-15808500D01*
X6448214Y-15837071D01*
X6448214Y-15994214D01*
X6448214Y-15837071D02*
X6462500Y-15808500D01*
X6491071Y-15794214D01*
X6533928Y-15794214D01*
X6562500Y-15808500D01*
X6576786Y-15837071D01*
X6576786Y-15994214D01*
X6719643Y-15994214D02*
X6719643Y-15794214D01*
X6719643Y-15822786D02*
X6733928Y-15808500D01*
X6762500Y-15794214D01*
X6805357Y-15794214D01*
X6833928Y-15808500D01*
X6848214Y-15837071D01*
X6848214Y-15994214D01*
X6848214Y-15837071D02*
X6862500Y-15808500D01*
X6891071Y-15794214D01*
X6933928Y-15794214D01*
X6962500Y-15808500D01*
X6976786Y-15837071D01*
X6976786Y-15994214D01*
X7562500Y-15679929D02*
X7305357Y-16065643D01*
X7948214Y-15694214D02*
X7976786Y-15694214D01*
X8005357Y-15708500D01*
X8019643Y-15722786D01*
X8033928Y-15751357D01*
X8048214Y-15808500D01*
X8048214Y-15879929D01*
X8033928Y-15937071D01*
X8019643Y-15965643D01*
X8005357Y-15979929D01*
X7976786Y-15994214D01*
X7948214Y-15994214D01*
X7919643Y-15979929D01*
X7905357Y-15965643D01*
X7891071Y-15937071D01*
X7876786Y-15879929D01*
X7876786Y-15808500D01*
X7891071Y-15751357D01*
X7905357Y-15722786D01*
X7919643Y-15708500D01*
X7948214Y-15694214D01*
X8176786Y-15965643D02*
X8191071Y-15979929D01*
X8176786Y-15994214D01*
X8162500Y-15979929D01*
X8176786Y-15965643D01*
X8176786Y-15994214D01*
X8376786Y-15694214D02*
X8405357Y-15694214D01*
X8433928Y-15708500D01*
X8448214Y-15722786D01*
X8462500Y-15751357D01*
X8476786Y-15808500D01*
X8476786Y-15879929D01*
X8462500Y-15937071D01*
X8448214Y-15965643D01*
X8433928Y-15979929D01*
X8405357Y-15994214D01*
X8376786Y-15994214D01*
X8348214Y-15979929D01*
X8333928Y-15965643D01*
X8319643Y-15937071D01*
X8305357Y-15879929D01*
X8305357Y-15808500D01*
X8319643Y-15751357D01*
X8333928Y-15722786D01*
X8348214Y-15708500D01*
X8376786Y-15694214D01*
X8576786Y-15694214D02*
X8776786Y-15694214D01*
X8648214Y-15994214D01*
X8933928Y-15822786D02*
X8905357Y-15808500D01*
X8891071Y-15794214D01*
X8876786Y-15765643D01*
X8876786Y-15751357D01*
X8891071Y-15722786D01*
X8905357Y-15708500D01*
X8933928Y-15694214D01*
X8991071Y-15694214D01*
X9019643Y-15708500D01*
X9033928Y-15722786D01*
X9048214Y-15751357D01*
X9048214Y-15765643D01*
X9033928Y-15794214D01*
X9019643Y-15808500D01*
X8991071Y-15822786D01*
X8933928Y-15822786D01*
X8905357Y-15837071D01*
X8891071Y-15851357D01*
X8876786Y-15879929D01*
X8876786Y-15937071D01*
X8891071Y-15965643D01*
X8905357Y-15979929D01*
X8933928Y-15994214D01*
X8991071Y-15994214D01*
X9019643Y-15979929D01*
X9033928Y-15965643D01*
X9048214Y-15937071D01*
X9048214Y-15879929D01*
X9033928Y-15851357D01*
X9019643Y-15837071D01*
X8991071Y-15822786D01*
X9148214Y-15694214D02*
X9348214Y-15694214D01*
X9219643Y-15994214D01*
X9448214Y-15694214D02*
X9448214Y-15751357D01*
X9562500Y-15694214D02*
X9562500Y-15751357D01*
X10005357Y-16108500D02*
X9991071Y-16094214D01*
X9962500Y-16051357D01*
X9948214Y-16022786D01*
X9933928Y-15979929D01*
X9919643Y-15908500D01*
X9919643Y-15851357D01*
X9933928Y-15779929D01*
X9948214Y-15737071D01*
X9962500Y-15708500D01*
X9991071Y-15665643D01*
X10005357Y-15651357D01*
X10105357Y-15722786D02*
X10119643Y-15708500D01*
X10148214Y-15694214D01*
X10219643Y-15694214D01*
X10248214Y-15708500D01*
X10262500Y-15722786D01*
X10276786Y-15751357D01*
X10276786Y-15779929D01*
X10262500Y-15822786D01*
X10091071Y-15994214D01*
X10276786Y-15994214D01*
X10633928Y-15994214D02*
X10633928Y-15694214D01*
X10762500Y-15994214D02*
X10762500Y-15837071D01*
X10748214Y-15808500D01*
X10719643Y-15794214D01*
X10676786Y-15794214D01*
X10648214Y-15808500D01*
X10633928Y-15822786D01*
X10948214Y-15994214D02*
X10919643Y-15979929D01*
X10905357Y-15965643D01*
X10891071Y-15937071D01*
X10891071Y-15851357D01*
X10905357Y-15822786D01*
X10919643Y-15808500D01*
X10948214Y-15794214D01*
X10991071Y-15794214D01*
X11019643Y-15808500D01*
X11033928Y-15822786D01*
X11048214Y-15851357D01*
X11048214Y-15937071D01*
X11033928Y-15965643D01*
X11019643Y-15979929D01*
X10991071Y-15994214D01*
X10948214Y-15994214D01*
X11219643Y-15994214D02*
X11191071Y-15979929D01*
X11176786Y-15951357D01*
X11176786Y-15694214D01*
X11448214Y-15979929D02*
X11419643Y-15994214D01*
X11362500Y-15994214D01*
X11333928Y-15979929D01*
X11319643Y-15951357D01*
X11319643Y-15837071D01*
X11333928Y-15808500D01*
X11362500Y-15794214D01*
X11419643Y-15794214D01*
X11448214Y-15808500D01*
X11462500Y-15837071D01*
X11462500Y-15865643D01*
X11319643Y-15894214D01*
X11576786Y-15979929D02*
X11605357Y-15994214D01*
X11662500Y-15994214D01*
X11691071Y-15979929D01*
X11705357Y-15951357D01*
X11705357Y-15937071D01*
X11691071Y-15908500D01*
X11662500Y-15894214D01*
X11619643Y-15894214D01*
X11591071Y-15879929D01*
X11576786Y-15851357D01*
X11576786Y-15837071D01*
X11591071Y-15808500D01*
X11619643Y-15794214D01*
X11662500Y-15794214D01*
X11691071Y-15808500D01*
X11805357Y-16108500D02*
X11819643Y-16094214D01*
X11848214Y-16051357D01*
X11862500Y-16022786D01*
X11876786Y-15979929D01*
X11891071Y-15908500D01*
X11891071Y-15851357D01*
X11876786Y-15779929D01*
X11862500Y-15737071D01*
X11848214Y-15708500D01*
X11819643Y-15665643D01*
X11805357Y-15651357D01*
X12348214Y-16108500D02*
X12333928Y-16094214D01*
X12305357Y-16051357D01*
X12291071Y-16022786D01*
X12276786Y-15979929D01*
X12262500Y-15908500D01*
X12262500Y-15851357D01*
X12276786Y-15779929D01*
X12291071Y-15737071D01*
X12305357Y-15708500D01*
X12333928Y-15665643D01*
X12348214Y-15651357D01*
X12462500Y-15794214D02*
X12462500Y-15994214D01*
X12462500Y-15822786D02*
X12476786Y-15808500D01*
X12505357Y-15794214D01*
X12548214Y-15794214D01*
X12576786Y-15808500D01*
X12591071Y-15837071D01*
X12591071Y-15994214D01*
X12776786Y-15994214D02*
X12748214Y-15979929D01*
X12733928Y-15965643D01*
X12719643Y-15937071D01*
X12719643Y-15851357D01*
X12733928Y-15822786D01*
X12748214Y-15808500D01*
X12776786Y-15794214D01*
X12819643Y-15794214D01*
X12848214Y-15808500D01*
X12862500Y-15822786D01*
X12876786Y-15851357D01*
X12876786Y-15937071D01*
X12862500Y-15965643D01*
X12848214Y-15979929D01*
X12819643Y-15994214D01*
X12776786Y-15994214D01*
X12962500Y-15794214D02*
X13076786Y-15794214D01*
X13005357Y-15694214D02*
X13005357Y-15951357D01*
X13019643Y-15979929D01*
X13048214Y-15994214D01*
X13076786Y-15994214D01*
X13405357Y-15794214D02*
X13405357Y-16094214D01*
X13405357Y-15808500D02*
X13433928Y-15794214D01*
X13491071Y-15794214D01*
X13519643Y-15808500D01*
X13533928Y-15822786D01*
X13548214Y-15851357D01*
X13548214Y-15937071D01*
X13533928Y-15965643D01*
X13519643Y-15979929D01*
X13491071Y-15994214D01*
X13433928Y-15994214D01*
X13405357Y-15979929D01*
X13719643Y-15994214D02*
X13691071Y-15979929D01*
X13676786Y-15951357D01*
X13676786Y-15694214D01*
X13962500Y-15994214D02*
X13962500Y-15837071D01*
X13948214Y-15808500D01*
X13919643Y-15794214D01*
X13862500Y-15794214D01*
X13833928Y-15808500D01*
X13962500Y-15979929D02*
X13933928Y-15994214D01*
X13862500Y-15994214D01*
X13833928Y-15979929D01*
X13819643Y-15951357D01*
X13819643Y-15922786D01*
X13833928Y-15894214D01*
X13862500Y-15879929D01*
X13933928Y-15879929D01*
X13962500Y-15865643D01*
X14062500Y-15794214D02*
X14176786Y-15794214D01*
X14105357Y-15694214D02*
X14105357Y-15951357D01*
X14119643Y-15979929D01*
X14148214Y-15994214D01*
X14176786Y-15994214D01*
X14391071Y-15979929D02*
X14362500Y-15994214D01*
X14305357Y-15994214D01*
X14276786Y-15979929D01*
X14262500Y-15951357D01*
X14262500Y-15837071D01*
X14276786Y-15808500D01*
X14305357Y-15794214D01*
X14362500Y-15794214D01*
X14391071Y-15808500D01*
X14405357Y-15837071D01*
X14405357Y-15865643D01*
X14262500Y-15894214D01*
X14662500Y-15994214D02*
X14662500Y-15694214D01*
X14662500Y-15979929D02*
X14633928Y-15994214D01*
X14576786Y-15994214D01*
X14548214Y-15979929D01*
X14533928Y-15965643D01*
X14519643Y-15937071D01*
X14519643Y-15851357D01*
X14533928Y-15822786D01*
X14548214Y-15808500D01*
X14576786Y-15794214D01*
X14633928Y-15794214D01*
X14662500Y-15808500D01*
X14776786Y-16108500D02*
X14791071Y-16094214D01*
X14819643Y-16051357D01*
X14833928Y-16022786D01*
X14848214Y-15979929D01*
X14862500Y-15908500D01*
X14862500Y-15851357D01*
X14848214Y-15779929D01*
X14833928Y-15737071D01*
X14819643Y-15708500D01*
X14791071Y-15665643D01*
X14776786Y-15651357D01*
X4637500Y-16144500D02*
X4637500Y-16364500D01*
X4527500Y-16254500D02*
X4747500Y-16254500D01*
X5019643Y-16118786D02*
X5033928Y-16104500D01*
X5062500Y-16090214D01*
X5133928Y-16090214D01*
X5162500Y-16104500D01*
X5176786Y-16118786D01*
X5191071Y-16147357D01*
X5191071Y-16175929D01*
X5176786Y-16218786D01*
X5005357Y-16390214D01*
X5191071Y-16390214D01*
X5319643Y-16361643D02*
X5333928Y-16375929D01*
X5319643Y-16390214D01*
X5305357Y-16375929D01*
X5319643Y-16361643D01*
X5319643Y-16390214D01*
X5448214Y-16118786D02*
X5462500Y-16104500D01*
X5491071Y-16090214D01*
X5562500Y-16090214D01*
X5591071Y-16104500D01*
X5605357Y-16118786D01*
X5619643Y-16147357D01*
X5619643Y-16175929D01*
X5605357Y-16218786D01*
X5433928Y-16390214D01*
X5619643Y-16390214D01*
X5805357Y-16090214D02*
X5833928Y-16090214D01*
X5862500Y-16104500D01*
X5876786Y-16118786D01*
X5891071Y-16147357D01*
X5905357Y-16204500D01*
X5905357Y-16275929D01*
X5891071Y-16333071D01*
X5876786Y-16361643D01*
X5862500Y-16375929D01*
X5833928Y-16390214D01*
X5805357Y-16390214D01*
X5776786Y-16375929D01*
X5762500Y-16361643D01*
X5748214Y-16333071D01*
X5733928Y-16275929D01*
X5733928Y-16204500D01*
X5748214Y-16147357D01*
X5762500Y-16118786D01*
X5776786Y-16104500D01*
X5805357Y-16090214D01*
X6091071Y-16090214D02*
X6119643Y-16090214D01*
X6148214Y-16104500D01*
X6162500Y-16118786D01*
X6176786Y-16147357D01*
X6191071Y-16204500D01*
X6191071Y-16275929D01*
X6176786Y-16333071D01*
X6162500Y-16361643D01*
X6148214Y-16375929D01*
X6119643Y-16390214D01*
X6091071Y-16390214D01*
X6062500Y-16375929D01*
X6048214Y-16361643D01*
X6033928Y-16333071D01*
X6019643Y-16275929D01*
X6019643Y-16204500D01*
X6033928Y-16147357D01*
X6048214Y-16118786D01*
X6062500Y-16104500D01*
X6091071Y-16090214D01*
X6319643Y-16390214D02*
X6319643Y-16190214D01*
X6319643Y-16218786D02*
X6333928Y-16204500D01*
X6362500Y-16190214D01*
X6405357Y-16190214D01*
X6433928Y-16204500D01*
X6448214Y-16233071D01*
X6448214Y-16390214D01*
X6448214Y-16233071D02*
X6462500Y-16204500D01*
X6491071Y-16190214D01*
X6533928Y-16190214D01*
X6562500Y-16204500D01*
X6576786Y-16233071D01*
X6576786Y-16390214D01*
X6719643Y-16390214D02*
X6719643Y-16190214D01*
X6719643Y-16218786D02*
X6733928Y-16204500D01*
X6762500Y-16190214D01*
X6805357Y-16190214D01*
X6833928Y-16204500D01*
X6848214Y-16233071D01*
X6848214Y-16390214D01*
X6848214Y-16233071D02*
X6862500Y-16204500D01*
X6891071Y-16190214D01*
X6933928Y-16190214D01*
X6962500Y-16204500D01*
X6976786Y-16233071D01*
X6976786Y-16390214D01*
X7562500Y-16075929D02*
X7305357Y-16461643D01*
X7948214Y-16090214D02*
X7976786Y-16090214D01*
X8005357Y-16104500D01*
X8019643Y-16118786D01*
X8033928Y-16147357D01*
X8048214Y-16204500D01*
X8048214Y-16275929D01*
X8033928Y-16333071D01*
X8019643Y-16361643D01*
X8005357Y-16375929D01*
X7976786Y-16390214D01*
X7948214Y-16390214D01*
X7919643Y-16375929D01*
X7905357Y-16361643D01*
X7891071Y-16333071D01*
X7876786Y-16275929D01*
X7876786Y-16204500D01*
X7891071Y-16147357D01*
X7905357Y-16118786D01*
X7919643Y-16104500D01*
X7948214Y-16090214D01*
X8176786Y-16361643D02*
X8191071Y-16375929D01*
X8176786Y-16390214D01*
X8162500Y-16375929D01*
X8176786Y-16361643D01*
X8176786Y-16390214D01*
X8376786Y-16090214D02*
X8405357Y-16090214D01*
X8433928Y-16104500D01*
X8448214Y-16118786D01*
X8462500Y-16147357D01*
X8476786Y-16204500D01*
X8476786Y-16275929D01*
X8462500Y-16333071D01*
X8448214Y-16361643D01*
X8433928Y-16375929D01*
X8405357Y-16390214D01*
X8376786Y-16390214D01*
X8348214Y-16375929D01*
X8333928Y-16361643D01*
X8319643Y-16333071D01*
X8305357Y-16275929D01*
X8305357Y-16204500D01*
X8319643Y-16147357D01*
X8333928Y-16118786D01*
X8348214Y-16104500D01*
X8376786Y-16090214D01*
X8648214Y-16218786D02*
X8619643Y-16204500D01*
X8605357Y-16190214D01*
X8591071Y-16161643D01*
X8591071Y-16147357D01*
X8605357Y-16118786D01*
X8619643Y-16104500D01*
X8648214Y-16090214D01*
X8705357Y-16090214D01*
X8733928Y-16104500D01*
X8748214Y-16118786D01*
X8762500Y-16147357D01*
X8762500Y-16161643D01*
X8748214Y-16190214D01*
X8733928Y-16204500D01*
X8705357Y-16218786D01*
X8648214Y-16218786D01*
X8619643Y-16233071D01*
X8605357Y-16247357D01*
X8591071Y-16275929D01*
X8591071Y-16333071D01*
X8605357Y-16361643D01*
X8619643Y-16375929D01*
X8648214Y-16390214D01*
X8705357Y-16390214D01*
X8733928Y-16375929D01*
X8748214Y-16361643D01*
X8762500Y-16333071D01*
X8762500Y-16275929D01*
X8748214Y-16247357D01*
X8733928Y-16233071D01*
X8705357Y-16218786D01*
X9019643Y-16090214D02*
X8962500Y-16090214D01*
X8933928Y-16104500D01*
X8919643Y-16118786D01*
X8891071Y-16161643D01*
X8876786Y-16218786D01*
X8876786Y-16333071D01*
X8891071Y-16361643D01*
X8905357Y-16375929D01*
X8933928Y-16390214D01*
X8991071Y-16390214D01*
X9019643Y-16375929D01*
X9033928Y-16361643D01*
X9048214Y-16333071D01*
X9048214Y-16261643D01*
X9033928Y-16233071D01*
X9019643Y-16218786D01*
X8991071Y-16204500D01*
X8933928Y-16204500D01*
X8905357Y-16218786D01*
X8891071Y-16233071D01*
X8876786Y-16261643D01*
X9305357Y-16090214D02*
X9248214Y-16090214D01*
X9219643Y-16104500D01*
X9205357Y-16118786D01*
X9176786Y-16161643D01*
X9162500Y-16218786D01*
X9162500Y-16333071D01*
X9176786Y-16361643D01*
X9191071Y-16375929D01*
X9219643Y-16390214D01*
X9276786Y-16390214D01*
X9305357Y-16375929D01*
X9319643Y-16361643D01*
X9333928Y-16333071D01*
X9333928Y-16261643D01*
X9319643Y-16233071D01*
X9305357Y-16218786D01*
X9276786Y-16204500D01*
X9219643Y-16204500D01*
X9191071Y-16218786D01*
X9176786Y-16233071D01*
X9162500Y-16261643D01*
X9448214Y-16090214D02*
X9448214Y-16147357D01*
X9562500Y-16090214D02*
X9562500Y-16147357D01*
X10005357Y-16504500D02*
X9991071Y-16490214D01*
X9962500Y-16447357D01*
X9948214Y-16418786D01*
X9933928Y-16375929D01*
X9919643Y-16304500D01*
X9919643Y-16247357D01*
X9933928Y-16175929D01*
X9948214Y-16133071D01*
X9962500Y-16104500D01*
X9991071Y-16061643D01*
X10005357Y-16047357D01*
X10248214Y-16190214D02*
X10248214Y-16390214D01*
X10176786Y-16075929D02*
X10105357Y-16290214D01*
X10291071Y-16290214D01*
X10633928Y-16390214D02*
X10633928Y-16090214D01*
X10762500Y-16390214D02*
X10762500Y-16233071D01*
X10748214Y-16204500D01*
X10719643Y-16190214D01*
X10676786Y-16190214D01*
X10648214Y-16204500D01*
X10633928Y-16218786D01*
X10948214Y-16390214D02*
X10919643Y-16375929D01*
X10905357Y-16361643D01*
X10891071Y-16333071D01*
X10891071Y-16247357D01*
X10905357Y-16218786D01*
X10919643Y-16204500D01*
X10948214Y-16190214D01*
X10991071Y-16190214D01*
X11019643Y-16204500D01*
X11033928Y-16218786D01*
X11048214Y-16247357D01*
X11048214Y-16333071D01*
X11033928Y-16361643D01*
X11019643Y-16375929D01*
X10991071Y-16390214D01*
X10948214Y-16390214D01*
X11219643Y-16390214D02*
X11191071Y-16375929D01*
X11176786Y-16347357D01*
X11176786Y-16090214D01*
X11448214Y-16375929D02*
X11419643Y-16390214D01*
X11362500Y-16390214D01*
X11333928Y-16375929D01*
X11319643Y-16347357D01*
X11319643Y-16233071D01*
X11333928Y-16204500D01*
X11362500Y-16190214D01*
X11419643Y-16190214D01*
X11448214Y-16204500D01*
X11462500Y-16233071D01*
X11462500Y-16261643D01*
X11319643Y-16290214D01*
X11576786Y-16375929D02*
X11605357Y-16390214D01*
X11662500Y-16390214D01*
X11691071Y-16375929D01*
X11705357Y-16347357D01*
X11705357Y-16333071D01*
X11691071Y-16304500D01*
X11662500Y-16290214D01*
X11619643Y-16290214D01*
X11591071Y-16275929D01*
X11576786Y-16247357D01*
X11576786Y-16233071D01*
X11591071Y-16204500D01*
X11619643Y-16190214D01*
X11662500Y-16190214D01*
X11691071Y-16204500D01*
X11805357Y-16504500D02*
X11819643Y-16490214D01*
X11848214Y-16447357D01*
X11862500Y-16418786D01*
X11876786Y-16375929D01*
X11891071Y-16304500D01*
X11891071Y-16247357D01*
X11876786Y-16175929D01*
X11862500Y-16133071D01*
X11848214Y-16104500D01*
X11819643Y-16061643D01*
X11805357Y-16047357D01*
X12348214Y-16504500D02*
X12333928Y-16490214D01*
X12305357Y-16447357D01*
X12291071Y-16418786D01*
X12276786Y-16375929D01*
X12262500Y-16304500D01*
X12262500Y-16247357D01*
X12276786Y-16175929D01*
X12291071Y-16133071D01*
X12305357Y-16104500D01*
X12333928Y-16061643D01*
X12348214Y-16047357D01*
X12462500Y-16190214D02*
X12462500Y-16390214D01*
X12462500Y-16218786D02*
X12476786Y-16204500D01*
X12505357Y-16190214D01*
X12548214Y-16190214D01*
X12576786Y-16204500D01*
X12591071Y-16233071D01*
X12591071Y-16390214D01*
X12776786Y-16390214D02*
X12748214Y-16375929D01*
X12733928Y-16361643D01*
X12719643Y-16333071D01*
X12719643Y-16247357D01*
X12733928Y-16218786D01*
X12748214Y-16204500D01*
X12776786Y-16190214D01*
X12819643Y-16190214D01*
X12848214Y-16204500D01*
X12862500Y-16218786D01*
X12876786Y-16247357D01*
X12876786Y-16333071D01*
X12862500Y-16361643D01*
X12848214Y-16375929D01*
X12819643Y-16390214D01*
X12776786Y-16390214D01*
X12962500Y-16190214D02*
X13076786Y-16190214D01*
X13005357Y-16090214D02*
X13005357Y-16347357D01*
X13019643Y-16375929D01*
X13048214Y-16390214D01*
X13076786Y-16390214D01*
X13405357Y-16190214D02*
X13405357Y-16490214D01*
X13405357Y-16204500D02*
X13433928Y-16190214D01*
X13491071Y-16190214D01*
X13519643Y-16204500D01*
X13533928Y-16218786D01*
X13548214Y-16247357D01*
X13548214Y-16333071D01*
X13533928Y-16361643D01*
X13519643Y-16375929D01*
X13491071Y-16390214D01*
X13433928Y-16390214D01*
X13405357Y-16375929D01*
X13719643Y-16390214D02*
X13691071Y-16375929D01*
X13676786Y-16347357D01*
X13676786Y-16090214D01*
X13962500Y-16390214D02*
X13962500Y-16233071D01*
X13948214Y-16204500D01*
X13919643Y-16190214D01*
X13862500Y-16190214D01*
X13833928Y-16204500D01*
X13962500Y-16375929D02*
X13933928Y-16390214D01*
X13862500Y-16390214D01*
X13833928Y-16375929D01*
X13819643Y-16347357D01*
X13819643Y-16318786D01*
X13833928Y-16290214D01*
X13862500Y-16275929D01*
X13933928Y-16275929D01*
X13962500Y-16261643D01*
X14062500Y-16190214D02*
X14176786Y-16190214D01*
X14105357Y-16090214D02*
X14105357Y-16347357D01*
X14119643Y-16375929D01*
X14148214Y-16390214D01*
X14176786Y-16390214D01*
X14391071Y-16375929D02*
X14362500Y-16390214D01*
X14305357Y-16390214D01*
X14276786Y-16375929D01*
X14262500Y-16347357D01*
X14262500Y-16233071D01*
X14276786Y-16204500D01*
X14305357Y-16190214D01*
X14362500Y-16190214D01*
X14391071Y-16204500D01*
X14405357Y-16233071D01*
X14405357Y-16261643D01*
X14262500Y-16290214D01*
X14662500Y-16390214D02*
X14662500Y-16090214D01*
X14662500Y-16375929D02*
X14633928Y-16390214D01*
X14576786Y-16390214D01*
X14548214Y-16375929D01*
X14533928Y-16361643D01*
X14519643Y-16333071D01*
X14519643Y-16247357D01*
X14533928Y-16218786D01*
X14548214Y-16204500D01*
X14576786Y-16190214D01*
X14633928Y-16190214D01*
X14662500Y-16204500D01*
X14776786Y-16504500D02*
X14791071Y-16490214D01*
X14819643Y-16447357D01*
X14833928Y-16418786D01*
X14848214Y-16375929D01*
X14862500Y-16304500D01*
X14862500Y-16247357D01*
X14848214Y-16175929D01*
X14833928Y-16133071D01*
X14819643Y-16104500D01*
X14791071Y-16061643D01*
X14776786Y-16047357D01*
M02*
