M48
; DRILL file {KiCad (5.1.12)-1} date 12/05/21 12:24:00
; FORMAT={-:-/ absolute / metric / decimal}
; #@! TF.CreationDate,2021-12-05T12:24:00+04:00
; #@! TF.GenerationSoftware,Kicad,Pcbnew,(5.1.12)-1
; #@! TF.FileFunction,Plated,1,2,PTH
FMAT,2
METRIC
T1C0.400
T2C0.800
T3C1.000
T4C1.700
T5C2.000
T6C3.200
%
G90
G05
T1
X49.044Y-79.758
X49.044Y-94.758
X49.044Y-96.758
X49.044Y-103.758
X49.044Y-105.758
X49.044Y-107.758
X49.044Y-109.758
X49.044Y-111.758
X49.044Y-113.758
X49.044Y-115.758
X49.044Y-117.758
X49.044Y-119.758
X49.044Y-121.758
X49.044Y-123.758
X49.044Y-125.758
X49.044Y-130.758
X49.044Y-135.758
X49.044Y-137.758
X49.044Y-139.758
X50.0Y-133.5
X51.044Y-79.758
X51.044Y-88.758
X51.5Y-133.5
X52.044Y-86.758
X52.5Y-90.5
X52.5Y-92.0
X53.044Y-76.758
X53.044Y-80.758
X53.044Y-96.758
X53.044Y-98.758
X53.044Y-100.758
X53.044Y-107.758
X53.044Y-119.758
X53.044Y-125.758
X53.044Y-130.758
X53.044Y-132.758
X53.044Y-140.758
X54.75Y-96.5
X55.044Y-78.758
X55.044Y-124.758
X55.044Y-140.758
X55.5Y-112.0
X55.5Y-120.75
X55.75Y-94.75
X56.044Y-102.758
X56.044Y-104.758
X57.044Y-76.758
X57.044Y-82.758
X57.044Y-84.758
X57.044Y-108.758
X57.044Y-110.758
X57.044Y-119.758
X57.044Y-138.758
X57.044Y-142.758
X58.044Y-88.758
X58.25Y-126.0
X58.25Y-132.5
X58.75Y-129.25
X59.044Y-123.758
X59.044Y-141.758
X59.5Y-126.0
X60.044Y-88.758
X60.044Y-117.758
X61.044Y-81.758
X61.044Y-95.758
X61.044Y-140.758
X61.5Y-92.5
X61.5Y-107.0
X61.5Y-108.25
X62.044Y-77.758
X62.044Y-88.758
X63.0Y-127.0
X63.044Y-94.758
X63.044Y-140.758
X63.5Y-113.25
X63.5Y-115.75
X63.75Y-120.75
X64.044Y-76.758
X64.044Y-104.758
X64.5Y-115.75
X64.75Y-99.75
X64.75Y-128.25
X65.044Y-82.758
X65.044Y-140.758
X65.5Y-108.25
X65.5Y-115.75
X66.044Y-106.758
X66.044Y-122.758
X66.25Y-129.75
X66.5Y-92.25
X67.044Y-140.758
X67.75Y-115.75
X67.875Y-131.375
X68.0Y-96.75
X68.044Y-76.758
X68.044Y-106.758
X68.044Y-121.758
X68.044Y-133.758
X68.365Y-101.115
X68.5Y-96.0
X68.5Y-97.5
X69.0Y-96.75
X69.044Y-84.758
X69.044Y-111.758
X69.044Y-140.758
X69.5Y-96.0
X69.5Y-97.5
X69.5Y-133.0
X69.635Y-101.135
X70.0Y-96.75
X70.044Y-109.758
X70.044Y-135.758
X71.0Y-90.0
X71.0Y-131.25
X71.044Y-139.758
X72.044Y-100.758
X72.044Y-135.758
X72.5Y-133.0
X72.75Y-119.0
X72.75Y-120.0
X73.044Y-141.758
X73.75Y-120.75
X74.0Y-117.0
X74.044Y-77.758
X74.044Y-110.758
X74.044Y-114.758
X74.044Y-135.758
X74.25Y-133.25
X74.25Y-131.25
X75.044Y-141.758
X75.487Y-90.513
X75.5Y-88.5
X75.5Y-89.5
X76.044Y-124.758
X76.75Y-82.75
X76.75Y-132.0
X77.044Y-141.758
X77.25Y-88.75
X77.75Y-118.5
X78.0Y-99.5
X78.044Y-78.758
X78.5Y-88.75
X78.5Y-133.25
X78.75Y-118.0
X79.044Y-76.758
X79.044Y-80.758
X79.044Y-140.758
X79.25Y-100.5
X79.5Y-124.75
X80.25Y-117.4
X80.75Y-94.5
X81.044Y-85.25
X81.25Y-117.4
X82.0Y-86.25
X82.0Y-93.5
X82.044Y-76.758
X82.044Y-122.758
X82.044Y-124.758
X82.044Y-140.758
X83.044Y-78.758
X83.044Y-142.758
X83.5Y-106.5
X83.75Y-93.75
X83.75Y-95.25
X84.5Y-90.25
X84.5Y-94.5
X84.5Y-98.75
X85.044Y-82.758
X85.2Y-113.0
X85.25Y-93.75
X85.25Y-95.25
X85.625Y-108.875
X86.0Y-87.25
X86.0Y-90.25
X86.0Y-94.5
X86.044Y-76.758
X86.044Y-124.758
X86.044Y-140.758
X86.75Y-93.75
X86.75Y-95.25
X87.0Y-81.25
X87.0Y-98.75
X87.044Y-78.758
X87.044Y-142.758
X87.25Y-113.75
X87.75Y-105.75
X88.25Y-112.0
X88.25Y-113.0
X88.5Y-84.5
X88.5Y-95.5
X88.763Y-93.237
X89.0Y-102.75
X89.044Y-81.758
X89.044Y-98.758
X90.044Y-76.758
X90.044Y-140.758
X90.2Y-101.4
X90.25Y-102.75
X90.725Y-107.25
X90.75Y-99.0
X91.044Y-78.758
X91.044Y-82.758
X91.044Y-92.758
X91.044Y-94.758
X91.044Y-142.758
X91.5Y-102.75
X92.0Y-98.5
X92.0Y-117.5
X92.0Y-122.0
X92.5Y-80.5
X92.5Y-80.5
X92.5Y-80.5
X92.75Y-124.5
X93.25Y-89.25
X93.25Y-105.0
X93.25Y-106.5
X93.5Y-87.5
X93.75Y-111.0
X93.8Y-101.4
X94.044Y-76.758
X94.044Y-140.758
X95.013Y-104.987
X95.044Y-78.758
X95.044Y-82.758
X95.044Y-142.758
X95.8Y-106.0
X96.044Y-85.758
X96.044Y-107.758
X96.044Y-123.758
X96.5Y-81.5
X96.5Y-91.5
X97.5Y-121.75
X98.0Y-89.25
X99.044Y-85.758
X99.044Y-110.758
X99.044Y-112.758
X99.044Y-114.758
X99.044Y-116.758
X99.044Y-118.758
X99.044Y-120.758
X100.5Y-137.25
X101.044Y-85.758
X103.0Y-89.5
X103.0Y-113.25
X103.0Y-114.75
X103.0Y-116.25
X103.0Y-117.75
X103.044Y-91.758
X103.044Y-110.758
X103.044Y-120.758
X103.044Y-136.758
X103.5Y-78.75
X103.75Y-112.5
X103.75Y-114.0
X103.75Y-115.5
X103.75Y-117.0
X103.75Y-118.5
X104.0Y-89.75
X104.044Y-76.758
X104.5Y-113.25
X104.5Y-114.75
X104.5Y-116.25
X104.5Y-117.75
X104.75Y-87.25
X105.0Y-109.25
X105.044Y-85.758
X105.044Y-91.758
X105.044Y-110.758
X105.044Y-120.758
X105.044Y-135.758
X105.25Y-112.5
X105.25Y-114.0
X105.25Y-115.5
X105.25Y-117.0
X105.25Y-118.5
X106.0Y-113.25
X106.0Y-114.75
X106.0Y-116.25
X106.0Y-117.75
X106.25Y-81.5
X106.25Y-103.5
X106.5Y-121.75
X106.75Y-112.5
X106.75Y-114.0
X106.75Y-115.5
X106.75Y-117.0
X106.75Y-118.5
X107.0Y-109.25
X107.044Y-90.758
X107.044Y-99.758
X107.044Y-110.758
X107.044Y-135.758
X107.25Y-120.775
X107.5Y-113.25
X107.5Y-114.75
X107.5Y-116.25
X107.5Y-117.75
X107.75Y-127.25
X107.75Y-128.25
X108.0Y-131.75
X108.25Y-112.5
X108.25Y-114.0
X108.25Y-115.5
X108.25Y-117.0
X108.25Y-118.5
X108.25Y-120.75
X108.75Y-143.0
X109.0Y-113.25
X109.0Y-114.75
X109.0Y-116.25
X109.0Y-117.75
X109.044Y-91.758
X109.044Y-110.758
X109.25Y-131.75
X109.25Y-142.0
X109.75Y-112.5
X109.75Y-114.0
X109.75Y-115.5
X109.75Y-117.0
X109.75Y-118.5
X110.044Y-120.758
X110.5Y-113.25
X110.5Y-114.75
X110.5Y-116.25
X110.5Y-117.75
X110.75Y-85.25
X111.044Y-91.758
X111.044Y-110.758
X111.044Y-137.758
X111.044Y-142.758
X112.044Y-114.758
X112.044Y-116.758
X112.263Y-103.525
X113.0Y-78.75
X113.044Y-88.758
X113.044Y-110.758
X113.044Y-143.758
X113.5Y-85.5
X113.5Y-119.75
X114.25Y-120.5
X114.987Y-119.763
X115.0Y-111.0
X115.013Y-113.513
X115.013Y-117.737
X115.044Y-88.758
X115.044Y-143.758
X116.0Y-81.436
X116.0Y-110.25
X116.0Y-116.75
X116.044Y-137.758
X117.0Y-82.5
X117.044Y-76.758
X117.044Y-91.758
X117.044Y-123.758
X117.044Y-139.758
X117.044Y-143.758
X118.044Y-102.758
X118.25Y-89.75
X119.0Y-121.75
X119.044Y-141.758
X120.0Y-109.0
X120.044Y-99.758
X120.5Y-121.75
X120.625Y-85.125
X120.65Y-91.567
X121.044Y-106.758
X121.044Y-123.758
X121.2Y-110.8
X121.75Y-116.5
X121.92Y-91.567
X121.92Y-100.203
X122.044Y-101.758
X123.19Y-100.203
X124.46Y-100.203
X125.0Y-85.75
X125.044Y-83.758
X125.25Y-78.75
X126.044Y-76.758
X127.0Y-90.25
X127.75Y-88.0
X127.75Y-98.75
X128.044Y-76.758
X128.5Y-90.25
X129.044Y-80.758
X130.044Y-76.758
X130.044Y-94.758
X131.0Y-123.0
X131.0Y-126.75
X131.0Y-129.5
X131.044Y-83.758
X131.044Y-101.758
X131.044Y-103.758
X131.044Y-105.758
X132.044Y-76.758
X132.044Y-136.758
X132.044Y-141.758
X133.044Y-81.758
X133.044Y-118.758
X133.044Y-138.758
X134.044Y-94.758
X134.044Y-96.758
X134.044Y-142.758
X135.044Y-81.758
X135.5Y-128.5
X136.044Y-124.758
X136.044Y-136.758
X136.044Y-142.758
X137.044Y-76.758
X137.044Y-81.758
X137.044Y-105.758
X137.044Y-107.758
X137.75Y-123.5
X138.0Y-120.5
X138.044Y-100.758
X138.044Y-102.758
X138.044Y-113.758
X138.044Y-117.758
X138.044Y-136.758
X139.044Y-76.758
X139.044Y-80.758
X139.044Y-128.758
X139.25Y-119.75
X140.0Y-136.25
X140.044Y-115.758
X140.044Y-123.758
X140.75Y-138.5
X141.044Y-76.758
X141.25Y-130.75
X141.5Y-139.5
X141.75Y-122.0
X141.75Y-133.25
X142.044Y-99.758
X142.044Y-113.758
X142.044Y-117.758
X142.044Y-119.758
X142.044Y-143.758
X142.75Y-130.75
X143.044Y-77.758
X143.044Y-95.758
X143.044Y-97.758
X143.25Y-133.25
X143.5Y-140.25
X144.044Y-84.758
X144.044Y-86.758
X144.044Y-88.758
X144.044Y-103.758
X144.044Y-110.758
X144.044Y-123.758
X144.044Y-125.758
X144.25Y-139.5
X144.75Y-133.25
X145.044Y-79.758
X145.25Y-130.75
X145.5Y-120.5
X146.044Y-103.758
X146.044Y-111.758
X146.044Y-117.758
X146.044Y-127.758
X146.25Y-130.0
X146.25Y-133.25
T2
X56.75Y-80.0
X58.75Y-80.0
X60.75Y-80.0
X62.75Y-80.0
X64.75Y-80.0
X66.75Y-80.0
X68.75Y-80.0
X70.75Y-80.0
X72.75Y-80.0
X74.75Y-80.0
X75.79Y-109.42
X75.79Y-111.96
X75.79Y-114.5
X75.79Y-117.04
X80.725Y-135.388
X80.725Y-137.293
X80.725Y-139.198
X82.63Y-135.388
X82.63Y-137.293
X82.63Y-139.198
X83.41Y-109.42
X83.41Y-111.96
X83.41Y-114.5
X83.41Y-117.04
X84.535Y-135.388
X84.535Y-137.293
X84.535Y-139.198
X86.44Y-135.388
X86.44Y-137.293
X86.44Y-139.198
X88.345Y-135.388
X88.345Y-137.293
X88.345Y-139.198
X90.25Y-135.388
X90.25Y-137.293
X90.25Y-139.198
X92.155Y-135.388
X92.155Y-137.293
X92.155Y-139.198
X94.06Y-135.388
X94.06Y-137.293
X94.06Y-139.198
X97.235Y-136.023
X97.235Y-138.563
X98.505Y-134.753
X98.505Y-139.833
X99.775Y-136.023
X99.775Y-138.563
X142.0Y-109.35
T3
X49.5Y-81.96
X49.5Y-84.5
X49.5Y-87.04
X55.5Y-115.0
X55.5Y-117.5
X57.5Y-115.0
X57.5Y-117.5
X60.0Y-98.71
X60.0Y-101.25
X60.0Y-103.79
X71.75Y-111.96
X71.75Y-114.5
X71.75Y-117.04
X75.25Y-93.75
X75.25Y-96.29
X120.84Y-137.5
X120.84Y-142.58
X121.985Y-140.04
X123.13Y-137.5
X123.13Y-142.58
X124.275Y-140.04
X124.46Y-103.05
X124.46Y-105.59
X124.46Y-108.13
X124.46Y-110.67
X124.46Y-113.21
X124.46Y-115.75
X125.42Y-137.5
X125.42Y-142.58
X126.565Y-140.04
X127.0Y-103.05
X127.0Y-105.59
X127.0Y-108.13
X127.0Y-110.67
X127.0Y-113.21
X127.0Y-115.75
X127.71Y-137.5
X127.71Y-142.58
X128.855Y-140.04
X130.0Y-137.5
X130.0Y-142.58
X131.145Y-140.04
X139.2Y-104.65
X139.2Y-111.45
X142.0Y-104.65
X142.0Y-106.75
X142.0Y-111.45
X142.21Y-81.75
X144.75Y-81.75
T4
X140.05Y-91.75
T5
X75.14Y-139.198
X105.36Y-139.198
T6
X113.185Y-140.11
X138.185Y-140.11
T3
X49.75Y-99.0G85X49.75Y-101.0
G05
X51.75Y-104.7G85X53.75Y-104.7
G05
X53.455Y-110.23G85X52.125Y-110.23
G05
X53.455Y-122.27G85X52.125Y-122.27
G05
X53.5Y-136.41G85X53.5Y-138.11
G05
X53.5Y-142.87G85X53.5Y-143.57
G05
X55.75Y-99.0G85X55.75Y-101.0
G05
X68.0Y-136.41G85X68.0Y-138.11
G05
X68.0Y-142.87G85X68.0Y-143.57
G05
X140.85Y-86.75G85X139.25Y-86.75
G05
X140.85Y-96.75G85X139.25Y-96.75
G05
X144.55Y-92.55G85X144.55Y-90.95
G05
X144.1Y-101.2G85X145.6Y-101.2
G05
X144.1Y-114.9G85X145.6Y-114.9
G05
X145.65Y-109.05G85X145.65Y-107.05
G05
T0
M30
