%TF.GenerationSoftware,KiCad,Pcbnew,(5.1.12)-1*%
%TF.CreationDate,2021-12-05T12:23:55+04:00*%
%TF.ProjectId,RTD2662Board,52544432-3636-4324-926f-6172642e6b69,2*%
%TF.SameCoordinates,Original*%
%TF.FileFunction,Legend,Bot*%
%TF.FilePolarity,Positive*%
%FSLAX46Y46*%
G04 Gerber Fmt 4.6, Leading zero omitted, Abs format (unit mm)*
G04 Created by KiCad (PCBNEW (5.1.12)-1) date 2021-12-05 12:23:55*
%MOMM*%
%LPD*%
G01*
G04 APERTURE LIST*
%ADD10C,0.150000*%
%ADD11C,0.250000*%
%ADD12C,0.120000*%
%ADD13C,0.500000*%
%ADD14C,0.100000*%
%ADD15O,3.600000X2.100000*%
%ADD16C,1.800000*%
%ADD17C,2.900000*%
%ADD18O,3.700000X2.100000*%
%ADD19O,2.100000X3.700000*%
%ADD20C,1.900000*%
%ADD21C,1.600000*%
%ADD22O,2.100000X4.100000*%
%ADD23C,1.700000*%
%ADD24C,4.100000*%
%ADD25C,3.600000*%
%ADD26C,1.350000*%
%ADD27C,2.100000*%
%ADD28O,1.300000X1.850000*%
%ADD29O,1.700000X1.700000*%
%ADD30O,1.800000X1.800000*%
%ADD31C,2.300000*%
G04 APERTURE END LIST*
D10*
X119535714Y-125428571D02*
X119250000Y-125428571D01*
X119107142Y-125500000D01*
X118964285Y-125642857D01*
X118892857Y-125928571D01*
X118892857Y-126428571D01*
X118964285Y-126714285D01*
X119107142Y-126857142D01*
X119250000Y-126928571D01*
X119535714Y-126928571D01*
X119678571Y-126857142D01*
X119821428Y-126714285D01*
X119892857Y-126428571D01*
X119892857Y-125928571D01*
X119821428Y-125642857D01*
X119678571Y-125500000D01*
X119535714Y-125428571D01*
X117392857Y-126928571D02*
X117892857Y-126214285D01*
X118250000Y-126928571D02*
X118250000Y-125428571D01*
X117678571Y-125428571D01*
X117535714Y-125500000D01*
X117464285Y-125571428D01*
X117392857Y-125714285D01*
X117392857Y-125928571D01*
X117464285Y-126071428D01*
X117535714Y-126142857D01*
X117678571Y-126214285D01*
X118250000Y-126214285D01*
X116964285Y-125428571D02*
X116107142Y-125428571D01*
X116535714Y-126928571D02*
X116535714Y-125428571D01*
X115607142Y-126928571D02*
X115607142Y-125428571D01*
X115250000Y-125428571D01*
X115035714Y-125500000D01*
X114892857Y-125642857D01*
X114821428Y-125785714D01*
X114750000Y-126071428D01*
X114750000Y-126285714D01*
X114821428Y-126571428D01*
X114892857Y-126714285D01*
X115035714Y-126857142D01*
X115250000Y-126928571D01*
X115607142Y-126928571D01*
X114178571Y-125571428D02*
X114107142Y-125500000D01*
X113964285Y-125428571D01*
X113607142Y-125428571D01*
X113464285Y-125500000D01*
X113392857Y-125571428D01*
X113321428Y-125714285D01*
X113321428Y-125857142D01*
X113392857Y-126071428D01*
X114250000Y-126928571D01*
X113321428Y-126928571D01*
X112035714Y-125428571D02*
X112321428Y-125428571D01*
X112464285Y-125500000D01*
X112535714Y-125571428D01*
X112678571Y-125785714D01*
X112750000Y-126071428D01*
X112750000Y-126642857D01*
X112678571Y-126785714D01*
X112607142Y-126857142D01*
X112464285Y-126928571D01*
X112178571Y-126928571D01*
X112035714Y-126857142D01*
X111964285Y-126785714D01*
X111892857Y-126642857D01*
X111892857Y-126285714D01*
X111964285Y-126142857D01*
X112035714Y-126071428D01*
X112178571Y-126000000D01*
X112464285Y-126000000D01*
X112607142Y-126071428D01*
X112678571Y-126142857D01*
X112750000Y-126285714D01*
X110607142Y-125428571D02*
X110892857Y-125428571D01*
X111035714Y-125500000D01*
X111107142Y-125571428D01*
X111250000Y-125785714D01*
X111321428Y-126071428D01*
X111321428Y-126642857D01*
X111250000Y-126785714D01*
X111178571Y-126857142D01*
X111035714Y-126928571D01*
X110750000Y-126928571D01*
X110607142Y-126857142D01*
X110535714Y-126785714D01*
X110464285Y-126642857D01*
X110464285Y-126285714D01*
X110535714Y-126142857D01*
X110607142Y-126071428D01*
X110750000Y-126000000D01*
X111035714Y-126000000D01*
X111178571Y-126071428D01*
X111250000Y-126142857D01*
X111321428Y-126285714D01*
X109892857Y-125571428D02*
X109821428Y-125500000D01*
X109678571Y-125428571D01*
X109321428Y-125428571D01*
X109178571Y-125500000D01*
X109107142Y-125571428D01*
X109035714Y-125714285D01*
X109035714Y-125857142D01*
X109107142Y-126071428D01*
X109964285Y-126928571D01*
X109035714Y-126928571D01*
X108392857Y-126357142D02*
X107250000Y-126357142D01*
X106535714Y-126928571D02*
X106535714Y-125428571D01*
X105964285Y-125428571D01*
X105821428Y-125500000D01*
X105750000Y-125571428D01*
X105678571Y-125714285D01*
X105678571Y-125928571D01*
X105750000Y-126071428D01*
X105821428Y-126142857D01*
X105964285Y-126214285D01*
X106535714Y-126214285D01*
X104178571Y-126928571D02*
X104678571Y-126214285D01*
X105035714Y-126928571D02*
X105035714Y-125428571D01*
X104464285Y-125428571D01*
X104321428Y-125500000D01*
X104250000Y-125571428D01*
X104178571Y-125714285D01*
X104178571Y-125928571D01*
X104250000Y-126071428D01*
X104321428Y-126142857D01*
X104464285Y-126214285D01*
X105035714Y-126214285D01*
X103250000Y-125428571D02*
X102964285Y-125428571D01*
X102821428Y-125500000D01*
X102678571Y-125642857D01*
X102607142Y-125928571D01*
X102607142Y-126428571D01*
X102678571Y-126714285D01*
X102821428Y-126857142D01*
X102964285Y-126928571D01*
X103250000Y-126928571D01*
X103392857Y-126857142D01*
X103535714Y-126714285D01*
X103607142Y-126428571D01*
X103607142Y-125928571D01*
X103535714Y-125642857D01*
X103392857Y-125500000D01*
X103250000Y-125428571D01*
X102178571Y-125428571D02*
X101321428Y-125428571D01*
X101750000Y-126928571D02*
X101750000Y-125428571D01*
X100535714Y-125428571D02*
X100250000Y-125428571D01*
X100107142Y-125500000D01*
X99964285Y-125642857D01*
X99892857Y-125928571D01*
X99892857Y-126428571D01*
X99964285Y-126714285D01*
X100107142Y-126857142D01*
X100250000Y-126928571D01*
X100535714Y-126928571D01*
X100678571Y-126857142D01*
X100821428Y-126714285D01*
X100892857Y-126428571D01*
X100892857Y-125928571D01*
X100821428Y-125642857D01*
X100678571Y-125500000D01*
X100535714Y-125428571D01*
X98750000Y-126142857D02*
X98535714Y-126214285D01*
X98464285Y-126285714D01*
X98392857Y-126428571D01*
X98392857Y-126642857D01*
X98464285Y-126785714D01*
X98535714Y-126857142D01*
X98678571Y-126928571D01*
X99250000Y-126928571D01*
X99250000Y-125428571D01*
X98750000Y-125428571D01*
X98607142Y-125500000D01*
X98535714Y-125571428D01*
X98464285Y-125714285D01*
X98464285Y-125857142D01*
X98535714Y-126000000D01*
X98607142Y-126071428D01*
X98750000Y-126142857D01*
X99250000Y-126142857D01*
X97464285Y-125428571D02*
X97178571Y-125428571D01*
X97035714Y-125500000D01*
X96892857Y-125642857D01*
X96821428Y-125928571D01*
X96821428Y-126428571D01*
X96892857Y-126714285D01*
X97035714Y-126857142D01*
X97178571Y-126928571D01*
X97464285Y-126928571D01*
X97607142Y-126857142D01*
X97750000Y-126714285D01*
X97821428Y-126428571D01*
X97821428Y-125928571D01*
X97750000Y-125642857D01*
X97607142Y-125500000D01*
X97464285Y-125428571D01*
X96250000Y-126500000D02*
X95535714Y-126500000D01*
X96392857Y-126928571D02*
X95892857Y-125428571D01*
X95392857Y-126928571D01*
X94035714Y-126928571D02*
X94535714Y-126214285D01*
X94892857Y-126928571D02*
X94892857Y-125428571D01*
X94321428Y-125428571D01*
X94178571Y-125500000D01*
X94107142Y-125571428D01*
X94035714Y-125714285D01*
X94035714Y-125928571D01*
X94107142Y-126071428D01*
X94178571Y-126142857D01*
X94321428Y-126214285D01*
X94892857Y-126214285D01*
X93392857Y-126928571D02*
X93392857Y-125428571D01*
X93035714Y-125428571D01*
X92821428Y-125500000D01*
X92678571Y-125642857D01*
X92607142Y-125785714D01*
X92535714Y-126071428D01*
X92535714Y-126285714D01*
X92607142Y-126571428D01*
X92678571Y-126714285D01*
X92821428Y-126857142D01*
X93035714Y-126928571D01*
X93392857Y-126928571D01*
X91892857Y-126357142D02*
X90750000Y-126357142D01*
X89178571Y-126928571D02*
X89678571Y-126214285D01*
X90035714Y-126928571D02*
X90035714Y-125428571D01*
X89464285Y-125428571D01*
X89321428Y-125500000D01*
X89250000Y-125571428D01*
X89178571Y-125714285D01*
X89178571Y-125928571D01*
X89250000Y-126071428D01*
X89321428Y-126142857D01*
X89464285Y-126214285D01*
X90035714Y-126214285D01*
X88535714Y-126142857D02*
X88035714Y-126142857D01*
X87821428Y-126928571D02*
X88535714Y-126928571D01*
X88535714Y-125428571D01*
X87821428Y-125428571D01*
X87392857Y-125428571D02*
X86892857Y-126928571D01*
X86392857Y-125428571D01*
X85107142Y-126928571D02*
X85964285Y-126928571D01*
X85535714Y-126928571D02*
X85535714Y-125428571D01*
X85678571Y-125642857D01*
X85821428Y-125785714D01*
X85964285Y-125857142D01*
X140654761Y-105571428D02*
X140702380Y-105714285D01*
X140702380Y-105952380D01*
X140654761Y-106047619D01*
X140607142Y-106095238D01*
X140511904Y-106142857D01*
X140416666Y-106142857D01*
X140321428Y-106095238D01*
X140273809Y-106047619D01*
X140226190Y-105952380D01*
X140178571Y-105761904D01*
X140130952Y-105666666D01*
X140083333Y-105619047D01*
X139988095Y-105571428D01*
X139892857Y-105571428D01*
X139797619Y-105619047D01*
X139750000Y-105666666D01*
X139702380Y-105761904D01*
X139702380Y-106000000D01*
X139750000Y-106142857D01*
X139702380Y-106428571D02*
X140702380Y-106761904D01*
X139702380Y-107095238D01*
X140702380Y-107428571D02*
X139702380Y-107428571D01*
X140702380Y-107904761D02*
X139702380Y-107904761D01*
X139702380Y-108142857D01*
X139750000Y-108285714D01*
X139845238Y-108380952D01*
X139940476Y-108428571D01*
X140130952Y-108476190D01*
X140273809Y-108476190D01*
X140464285Y-108428571D01*
X140559523Y-108380952D01*
X140654761Y-108285714D01*
X140702380Y-108142857D01*
X140702380Y-107904761D01*
X140178571Y-108904761D02*
X140178571Y-109238095D01*
X140702380Y-109380952D02*
X140702380Y-108904761D01*
X139702380Y-108904761D01*
X139702380Y-109380952D01*
X139702380Y-110000000D02*
X139702380Y-110190476D01*
X139750000Y-110285714D01*
X139845238Y-110380952D01*
X140035714Y-110428571D01*
X140369047Y-110428571D01*
X140559523Y-110380952D01*
X140654761Y-110285714D01*
X140702380Y-110190476D01*
X140702380Y-110000000D01*
X140654761Y-109904761D01*
X140559523Y-109809523D01*
X140369047Y-109761904D01*
X140035714Y-109761904D01*
X139845238Y-109809523D01*
X139750000Y-109904761D01*
X139702380Y-110000000D01*
X122914404Y-116202380D02*
X122914404Y-115202380D01*
X122247738Y-115202380D02*
X122057261Y-115202380D01*
X121962023Y-115250000D01*
X121866785Y-115345238D01*
X121819166Y-115535714D01*
X121819166Y-115869047D01*
X121866785Y-116059523D01*
X121962023Y-116154761D01*
X122057261Y-116202380D01*
X122247738Y-116202380D01*
X122342976Y-116154761D01*
X122438214Y-116059523D01*
X122485833Y-115869047D01*
X122485833Y-115535714D01*
X122438214Y-115345238D01*
X122342976Y-115250000D01*
X122247738Y-115202380D01*
X120866785Y-116202380D02*
X121438214Y-116202380D01*
X121152500Y-116202380D02*
X121152500Y-115202380D01*
X121247738Y-115345238D01*
X121342976Y-115440476D01*
X121438214Y-115488095D01*
X122914404Y-113702380D02*
X122914404Y-112702380D01*
X122247738Y-112702380D02*
X122057261Y-112702380D01*
X121962023Y-112750000D01*
X121866785Y-112845238D01*
X121819166Y-113035714D01*
X121819166Y-113369047D01*
X121866785Y-113559523D01*
X121962023Y-113654761D01*
X122057261Y-113702380D01*
X122247738Y-113702380D01*
X122342976Y-113654761D01*
X122438214Y-113559523D01*
X122485833Y-113369047D01*
X122485833Y-113035714D01*
X122438214Y-112845238D01*
X122342976Y-112750000D01*
X122247738Y-112702380D01*
X121485833Y-112702380D02*
X120866785Y-112702380D01*
X121200119Y-113083333D01*
X121057261Y-113083333D01*
X120962023Y-113130952D01*
X120914404Y-113178571D01*
X120866785Y-113273809D01*
X120866785Y-113511904D01*
X120914404Y-113607142D01*
X120962023Y-113654761D01*
X121057261Y-113702380D01*
X121342976Y-113702380D01*
X121438214Y-113654761D01*
X121485833Y-113607142D01*
X122914404Y-111202380D02*
X122914404Y-110202380D01*
X122247738Y-110202380D02*
X122057261Y-110202380D01*
X121962023Y-110250000D01*
X121866785Y-110345238D01*
X121819166Y-110535714D01*
X121819166Y-110869047D01*
X121866785Y-111059523D01*
X121962023Y-111154761D01*
X122057261Y-111202380D01*
X122247738Y-111202380D01*
X122342976Y-111154761D01*
X122438214Y-111059523D01*
X122485833Y-110869047D01*
X122485833Y-110535714D01*
X122438214Y-110345238D01*
X122342976Y-110250000D01*
X122247738Y-110202380D01*
X120914404Y-110202380D02*
X121390595Y-110202380D01*
X121438214Y-110678571D01*
X121390595Y-110630952D01*
X121295357Y-110583333D01*
X121057261Y-110583333D01*
X120962023Y-110630952D01*
X120914404Y-110678571D01*
X120866785Y-110773809D01*
X120866785Y-111011904D01*
X120914404Y-111107142D01*
X120962023Y-111154761D01*
X121057261Y-111202380D01*
X121295357Y-111202380D01*
X121390595Y-111154761D01*
X121438214Y-111107142D01*
X122914404Y-108702380D02*
X122914404Y-107702380D01*
X122247738Y-107702380D02*
X122057261Y-107702380D01*
X121962023Y-107750000D01*
X121866785Y-107845238D01*
X121819166Y-108035714D01*
X121819166Y-108369047D01*
X121866785Y-108559523D01*
X121962023Y-108654761D01*
X122057261Y-108702380D01*
X122247738Y-108702380D01*
X122342976Y-108654761D01*
X122438214Y-108559523D01*
X122485833Y-108369047D01*
X122485833Y-108035714D01*
X122438214Y-107845238D01*
X122342976Y-107750000D01*
X122247738Y-107702380D01*
X121485833Y-107702380D02*
X120819166Y-107702380D01*
X121247738Y-108702380D01*
X122914404Y-106202380D02*
X122914404Y-105202380D01*
X122247738Y-105202380D02*
X122057261Y-105202380D01*
X121962023Y-105250000D01*
X121866785Y-105345238D01*
X121819166Y-105535714D01*
X121819166Y-105869047D01*
X121866785Y-106059523D01*
X121962023Y-106154761D01*
X122057261Y-106202380D01*
X122247738Y-106202380D01*
X122342976Y-106154761D01*
X122438214Y-106059523D01*
X122485833Y-105869047D01*
X122485833Y-105535714D01*
X122438214Y-105345238D01*
X122342976Y-105250000D01*
X122247738Y-105202380D01*
X121342976Y-106202380D02*
X121152500Y-106202380D01*
X121057261Y-106154761D01*
X121009642Y-106107142D01*
X120914404Y-105964285D01*
X120866785Y-105773809D01*
X120866785Y-105392857D01*
X120914404Y-105297619D01*
X120962023Y-105250000D01*
X121057261Y-105202380D01*
X121247738Y-105202380D01*
X121342976Y-105250000D01*
X121390595Y-105297619D01*
X121438214Y-105392857D01*
X121438214Y-105630952D01*
X121390595Y-105726190D01*
X121342976Y-105773809D01*
X121247738Y-105821428D01*
X121057261Y-105821428D01*
X120962023Y-105773809D01*
X120914404Y-105726190D01*
X120866785Y-105630952D01*
X130585595Y-116202380D02*
X130585595Y-115202380D01*
X129918928Y-115202380D02*
X129728452Y-115202380D01*
X129633214Y-115250000D01*
X129537976Y-115345238D01*
X129490357Y-115535714D01*
X129490357Y-115869047D01*
X129537976Y-116059523D01*
X129633214Y-116154761D01*
X129728452Y-116202380D01*
X129918928Y-116202380D01*
X130014166Y-116154761D01*
X130109404Y-116059523D01*
X130157023Y-115869047D01*
X130157023Y-115535714D01*
X130109404Y-115345238D01*
X130014166Y-115250000D01*
X129918928Y-115202380D01*
X128871309Y-115202380D02*
X128776071Y-115202380D01*
X128680833Y-115250000D01*
X128633214Y-115297619D01*
X128585595Y-115392857D01*
X128537976Y-115583333D01*
X128537976Y-115821428D01*
X128585595Y-116011904D01*
X128633214Y-116107142D01*
X128680833Y-116154761D01*
X128776071Y-116202380D01*
X128871309Y-116202380D01*
X128966547Y-116154761D01*
X129014166Y-116107142D01*
X129061785Y-116011904D01*
X129109404Y-115821428D01*
X129109404Y-115583333D01*
X129061785Y-115392857D01*
X129014166Y-115297619D01*
X128966547Y-115250000D01*
X128871309Y-115202380D01*
X130585595Y-113702380D02*
X130585595Y-112702380D01*
X129918928Y-112702380D02*
X129728452Y-112702380D01*
X129633214Y-112750000D01*
X129537976Y-112845238D01*
X129490357Y-113035714D01*
X129490357Y-113369047D01*
X129537976Y-113559523D01*
X129633214Y-113654761D01*
X129728452Y-113702380D01*
X129918928Y-113702380D01*
X130014166Y-113654761D01*
X130109404Y-113559523D01*
X130157023Y-113369047D01*
X130157023Y-113035714D01*
X130109404Y-112845238D01*
X130014166Y-112750000D01*
X129918928Y-112702380D01*
X129109404Y-112797619D02*
X129061785Y-112750000D01*
X128966547Y-112702380D01*
X128728452Y-112702380D01*
X128633214Y-112750000D01*
X128585595Y-112797619D01*
X128537976Y-112892857D01*
X128537976Y-112988095D01*
X128585595Y-113130952D01*
X129157023Y-113702380D01*
X128537976Y-113702380D01*
X130585595Y-111202380D02*
X130585595Y-110202380D01*
X129918928Y-110202380D02*
X129728452Y-110202380D01*
X129633214Y-110250000D01*
X129537976Y-110345238D01*
X129490357Y-110535714D01*
X129490357Y-110869047D01*
X129537976Y-111059523D01*
X129633214Y-111154761D01*
X129728452Y-111202380D01*
X129918928Y-111202380D01*
X130014166Y-111154761D01*
X130109404Y-111059523D01*
X130157023Y-110869047D01*
X130157023Y-110535714D01*
X130109404Y-110345238D01*
X130014166Y-110250000D01*
X129918928Y-110202380D01*
X128633214Y-110535714D02*
X128633214Y-111202380D01*
X128871309Y-110154761D02*
X129109404Y-110869047D01*
X128490357Y-110869047D01*
X130585595Y-108702380D02*
X130585595Y-107702380D01*
X129918928Y-107702380D02*
X129728452Y-107702380D01*
X129633214Y-107750000D01*
X129537976Y-107845238D01*
X129490357Y-108035714D01*
X129490357Y-108369047D01*
X129537976Y-108559523D01*
X129633214Y-108654761D01*
X129728452Y-108702380D01*
X129918928Y-108702380D01*
X130014166Y-108654761D01*
X130109404Y-108559523D01*
X130157023Y-108369047D01*
X130157023Y-108035714D01*
X130109404Y-107845238D01*
X130014166Y-107750000D01*
X129918928Y-107702380D01*
X128633214Y-107702380D02*
X128823690Y-107702380D01*
X128918928Y-107750000D01*
X128966547Y-107797619D01*
X129061785Y-107940476D01*
X129109404Y-108130952D01*
X129109404Y-108511904D01*
X129061785Y-108607142D01*
X129014166Y-108654761D01*
X128918928Y-108702380D01*
X128728452Y-108702380D01*
X128633214Y-108654761D01*
X128585595Y-108607142D01*
X128537976Y-108511904D01*
X128537976Y-108273809D01*
X128585595Y-108178571D01*
X128633214Y-108130952D01*
X128728452Y-108083333D01*
X128918928Y-108083333D01*
X129014166Y-108130952D01*
X129061785Y-108178571D01*
X129109404Y-108273809D01*
X130585595Y-106202380D02*
X130585595Y-105202380D01*
X129918928Y-105202380D02*
X129728452Y-105202380D01*
X129633214Y-105250000D01*
X129537976Y-105345238D01*
X129490357Y-105535714D01*
X129490357Y-105869047D01*
X129537976Y-106059523D01*
X129633214Y-106154761D01*
X129728452Y-106202380D01*
X129918928Y-106202380D01*
X130014166Y-106154761D01*
X130109404Y-106059523D01*
X130157023Y-105869047D01*
X130157023Y-105535714D01*
X130109404Y-105345238D01*
X130014166Y-105250000D01*
X129918928Y-105202380D01*
X128918928Y-105630952D02*
X129014166Y-105583333D01*
X129061785Y-105535714D01*
X129109404Y-105440476D01*
X129109404Y-105392857D01*
X129061785Y-105297619D01*
X129014166Y-105250000D01*
X128918928Y-105202380D01*
X128728452Y-105202380D01*
X128633214Y-105250000D01*
X128585595Y-105297619D01*
X128537976Y-105392857D01*
X128537976Y-105440476D01*
X128585595Y-105535714D01*
X128633214Y-105583333D01*
X128728452Y-105630952D01*
X128918928Y-105630952D01*
X129014166Y-105678571D01*
X129061785Y-105726190D01*
X129109404Y-105821428D01*
X129109404Y-106011904D01*
X129061785Y-106107142D01*
X129014166Y-106154761D01*
X128918928Y-106202380D01*
X128728452Y-106202380D01*
X128633214Y-106154761D01*
X128585595Y-106107142D01*
X128537976Y-106011904D01*
X128537976Y-105821428D01*
X128585595Y-105726190D01*
X128633214Y-105678571D01*
X128728452Y-105630952D01*
X132585595Y-103071428D02*
X131823690Y-103071428D01*
X132204642Y-103452380D02*
X132204642Y-102690476D01*
X131442738Y-102452380D02*
X130823690Y-102452380D01*
X131157023Y-102833333D01*
X131014166Y-102833333D01*
X130918928Y-102880952D01*
X130871309Y-102928571D01*
X130823690Y-103023809D01*
X130823690Y-103261904D01*
X130871309Y-103357142D01*
X130918928Y-103404761D01*
X131014166Y-103452380D01*
X131299880Y-103452380D01*
X131395119Y-103404761D01*
X131442738Y-103357142D01*
X130395119Y-103357142D02*
X130347500Y-103404761D01*
X130395119Y-103452380D01*
X130442738Y-103404761D01*
X130395119Y-103357142D01*
X130395119Y-103452380D01*
X130014166Y-102452380D02*
X129395119Y-102452380D01*
X129728452Y-102833333D01*
X129585595Y-102833333D01*
X129490357Y-102880952D01*
X129442738Y-102928571D01*
X129395119Y-103023809D01*
X129395119Y-103261904D01*
X129442738Y-103357142D01*
X129490357Y-103404761D01*
X129585595Y-103452380D01*
X129871309Y-103452380D01*
X129966547Y-103404761D01*
X130014166Y-103357142D01*
X129109404Y-102452380D02*
X128776071Y-103452380D01*
X128442738Y-102452380D01*
X122390595Y-102500000D02*
X122485833Y-102452380D01*
X122628690Y-102452380D01*
X122771547Y-102500000D01*
X122866785Y-102595238D01*
X122914404Y-102690476D01*
X122962023Y-102880952D01*
X122962023Y-103023809D01*
X122914404Y-103214285D01*
X122866785Y-103309523D01*
X122771547Y-103404761D01*
X122628690Y-103452380D01*
X122533452Y-103452380D01*
X122390595Y-103404761D01*
X122342976Y-103357142D01*
X122342976Y-103023809D01*
X122533452Y-103023809D01*
X121914404Y-103452380D02*
X121914404Y-102452380D01*
X121342976Y-103452380D01*
X121342976Y-102452380D01*
X120866785Y-103452380D02*
X120866785Y-102452380D01*
X120628690Y-102452380D01*
X120485833Y-102500000D01*
X120390595Y-102595238D01*
X120342976Y-102690476D01*
X120295357Y-102880952D01*
X120295357Y-103023809D01*
X120342976Y-103214285D01*
X120390595Y-103309523D01*
X120485833Y-103404761D01*
X120628690Y-103452380D01*
X120866785Y-103452380D01*
X62345238Y-143702380D02*
X62345238Y-142702380D01*
X62345238Y-143178571D02*
X61773809Y-143178571D01*
X61773809Y-143702380D02*
X61773809Y-142702380D01*
X61297619Y-143702380D02*
X61297619Y-142702380D01*
X61059523Y-142702380D01*
X60916666Y-142750000D01*
X60821428Y-142845238D01*
X60773809Y-142940476D01*
X60726190Y-143130952D01*
X60726190Y-143273809D01*
X60773809Y-143464285D01*
X60821428Y-143559523D01*
X60916666Y-143654761D01*
X61059523Y-143702380D01*
X61297619Y-143702380D01*
X60297619Y-143702380D02*
X60297619Y-142702380D01*
X59964285Y-143416666D01*
X59630952Y-142702380D01*
X59630952Y-143702380D01*
X59154761Y-143702380D02*
X59154761Y-142702380D01*
X89428571Y-142202380D02*
X89428571Y-141202380D01*
X89190476Y-141202380D01*
X89047619Y-141250000D01*
X88952380Y-141345238D01*
X88904761Y-141440476D01*
X88857142Y-141630952D01*
X88857142Y-141773809D01*
X88904761Y-141964285D01*
X88952380Y-142059523D01*
X89047619Y-142154761D01*
X89190476Y-142202380D01*
X89428571Y-142202380D01*
X88571428Y-141202380D02*
X88238095Y-142202380D01*
X87904761Y-141202380D01*
X87571428Y-142202380D02*
X87571428Y-141202380D01*
X120261904Y-139702380D02*
X119928571Y-140702380D01*
X119595238Y-139702380D01*
X118738095Y-139750000D02*
X118833333Y-139702380D01*
X118976190Y-139702380D01*
X119119047Y-139750000D01*
X119214285Y-139845238D01*
X119261904Y-139940476D01*
X119309523Y-140130952D01*
X119309523Y-140273809D01*
X119261904Y-140464285D01*
X119214285Y-140559523D01*
X119119047Y-140654761D01*
X118976190Y-140702380D01*
X118880952Y-140702380D01*
X118738095Y-140654761D01*
X118690476Y-140607142D01*
X118690476Y-140273809D01*
X118880952Y-140273809D01*
X118309523Y-140416666D02*
X117833333Y-140416666D01*
X118404761Y-140702380D02*
X118071428Y-139702380D01*
X117738095Y-140702380D01*
X96591428Y-91041404D02*
X96591428Y-91803309D01*
X96972380Y-91422357D02*
X96210476Y-91422357D01*
X95972380Y-92184261D02*
X95972380Y-92803309D01*
X96353333Y-92469976D01*
X96353333Y-92612833D01*
X96400952Y-92708071D01*
X96448571Y-92755690D01*
X96543809Y-92803309D01*
X96781904Y-92803309D01*
X96877142Y-92755690D01*
X96924761Y-92708071D01*
X96972380Y-92612833D01*
X96972380Y-92327119D01*
X96924761Y-92231880D01*
X96877142Y-92184261D01*
X96877142Y-93231880D02*
X96924761Y-93279500D01*
X96972380Y-93231880D01*
X96924761Y-93184261D01*
X96877142Y-93231880D01*
X96972380Y-93231880D01*
X95972380Y-93612833D02*
X95972380Y-94231880D01*
X96353333Y-93898547D01*
X96353333Y-94041404D01*
X96400952Y-94136642D01*
X96448571Y-94184261D01*
X96543809Y-94231880D01*
X96781904Y-94231880D01*
X96877142Y-94184261D01*
X96924761Y-94136642D01*
X96972380Y-94041404D01*
X96972380Y-93755690D01*
X96924761Y-93660452D01*
X96877142Y-93612833D01*
X95972380Y-94517595D02*
X96972380Y-94850928D01*
X95972380Y-95184261D01*
D11*
X124587000Y-95610680D02*
G75*
G03*
X124587000Y-95610680I-127000J0D01*
G01*
X124587000Y-96245680D02*
G75*
G03*
X124587000Y-96245680I-127000J0D01*
G01*
X123317000Y-95610680D02*
G75*
G03*
X123317000Y-95610680I-127000J0D01*
G01*
X123317000Y-96245680D02*
G75*
G03*
X123317000Y-96245680I-127000J0D01*
G01*
X122047000Y-95610680D02*
G75*
G03*
X122047000Y-95610680I-127000J0D01*
G01*
X122047000Y-96245680D02*
G75*
G03*
X122047000Y-96245680I-127000J0D01*
G01*
X120777000Y-96245680D02*
G75*
G03*
X120777000Y-96245680I-127000J0D01*
G01*
X120777000Y-95610680D02*
G75*
G03*
X120777000Y-95610680I-127000J0D01*
G01*
X119507000Y-96245680D02*
G75*
G03*
X119507000Y-96245680I-127000J0D01*
G01*
X119507000Y-95610680D02*
G75*
G03*
X119507000Y-95610680I-127000J0D01*
G01*
X118237000Y-95610680D02*
G75*
G03*
X118237000Y-95610680I-127000J0D01*
G01*
X118237000Y-96245680D02*
G75*
G03*
X118237000Y-96245680I-127000J0D01*
G01*
X116967000Y-95610680D02*
G75*
G03*
X116967000Y-95610680I-127000J0D01*
G01*
X116967000Y-96245680D02*
G75*
G03*
X116967000Y-96245680I-127000J0D01*
G01*
X115697000Y-95610680D02*
G75*
G03*
X115697000Y-95610680I-127000J0D01*
G01*
X115697000Y-96245680D02*
G75*
G03*
X115697000Y-96245680I-127000J0D01*
G01*
X114427000Y-96245680D02*
G75*
G03*
X114427000Y-96245680I-127000J0D01*
G01*
X114427000Y-95610680D02*
G75*
G03*
X114427000Y-95610680I-127000J0D01*
G01*
X113157000Y-95610680D02*
G75*
G03*
X113157000Y-95610680I-127000J0D01*
G01*
X113157000Y-96245680D02*
G75*
G03*
X113157000Y-96245680I-127000J0D01*
G01*
X111887000Y-96245680D02*
G75*
G03*
X111887000Y-96245680I-127000J0D01*
G01*
X111887000Y-95610680D02*
G75*
G03*
X111887000Y-95610680I-127000J0D01*
G01*
X110617000Y-96245680D02*
G75*
G03*
X110617000Y-96245680I-127000J0D01*
G01*
X110617000Y-95610680D02*
G75*
G03*
X110617000Y-95610680I-127000J0D01*
G01*
X109347000Y-95610680D02*
G75*
G03*
X109347000Y-95610680I-127000J0D01*
G01*
X109347000Y-96245680D02*
G75*
G03*
X109347000Y-96245680I-127000J0D01*
G01*
X108077000Y-95610680D02*
G75*
G03*
X108077000Y-95610680I-127000J0D01*
G01*
X108077000Y-96245680D02*
G75*
G03*
X108077000Y-96245680I-127000J0D01*
G01*
X106807000Y-95610680D02*
G75*
G03*
X106807000Y-95610680I-127000J0D01*
G01*
X106807000Y-96245680D02*
G75*
G03*
X106807000Y-96245680I-127000J0D01*
G01*
X105537000Y-96245680D02*
G75*
G03*
X105537000Y-96245680I-127000J0D01*
G01*
X105537000Y-95610680D02*
G75*
G03*
X105537000Y-95610680I-127000J0D01*
G01*
X104267000Y-96245680D02*
G75*
G03*
X104267000Y-96245680I-127000J0D01*
G01*
X104267000Y-95610680D02*
G75*
G03*
X104267000Y-95610680I-127000J0D01*
G01*
X102997000Y-95610680D02*
G75*
G03*
X102997000Y-95610680I-127000J0D01*
G01*
X102997000Y-96245680D02*
G75*
G03*
X102997000Y-96245680I-127000J0D01*
G01*
X101727000Y-96245680D02*
G75*
G03*
X101727000Y-96245680I-127000J0D01*
G01*
X101727000Y-95610680D02*
G75*
G03*
X101727000Y-95610680I-127000J0D01*
G01*
X100457000Y-96245680D02*
G75*
G03*
X100457000Y-96245680I-127000J0D01*
G01*
X100457000Y-95610680D02*
G75*
G03*
X100457000Y-95610680I-127000J0D01*
G01*
X99187000Y-95610680D02*
G75*
G03*
X99187000Y-95610680I-127000J0D01*
G01*
X99187000Y-96245680D02*
G75*
G03*
X99187000Y-96245680I-127000J0D01*
G01*
X97917000Y-95610680D02*
G75*
G03*
X97917000Y-95610680I-127000J0D01*
G01*
X97917000Y-96245680D02*
G75*
G03*
X97917000Y-96245680I-127000J0D01*
G01*
X96647000Y-95610680D02*
G75*
G03*
X96647000Y-95610680I-127000J0D01*
G01*
X96647000Y-96245680D02*
G75*
G03*
X96647000Y-96245680I-127000J0D01*
G01*
X95377000Y-95610680D02*
G75*
G03*
X95377000Y-95610680I-127000J0D01*
G01*
X95377000Y-96245680D02*
G75*
G03*
X95377000Y-96245680I-127000J0D01*
G01*
X94107000Y-96245680D02*
G75*
G03*
X94107000Y-96245680I-127000J0D01*
G01*
X94107000Y-95610680D02*
G75*
G03*
X94107000Y-95610680I-127000J0D01*
G01*
D10*
X99830000Y-92993785D02*
X99782380Y-92898547D01*
X99782380Y-92755690D01*
X99830000Y-92612833D01*
X99925238Y-92517595D01*
X100020476Y-92469976D01*
X100210952Y-92422357D01*
X100353809Y-92422357D01*
X100544285Y-92469976D01*
X100639523Y-92517595D01*
X100734761Y-92612833D01*
X100782380Y-92755690D01*
X100782380Y-92850928D01*
X100734761Y-92993785D01*
X100687142Y-93041404D01*
X100353809Y-93041404D01*
X100353809Y-92850928D01*
X100782380Y-93469976D02*
X99782380Y-93469976D01*
X100782380Y-94041404D01*
X99782380Y-94041404D01*
X100782380Y-94517595D02*
X99782380Y-94517595D01*
X99782380Y-94755690D01*
X99830000Y-94898547D01*
X99925238Y-94993785D01*
X100020476Y-95041404D01*
X100210952Y-95089023D01*
X100353809Y-95089023D01*
X100544285Y-95041404D01*
X100639523Y-94993785D01*
X100734761Y-94898547D01*
X100782380Y-94755690D01*
X100782380Y-94517595D01*
X106180000Y-92993785D02*
X106132380Y-92898547D01*
X106132380Y-92755690D01*
X106180000Y-92612833D01*
X106275238Y-92517595D01*
X106370476Y-92469976D01*
X106560952Y-92422357D01*
X106703809Y-92422357D01*
X106894285Y-92469976D01*
X106989523Y-92517595D01*
X107084761Y-92612833D01*
X107132380Y-92755690D01*
X107132380Y-92850928D01*
X107084761Y-92993785D01*
X107037142Y-93041404D01*
X106703809Y-93041404D01*
X106703809Y-92850928D01*
X107132380Y-93469976D02*
X106132380Y-93469976D01*
X107132380Y-94041404D01*
X106132380Y-94041404D01*
X107132380Y-94517595D02*
X106132380Y-94517595D01*
X106132380Y-94755690D01*
X106180000Y-94898547D01*
X106275238Y-94993785D01*
X106370476Y-95041404D01*
X106560952Y-95089023D01*
X106703809Y-95089023D01*
X106894285Y-95041404D01*
X106989523Y-94993785D01*
X107084761Y-94898547D01*
X107132380Y-94755690D01*
X107132380Y-94517595D01*
X112530000Y-92993785D02*
X112482380Y-92898547D01*
X112482380Y-92755690D01*
X112530000Y-92612833D01*
X112625238Y-92517595D01*
X112720476Y-92469976D01*
X112910952Y-92422357D01*
X113053809Y-92422357D01*
X113244285Y-92469976D01*
X113339523Y-92517595D01*
X113434761Y-92612833D01*
X113482380Y-92755690D01*
X113482380Y-92850928D01*
X113434761Y-92993785D01*
X113387142Y-93041404D01*
X113053809Y-93041404D01*
X113053809Y-92850928D01*
X113482380Y-93469976D02*
X112482380Y-93469976D01*
X113482380Y-94041404D01*
X112482380Y-94041404D01*
X113482380Y-94517595D02*
X112482380Y-94517595D01*
X112482380Y-94755690D01*
X112530000Y-94898547D01*
X112625238Y-94993785D01*
X112720476Y-95041404D01*
X112910952Y-95089023D01*
X113053809Y-95089023D01*
X113244285Y-95041404D01*
X113339523Y-94993785D01*
X113434761Y-94898547D01*
X113482380Y-94755690D01*
X113482380Y-94517595D01*
X112530000Y-97379404D02*
X112482380Y-97284166D01*
X112482380Y-97141309D01*
X112530000Y-96998452D01*
X112625238Y-96903214D01*
X112720476Y-96855595D01*
X112910952Y-96807976D01*
X113053809Y-96807976D01*
X113244285Y-96855595D01*
X113339523Y-96903214D01*
X113434761Y-96998452D01*
X113482380Y-97141309D01*
X113482380Y-97236547D01*
X113434761Y-97379404D01*
X113387142Y-97427023D01*
X113053809Y-97427023D01*
X113053809Y-97236547D01*
X113482380Y-97855595D02*
X112482380Y-97855595D01*
X113482380Y-98427023D01*
X112482380Y-98427023D01*
X113482380Y-98903214D02*
X112482380Y-98903214D01*
X112482380Y-99141309D01*
X112530000Y-99284166D01*
X112625238Y-99379404D01*
X112720476Y-99427023D01*
X112910952Y-99474642D01*
X113053809Y-99474642D01*
X113244285Y-99427023D01*
X113339523Y-99379404D01*
X113434761Y-99284166D01*
X113482380Y-99141309D01*
X113482380Y-98903214D01*
X106180000Y-97379404D02*
X106132380Y-97284166D01*
X106132380Y-97141309D01*
X106180000Y-96998452D01*
X106275238Y-96903214D01*
X106370476Y-96855595D01*
X106560952Y-96807976D01*
X106703809Y-96807976D01*
X106894285Y-96855595D01*
X106989523Y-96903214D01*
X107084761Y-96998452D01*
X107132380Y-97141309D01*
X107132380Y-97236547D01*
X107084761Y-97379404D01*
X107037142Y-97427023D01*
X106703809Y-97427023D01*
X106703809Y-97236547D01*
X107132380Y-97855595D02*
X106132380Y-97855595D01*
X107132380Y-98427023D01*
X106132380Y-98427023D01*
X107132380Y-98903214D02*
X106132380Y-98903214D01*
X106132380Y-99141309D01*
X106180000Y-99284166D01*
X106275238Y-99379404D01*
X106370476Y-99427023D01*
X106560952Y-99474642D01*
X106703809Y-99474642D01*
X106894285Y-99427023D01*
X106989523Y-99379404D01*
X107084761Y-99284166D01*
X107132380Y-99141309D01*
X107132380Y-98903214D01*
X99830000Y-97379404D02*
X99782380Y-97284166D01*
X99782380Y-97141309D01*
X99830000Y-96998452D01*
X99925238Y-96903214D01*
X100020476Y-96855595D01*
X100210952Y-96807976D01*
X100353809Y-96807976D01*
X100544285Y-96855595D01*
X100639523Y-96903214D01*
X100734761Y-96998452D01*
X100782380Y-97141309D01*
X100782380Y-97236547D01*
X100734761Y-97379404D01*
X100687142Y-97427023D01*
X100353809Y-97427023D01*
X100353809Y-97236547D01*
X100782380Y-97855595D02*
X99782380Y-97855595D01*
X100782380Y-98427023D01*
X99782380Y-98427023D01*
X100782380Y-98903214D02*
X99782380Y-98903214D01*
X99782380Y-99141309D01*
X99830000Y-99284166D01*
X99925238Y-99379404D01*
X100020476Y-99427023D01*
X100210952Y-99474642D01*
X100353809Y-99474642D01*
X100544285Y-99427023D01*
X100639523Y-99379404D01*
X100734761Y-99284166D01*
X100782380Y-99141309D01*
X100782380Y-98903214D01*
X118038571Y-93898547D02*
X118086190Y-94041404D01*
X118133809Y-94089023D01*
X118229047Y-94136642D01*
X118371904Y-94136642D01*
X118467142Y-94089023D01*
X118514761Y-94041404D01*
X118562380Y-93946166D01*
X118562380Y-93565214D01*
X117562380Y-93565214D01*
X117562380Y-93898547D01*
X117610000Y-93993785D01*
X117657619Y-94041404D01*
X117752857Y-94089023D01*
X117848095Y-94089023D01*
X117943333Y-94041404D01*
X117990952Y-93993785D01*
X118038571Y-93898547D01*
X118038571Y-93565214D01*
X117562380Y-94469976D02*
X117562380Y-95136642D01*
X118562380Y-94708071D01*
X116768571Y-93898547D02*
X116816190Y-94041404D01*
X116863809Y-94089023D01*
X116959047Y-94136642D01*
X117101904Y-94136642D01*
X117197142Y-94089023D01*
X117244761Y-94041404D01*
X117292380Y-93946166D01*
X117292380Y-93565214D01*
X116292380Y-93565214D01*
X116292380Y-93898547D01*
X116340000Y-93993785D01*
X116387619Y-94041404D01*
X116482857Y-94089023D01*
X116578095Y-94089023D01*
X116673333Y-94041404D01*
X116720952Y-93993785D01*
X116768571Y-93898547D01*
X116768571Y-93565214D01*
X116292380Y-95041404D02*
X116292380Y-94565214D01*
X116768571Y-94517595D01*
X116720952Y-94565214D01*
X116673333Y-94660452D01*
X116673333Y-94898547D01*
X116720952Y-94993785D01*
X116768571Y-95041404D01*
X116863809Y-95089023D01*
X117101904Y-95089023D01*
X117197142Y-95041404D01*
X117244761Y-94993785D01*
X117292380Y-94898547D01*
X117292380Y-94660452D01*
X117244761Y-94565214D01*
X117197142Y-94517595D01*
X115498571Y-93898547D02*
X115546190Y-94041404D01*
X115593809Y-94089023D01*
X115689047Y-94136642D01*
X115831904Y-94136642D01*
X115927142Y-94089023D01*
X115974761Y-94041404D01*
X116022380Y-93946166D01*
X116022380Y-93565214D01*
X115022380Y-93565214D01*
X115022380Y-93898547D01*
X115070000Y-93993785D01*
X115117619Y-94041404D01*
X115212857Y-94089023D01*
X115308095Y-94089023D01*
X115403333Y-94041404D01*
X115450952Y-93993785D01*
X115498571Y-93898547D01*
X115498571Y-93565214D01*
X115022380Y-94469976D02*
X115022380Y-95089023D01*
X115403333Y-94755690D01*
X115403333Y-94898547D01*
X115450952Y-94993785D01*
X115498571Y-95041404D01*
X115593809Y-95089023D01*
X115831904Y-95089023D01*
X115927142Y-95041404D01*
X115974761Y-94993785D01*
X116022380Y-94898547D01*
X116022380Y-94612833D01*
X115974761Y-94517595D01*
X115927142Y-94469976D01*
X114228571Y-86612833D02*
X114276190Y-86755690D01*
X114323809Y-86803309D01*
X114419047Y-86850928D01*
X114561904Y-86850928D01*
X114657142Y-86803309D01*
X114704761Y-86755690D01*
X114752380Y-86660452D01*
X114752380Y-86279500D01*
X113752380Y-86279500D01*
X113752380Y-86612833D01*
X113800000Y-86708071D01*
X113847619Y-86755690D01*
X113942857Y-86803309D01*
X114038095Y-86803309D01*
X114133333Y-86755690D01*
X114180952Y-86708071D01*
X114228571Y-86612833D01*
X114228571Y-86279500D01*
X114752380Y-87803309D02*
X114752380Y-87231880D01*
X114752380Y-87517595D02*
X113752380Y-87517595D01*
X113895238Y-87422357D01*
X113990476Y-87327119D01*
X114038095Y-87231880D01*
X113704761Y-88946166D02*
X114990476Y-88089023D01*
X114228571Y-89612833D02*
X114276190Y-89755690D01*
X114323809Y-89803309D01*
X114419047Y-89850928D01*
X114561904Y-89850928D01*
X114657142Y-89803309D01*
X114704761Y-89755690D01*
X114752380Y-89660452D01*
X114752380Y-89279500D01*
X113752380Y-89279500D01*
X113752380Y-89612833D01*
X113800000Y-89708071D01*
X113847619Y-89755690D01*
X113942857Y-89803309D01*
X114038095Y-89803309D01*
X114133333Y-89755690D01*
X114180952Y-89708071D01*
X114228571Y-89612833D01*
X114228571Y-89279500D01*
X113752380Y-90184261D02*
X113752380Y-90850928D01*
X114752380Y-90422357D01*
X113704761Y-91946166D02*
X114990476Y-91089023D01*
X113752380Y-92469976D02*
X113752380Y-92660452D01*
X113800000Y-92755690D01*
X113895238Y-92850928D01*
X114085714Y-92898547D01*
X114419047Y-92898547D01*
X114609523Y-92850928D01*
X114704761Y-92755690D01*
X114752380Y-92660452D01*
X114752380Y-92469976D01*
X114704761Y-92374738D01*
X114609523Y-92279500D01*
X114419047Y-92231880D01*
X114085714Y-92231880D01*
X113895238Y-92279500D01*
X113800000Y-92374738D01*
X113752380Y-92469976D01*
X113752380Y-93231880D02*
X113752380Y-93850928D01*
X114133333Y-93517595D01*
X114133333Y-93660452D01*
X114180952Y-93755690D01*
X114228571Y-93803309D01*
X114323809Y-93850928D01*
X114561904Y-93850928D01*
X114657142Y-93803309D01*
X114704761Y-93755690D01*
X114752380Y-93660452D01*
X114752380Y-93374738D01*
X114704761Y-93279500D01*
X114657142Y-93231880D01*
X114371428Y-94279500D02*
X114371428Y-95041404D01*
X114752380Y-94660452D02*
X113990476Y-94660452D01*
X111260000Y-86755690D02*
X111212380Y-86660452D01*
X111212380Y-86517595D01*
X111260000Y-86374738D01*
X111355238Y-86279500D01*
X111450476Y-86231880D01*
X111640952Y-86184261D01*
X111783809Y-86184261D01*
X111974285Y-86231880D01*
X112069523Y-86279500D01*
X112164761Y-86374738D01*
X112212380Y-86517595D01*
X112212380Y-86612833D01*
X112164761Y-86755690D01*
X112117142Y-86803309D01*
X111783809Y-86803309D01*
X111783809Y-86612833D01*
X111212380Y-87136642D02*
X111212380Y-87803309D01*
X112212380Y-87374738D01*
X111164761Y-88898547D02*
X112450476Y-88041404D01*
X111688571Y-89565214D02*
X111736190Y-89708071D01*
X111783809Y-89755690D01*
X111879047Y-89803309D01*
X112021904Y-89803309D01*
X112117142Y-89755690D01*
X112164761Y-89708071D01*
X112212380Y-89612833D01*
X112212380Y-89231880D01*
X111212380Y-89231880D01*
X111212380Y-89565214D01*
X111260000Y-89660452D01*
X111307619Y-89708071D01*
X111402857Y-89755690D01*
X111498095Y-89755690D01*
X111593333Y-89708071D01*
X111640952Y-89660452D01*
X111688571Y-89565214D01*
X111688571Y-89231880D01*
X111212380Y-90708071D02*
X111212380Y-90231880D01*
X111688571Y-90184261D01*
X111640952Y-90231880D01*
X111593333Y-90327119D01*
X111593333Y-90565214D01*
X111640952Y-90660452D01*
X111688571Y-90708071D01*
X111783809Y-90755690D01*
X112021904Y-90755690D01*
X112117142Y-90708071D01*
X112164761Y-90660452D01*
X112212380Y-90565214D01*
X112212380Y-90327119D01*
X112164761Y-90231880D01*
X112117142Y-90184261D01*
X111164761Y-91898547D02*
X112450476Y-91041404D01*
X111212380Y-92422357D02*
X111212380Y-92612833D01*
X111260000Y-92708071D01*
X111355238Y-92803309D01*
X111545714Y-92850928D01*
X111879047Y-92850928D01*
X112069523Y-92803309D01*
X112164761Y-92708071D01*
X112212380Y-92612833D01*
X112212380Y-92422357D01*
X112164761Y-92327119D01*
X112069523Y-92231880D01*
X111879047Y-92184261D01*
X111545714Y-92184261D01*
X111355238Y-92231880D01*
X111260000Y-92327119D01*
X111212380Y-92422357D01*
X112117142Y-93850928D02*
X112164761Y-93803309D01*
X112212380Y-93660452D01*
X112212380Y-93565214D01*
X112164761Y-93422357D01*
X112069523Y-93327119D01*
X111974285Y-93279500D01*
X111783809Y-93231880D01*
X111640952Y-93231880D01*
X111450476Y-93279500D01*
X111355238Y-93327119D01*
X111260000Y-93422357D01*
X111212380Y-93565214D01*
X111212380Y-93660452D01*
X111260000Y-93803309D01*
X111307619Y-93850928D01*
X111831428Y-94279500D02*
X111831428Y-95041404D01*
X112212380Y-94660452D02*
X111450476Y-94660452D01*
X109990000Y-86803309D02*
X109942380Y-86708071D01*
X109942380Y-86565214D01*
X109990000Y-86422357D01*
X110085238Y-86327119D01*
X110180476Y-86279500D01*
X110370952Y-86231880D01*
X110513809Y-86231880D01*
X110704285Y-86279500D01*
X110799523Y-86327119D01*
X110894761Y-86422357D01*
X110942380Y-86565214D01*
X110942380Y-86660452D01*
X110894761Y-86803309D01*
X110847142Y-86850928D01*
X110513809Y-86850928D01*
X110513809Y-86660452D01*
X109942380Y-87755690D02*
X109942380Y-87279500D01*
X110418571Y-87231880D01*
X110370952Y-87279500D01*
X110323333Y-87374738D01*
X110323333Y-87612833D01*
X110370952Y-87708071D01*
X110418571Y-87755690D01*
X110513809Y-87803309D01*
X110751904Y-87803309D01*
X110847142Y-87755690D01*
X110894761Y-87708071D01*
X110942380Y-87612833D01*
X110942380Y-87374738D01*
X110894761Y-87279500D01*
X110847142Y-87231880D01*
X109894761Y-88946166D02*
X111180476Y-88089023D01*
X110418571Y-89612833D02*
X110466190Y-89755690D01*
X110513809Y-89803309D01*
X110609047Y-89850928D01*
X110751904Y-89850928D01*
X110847142Y-89803309D01*
X110894761Y-89755690D01*
X110942380Y-89660452D01*
X110942380Y-89279500D01*
X109942380Y-89279500D01*
X109942380Y-89612833D01*
X109990000Y-89708071D01*
X110037619Y-89755690D01*
X110132857Y-89803309D01*
X110228095Y-89803309D01*
X110323333Y-89755690D01*
X110370952Y-89708071D01*
X110418571Y-89612833D01*
X110418571Y-89279500D01*
X109942380Y-90184261D02*
X109942380Y-90803309D01*
X110323333Y-90469976D01*
X110323333Y-90612833D01*
X110370952Y-90708071D01*
X110418571Y-90755690D01*
X110513809Y-90803309D01*
X110751904Y-90803309D01*
X110847142Y-90755690D01*
X110894761Y-90708071D01*
X110942380Y-90612833D01*
X110942380Y-90327119D01*
X110894761Y-90231880D01*
X110847142Y-90184261D01*
X109894761Y-91946166D02*
X111180476Y-91089023D01*
X109942380Y-92469976D02*
X109942380Y-92660452D01*
X109990000Y-92755690D01*
X110085238Y-92850928D01*
X110275714Y-92898547D01*
X110609047Y-92898547D01*
X110799523Y-92850928D01*
X110894761Y-92755690D01*
X110942380Y-92660452D01*
X110942380Y-92469976D01*
X110894761Y-92374738D01*
X110799523Y-92279500D01*
X110609047Y-92231880D01*
X110275714Y-92231880D01*
X110085238Y-92279500D01*
X109990000Y-92374738D01*
X109942380Y-92469976D01*
X110037619Y-93279500D02*
X109990000Y-93327119D01*
X109942380Y-93422357D01*
X109942380Y-93660452D01*
X109990000Y-93755690D01*
X110037619Y-93803309D01*
X110132857Y-93850928D01*
X110228095Y-93850928D01*
X110370952Y-93803309D01*
X110942380Y-93231880D01*
X110942380Y-93850928D01*
X110561428Y-94279500D02*
X110561428Y-95041404D01*
X110942380Y-94660452D02*
X110180476Y-94660452D01*
X108720000Y-86803309D02*
X108672380Y-86708071D01*
X108672380Y-86565214D01*
X108720000Y-86422357D01*
X108815238Y-86327119D01*
X108910476Y-86279500D01*
X109100952Y-86231880D01*
X109243809Y-86231880D01*
X109434285Y-86279500D01*
X109529523Y-86327119D01*
X109624761Y-86422357D01*
X109672380Y-86565214D01*
X109672380Y-86660452D01*
X109624761Y-86803309D01*
X109577142Y-86850928D01*
X109243809Y-86850928D01*
X109243809Y-86660452D01*
X108672380Y-87184261D02*
X108672380Y-87803309D01*
X109053333Y-87469976D01*
X109053333Y-87612833D01*
X109100952Y-87708071D01*
X109148571Y-87755690D01*
X109243809Y-87803309D01*
X109481904Y-87803309D01*
X109577142Y-87755690D01*
X109624761Y-87708071D01*
X109672380Y-87612833D01*
X109672380Y-87327119D01*
X109624761Y-87231880D01*
X109577142Y-87184261D01*
X108624761Y-88946166D02*
X109910476Y-88089023D01*
X108720000Y-89803309D02*
X108672380Y-89708071D01*
X108672380Y-89565214D01*
X108720000Y-89422357D01*
X108815238Y-89327119D01*
X108910476Y-89279500D01*
X109100952Y-89231880D01*
X109243809Y-89231880D01*
X109434285Y-89279500D01*
X109529523Y-89327119D01*
X109624761Y-89422357D01*
X109672380Y-89565214D01*
X109672380Y-89660452D01*
X109624761Y-89803309D01*
X109577142Y-89850928D01*
X109243809Y-89850928D01*
X109243809Y-89660452D01*
X108672380Y-90184261D02*
X108672380Y-90850928D01*
X109672380Y-90422357D01*
X108624761Y-91946166D02*
X109910476Y-91089023D01*
X108672380Y-92469976D02*
X108672380Y-92660452D01*
X108720000Y-92755690D01*
X108815238Y-92850928D01*
X109005714Y-92898547D01*
X109339047Y-92898547D01*
X109529523Y-92850928D01*
X109624761Y-92755690D01*
X109672380Y-92660452D01*
X109672380Y-92469976D01*
X109624761Y-92374738D01*
X109529523Y-92279500D01*
X109339047Y-92231880D01*
X109005714Y-92231880D01*
X108815238Y-92279500D01*
X108720000Y-92374738D01*
X108672380Y-92469976D01*
X109672380Y-93850928D02*
X109672380Y-93279500D01*
X109672380Y-93565214D02*
X108672380Y-93565214D01*
X108815238Y-93469976D01*
X108910476Y-93374738D01*
X108958095Y-93279500D01*
X109291428Y-94279500D02*
X109291428Y-95041404D01*
X109672380Y-94660452D02*
X108910476Y-94660452D01*
X105862380Y-86866785D02*
X105386190Y-86533452D01*
X105862380Y-86295357D02*
X104862380Y-86295357D01*
X104862380Y-86676309D01*
X104910000Y-86771547D01*
X104957619Y-86819166D01*
X105052857Y-86866785D01*
X105195714Y-86866785D01*
X105290952Y-86819166D01*
X105338571Y-86771547D01*
X105386190Y-86676309D01*
X105386190Y-86295357D01*
X104862380Y-87200119D02*
X104862380Y-87866785D01*
X105862380Y-87438214D01*
X104814761Y-88962023D02*
X106100476Y-88104880D01*
X104910000Y-89819166D02*
X104862380Y-89723928D01*
X104862380Y-89581071D01*
X104910000Y-89438214D01*
X105005238Y-89342976D01*
X105100476Y-89295357D01*
X105290952Y-89247738D01*
X105433809Y-89247738D01*
X105624285Y-89295357D01*
X105719523Y-89342976D01*
X105814761Y-89438214D01*
X105862380Y-89581071D01*
X105862380Y-89676309D01*
X105814761Y-89819166D01*
X105767142Y-89866785D01*
X105433809Y-89866785D01*
X105433809Y-89676309D01*
X104862380Y-90200119D02*
X104862380Y-90819166D01*
X105243333Y-90485833D01*
X105243333Y-90628690D01*
X105290952Y-90723928D01*
X105338571Y-90771547D01*
X105433809Y-90819166D01*
X105671904Y-90819166D01*
X105767142Y-90771547D01*
X105814761Y-90723928D01*
X105862380Y-90628690D01*
X105862380Y-90342976D01*
X105814761Y-90247738D01*
X105767142Y-90200119D01*
X104814761Y-91962023D02*
X106100476Y-91104880D01*
X105338571Y-92295357D02*
X105338571Y-92628690D01*
X105862380Y-92771547D02*
X105862380Y-92295357D01*
X104862380Y-92295357D01*
X104862380Y-92771547D01*
X104862380Y-93104880D02*
X104862380Y-93723928D01*
X105243333Y-93390595D01*
X105243333Y-93533452D01*
X105290952Y-93628690D01*
X105338571Y-93676309D01*
X105433809Y-93723928D01*
X105671904Y-93723928D01*
X105767142Y-93676309D01*
X105814761Y-93628690D01*
X105862380Y-93533452D01*
X105862380Y-93247738D01*
X105814761Y-93152500D01*
X105767142Y-93104880D01*
X105481428Y-94152500D02*
X105481428Y-94914404D01*
X105862380Y-94533452D02*
X105100476Y-94533452D01*
X107450000Y-86946166D02*
X107402380Y-86850928D01*
X107402380Y-86708071D01*
X107450000Y-86565214D01*
X107545238Y-86469976D01*
X107640476Y-86422357D01*
X107830952Y-86374738D01*
X107973809Y-86374738D01*
X108164285Y-86422357D01*
X108259523Y-86469976D01*
X108354761Y-86565214D01*
X108402380Y-86708071D01*
X108402380Y-86803309D01*
X108354761Y-86946166D01*
X108307142Y-86993785D01*
X107973809Y-86993785D01*
X107973809Y-86803309D01*
X108402380Y-87946166D02*
X108402380Y-87374738D01*
X108402380Y-87660452D02*
X107402380Y-87660452D01*
X107545238Y-87565214D01*
X107640476Y-87469976D01*
X107688095Y-87374738D01*
X107354761Y-89089023D02*
X108640476Y-88231880D01*
X107450000Y-89946166D02*
X107402380Y-89850928D01*
X107402380Y-89708071D01*
X107450000Y-89565214D01*
X107545238Y-89469976D01*
X107640476Y-89422357D01*
X107830952Y-89374738D01*
X107973809Y-89374738D01*
X108164285Y-89422357D01*
X108259523Y-89469976D01*
X108354761Y-89565214D01*
X108402380Y-89708071D01*
X108402380Y-89803309D01*
X108354761Y-89946166D01*
X108307142Y-89993785D01*
X107973809Y-89993785D01*
X107973809Y-89803309D01*
X107402380Y-90898547D02*
X107402380Y-90422357D01*
X107878571Y-90374738D01*
X107830952Y-90422357D01*
X107783333Y-90517595D01*
X107783333Y-90755690D01*
X107830952Y-90850928D01*
X107878571Y-90898547D01*
X107973809Y-90946166D01*
X108211904Y-90946166D01*
X108307142Y-90898547D01*
X108354761Y-90850928D01*
X108402380Y-90755690D01*
X108402380Y-90517595D01*
X108354761Y-90422357D01*
X108307142Y-90374738D01*
X107354761Y-92089023D02*
X108640476Y-91231880D01*
X107878571Y-92422357D02*
X107878571Y-92755690D01*
X108402380Y-92898547D02*
X108402380Y-92422357D01*
X107402380Y-92422357D01*
X107402380Y-92898547D01*
X107402380Y-93517595D02*
X107402380Y-93612833D01*
X107450000Y-93708071D01*
X107497619Y-93755690D01*
X107592857Y-93803309D01*
X107783333Y-93850928D01*
X108021428Y-93850928D01*
X108211904Y-93803309D01*
X108307142Y-93755690D01*
X108354761Y-93708071D01*
X108402380Y-93612833D01*
X108402380Y-93517595D01*
X108354761Y-93422357D01*
X108307142Y-93374738D01*
X108211904Y-93327119D01*
X108021428Y-93279500D01*
X107783333Y-93279500D01*
X107592857Y-93327119D01*
X107497619Y-93374738D01*
X107450000Y-93422357D01*
X107402380Y-93517595D01*
X108021428Y-94279500D02*
X108021428Y-95041404D01*
X108402380Y-94660452D02*
X107640476Y-94660452D01*
X104592380Y-86946166D02*
X104116190Y-86612833D01*
X104592380Y-86374738D02*
X103592380Y-86374738D01*
X103592380Y-86755690D01*
X103640000Y-86850928D01*
X103687619Y-86898547D01*
X103782857Y-86946166D01*
X103925714Y-86946166D01*
X104020952Y-86898547D01*
X104068571Y-86850928D01*
X104116190Y-86755690D01*
X104116190Y-86374738D01*
X103592380Y-87850928D02*
X103592380Y-87374738D01*
X104068571Y-87327119D01*
X104020952Y-87374738D01*
X103973333Y-87469976D01*
X103973333Y-87708071D01*
X104020952Y-87803309D01*
X104068571Y-87850928D01*
X104163809Y-87898547D01*
X104401904Y-87898547D01*
X104497142Y-87850928D01*
X104544761Y-87803309D01*
X104592380Y-87708071D01*
X104592380Y-87469976D01*
X104544761Y-87374738D01*
X104497142Y-87327119D01*
X103544761Y-89041404D02*
X104830476Y-88184261D01*
X104592380Y-89946166D02*
X104116190Y-89612833D01*
X104592380Y-89374738D02*
X103592380Y-89374738D01*
X103592380Y-89755690D01*
X103640000Y-89850928D01*
X103687619Y-89898547D01*
X103782857Y-89946166D01*
X103925714Y-89946166D01*
X104020952Y-89898547D01*
X104068571Y-89850928D01*
X104116190Y-89755690D01*
X104116190Y-89374738D01*
X103592380Y-90279500D02*
X103592380Y-90946166D01*
X104592380Y-90517595D01*
X103544761Y-92041404D02*
X104830476Y-91184261D01*
X104068571Y-92374738D02*
X104068571Y-92708071D01*
X104592380Y-92850928D02*
X104592380Y-92374738D01*
X103592380Y-92374738D01*
X103592380Y-92850928D01*
X104497142Y-93850928D02*
X104544761Y-93803309D01*
X104592380Y-93660452D01*
X104592380Y-93565214D01*
X104544761Y-93422357D01*
X104449523Y-93327119D01*
X104354285Y-93279500D01*
X104163809Y-93231880D01*
X104020952Y-93231880D01*
X103830476Y-93279500D01*
X103735238Y-93327119D01*
X103640000Y-93422357D01*
X103592380Y-93565214D01*
X103592380Y-93660452D01*
X103640000Y-93803309D01*
X103687619Y-93850928D01*
X104211428Y-94279500D02*
X104211428Y-95041404D01*
X104592380Y-94660452D02*
X103830476Y-94660452D01*
X103322380Y-86993785D02*
X102846190Y-86660452D01*
X103322380Y-86422357D02*
X102322380Y-86422357D01*
X102322380Y-86803309D01*
X102370000Y-86898547D01*
X102417619Y-86946166D01*
X102512857Y-86993785D01*
X102655714Y-86993785D01*
X102750952Y-86946166D01*
X102798571Y-86898547D01*
X102846190Y-86803309D01*
X102846190Y-86422357D01*
X102322380Y-87327119D02*
X102322380Y-87946166D01*
X102703333Y-87612833D01*
X102703333Y-87755690D01*
X102750952Y-87850928D01*
X102798571Y-87898547D01*
X102893809Y-87946166D01*
X103131904Y-87946166D01*
X103227142Y-87898547D01*
X103274761Y-87850928D01*
X103322380Y-87755690D01*
X103322380Y-87469976D01*
X103274761Y-87374738D01*
X103227142Y-87327119D01*
X102274761Y-89089023D02*
X103560476Y-88231880D01*
X103322380Y-89993785D02*
X102846190Y-89660452D01*
X103322380Y-89422357D02*
X102322380Y-89422357D01*
X102322380Y-89803309D01*
X102370000Y-89898547D01*
X102417619Y-89946166D01*
X102512857Y-89993785D01*
X102655714Y-89993785D01*
X102750952Y-89946166D01*
X102798571Y-89898547D01*
X102846190Y-89803309D01*
X102846190Y-89422357D01*
X102322380Y-90898547D02*
X102322380Y-90422357D01*
X102798571Y-90374738D01*
X102750952Y-90422357D01*
X102703333Y-90517595D01*
X102703333Y-90755690D01*
X102750952Y-90850928D01*
X102798571Y-90898547D01*
X102893809Y-90946166D01*
X103131904Y-90946166D01*
X103227142Y-90898547D01*
X103274761Y-90850928D01*
X103322380Y-90755690D01*
X103322380Y-90517595D01*
X103274761Y-90422357D01*
X103227142Y-90374738D01*
X102274761Y-92089023D02*
X103560476Y-91231880D01*
X102798571Y-92422357D02*
X102798571Y-92755690D01*
X103322380Y-92898547D02*
X103322380Y-92422357D01*
X102322380Y-92422357D01*
X102322380Y-92898547D01*
X102417619Y-93279500D02*
X102370000Y-93327119D01*
X102322380Y-93422357D01*
X102322380Y-93660452D01*
X102370000Y-93755690D01*
X102417619Y-93803309D01*
X102512857Y-93850928D01*
X102608095Y-93850928D01*
X102750952Y-93803309D01*
X103322380Y-93231880D01*
X103322380Y-93850928D01*
X102941428Y-94279500D02*
X102941428Y-95041404D01*
X103322380Y-94660452D02*
X102560476Y-94660452D01*
X102052380Y-86993785D02*
X101576190Y-86660452D01*
X102052380Y-86422357D02*
X101052380Y-86422357D01*
X101052380Y-86803309D01*
X101100000Y-86898547D01*
X101147619Y-86946166D01*
X101242857Y-86993785D01*
X101385714Y-86993785D01*
X101480952Y-86946166D01*
X101528571Y-86898547D01*
X101576190Y-86803309D01*
X101576190Y-86422357D01*
X102052380Y-87946166D02*
X102052380Y-87374738D01*
X102052380Y-87660452D02*
X101052380Y-87660452D01*
X101195238Y-87565214D01*
X101290476Y-87469976D01*
X101338095Y-87374738D01*
X101004761Y-89089023D02*
X102290476Y-88231880D01*
X102052380Y-89993785D02*
X101576190Y-89660452D01*
X102052380Y-89422357D02*
X101052380Y-89422357D01*
X101052380Y-89803309D01*
X101100000Y-89898547D01*
X101147619Y-89946166D01*
X101242857Y-89993785D01*
X101385714Y-89993785D01*
X101480952Y-89946166D01*
X101528571Y-89898547D01*
X101576190Y-89803309D01*
X101576190Y-89422357D01*
X101052380Y-90327119D02*
X101052380Y-90946166D01*
X101433333Y-90612833D01*
X101433333Y-90755690D01*
X101480952Y-90850928D01*
X101528571Y-90898547D01*
X101623809Y-90946166D01*
X101861904Y-90946166D01*
X101957142Y-90898547D01*
X102004761Y-90850928D01*
X102052380Y-90755690D01*
X102052380Y-90469976D01*
X102004761Y-90374738D01*
X101957142Y-90327119D01*
X101004761Y-92089023D02*
X102290476Y-91231880D01*
X101528571Y-92422357D02*
X101528571Y-92755690D01*
X102052380Y-92898547D02*
X102052380Y-92422357D01*
X101052380Y-92422357D01*
X101052380Y-92898547D01*
X102052380Y-93850928D02*
X102052380Y-93279500D01*
X102052380Y-93565214D02*
X101052380Y-93565214D01*
X101195238Y-93469976D01*
X101290476Y-93374738D01*
X101338095Y-93279500D01*
X101671428Y-94279500D02*
X101671428Y-95041404D01*
X102052380Y-94660452D02*
X101290476Y-94660452D01*
X99512380Y-88422357D02*
X98512380Y-88422357D01*
X98512380Y-88660452D01*
X98560000Y-88803309D01*
X98655238Y-88898547D01*
X98750476Y-88946166D01*
X98940952Y-88993785D01*
X99083809Y-88993785D01*
X99274285Y-88946166D01*
X99369523Y-88898547D01*
X99464761Y-88803309D01*
X99512380Y-88660452D01*
X99512380Y-88422357D01*
X98988571Y-89422357D02*
X98988571Y-89755690D01*
X99512380Y-89898547D02*
X99512380Y-89422357D01*
X98512380Y-89422357D01*
X98512380Y-89898547D01*
X99512380Y-90327119D02*
X98512380Y-90327119D01*
X99512380Y-90898547D01*
X98512380Y-90898547D01*
X98464761Y-92089023D02*
X99750476Y-91231880D01*
X98988571Y-92422357D02*
X98988571Y-92755690D01*
X99512380Y-92898547D02*
X99512380Y-92422357D01*
X98512380Y-92422357D01*
X98512380Y-92898547D01*
X98512380Y-93517595D02*
X98512380Y-93612833D01*
X98560000Y-93708071D01*
X98607619Y-93755690D01*
X98702857Y-93803309D01*
X98893333Y-93850928D01*
X99131428Y-93850928D01*
X99321904Y-93803309D01*
X99417142Y-93755690D01*
X99464761Y-93708071D01*
X99512380Y-93612833D01*
X99512380Y-93517595D01*
X99464761Y-93422357D01*
X99417142Y-93374738D01*
X99321904Y-93327119D01*
X99131428Y-93279500D01*
X98893333Y-93279500D01*
X98702857Y-93327119D01*
X98607619Y-93374738D01*
X98560000Y-93422357D01*
X98512380Y-93517595D01*
X99131428Y-94279500D02*
X99131428Y-95041404D01*
X99512380Y-94660452D02*
X98750476Y-94660452D01*
X98242380Y-92517595D02*
X97242380Y-92517595D01*
X97242380Y-92755690D01*
X97290000Y-92898547D01*
X97385238Y-92993785D01*
X97480476Y-93041404D01*
X97670952Y-93089023D01*
X97813809Y-93089023D01*
X98004285Y-93041404D01*
X98099523Y-92993785D01*
X98194761Y-92898547D01*
X98242380Y-92755690D01*
X98242380Y-92517595D01*
X98147142Y-94089023D02*
X98194761Y-94041404D01*
X98242380Y-93898547D01*
X98242380Y-93803309D01*
X98194761Y-93660452D01*
X98099523Y-93565214D01*
X98004285Y-93517595D01*
X97813809Y-93469976D01*
X97670952Y-93469976D01*
X97480476Y-93517595D01*
X97385238Y-93565214D01*
X97290000Y-93660452D01*
X97242380Y-93803309D01*
X97242380Y-93898547D01*
X97290000Y-94041404D01*
X97337619Y-94089023D01*
X98242380Y-94517595D02*
X97242380Y-94517595D01*
X98242380Y-95089023D02*
X97670952Y-94660452D01*
X97242380Y-95089023D02*
X97813809Y-94517595D01*
X124626666Y-96807976D02*
X124626666Y-97284166D01*
X124912380Y-96712738D02*
X123912380Y-97046071D01*
X124912380Y-97379404D01*
X123912380Y-97569880D02*
X124912380Y-97903214D01*
X123912380Y-98236547D01*
X124817142Y-99141309D02*
X124864761Y-99093690D01*
X124912380Y-98950833D01*
X124912380Y-98855595D01*
X124864761Y-98712738D01*
X124769523Y-98617500D01*
X124674285Y-98569880D01*
X124483809Y-98522261D01*
X124340952Y-98522261D01*
X124150476Y-98569880D01*
X124055238Y-98617500D01*
X123960000Y-98712738D01*
X123912380Y-98855595D01*
X123912380Y-98950833D01*
X123960000Y-99093690D01*
X124007619Y-99141309D01*
X124817142Y-100141309D02*
X124864761Y-100093690D01*
X124912380Y-99950833D01*
X124912380Y-99855595D01*
X124864761Y-99712738D01*
X124769523Y-99617500D01*
X124674285Y-99569880D01*
X124483809Y-99522261D01*
X124340952Y-99522261D01*
X124150476Y-99569880D01*
X124055238Y-99617500D01*
X123960000Y-99712738D01*
X123912380Y-99855595D01*
X123912380Y-99950833D01*
X123960000Y-100093690D01*
X124007619Y-100141309D01*
X122642380Y-96712738D02*
X123642380Y-97046071D01*
X122642380Y-97379404D01*
X123547142Y-98284166D02*
X123594761Y-98236547D01*
X123642380Y-98093690D01*
X123642380Y-97998452D01*
X123594761Y-97855595D01*
X123499523Y-97760357D01*
X123404285Y-97712738D01*
X123213809Y-97665119D01*
X123070952Y-97665119D01*
X122880476Y-97712738D01*
X122785238Y-97760357D01*
X122690000Y-97855595D01*
X122642380Y-97998452D01*
X122642380Y-98093690D01*
X122690000Y-98236547D01*
X122737619Y-98284166D01*
X122642380Y-98903214D02*
X122642380Y-99093690D01*
X122690000Y-99188928D01*
X122785238Y-99284166D01*
X122975714Y-99331785D01*
X123309047Y-99331785D01*
X123499523Y-99284166D01*
X123594761Y-99188928D01*
X123642380Y-99093690D01*
X123642380Y-98903214D01*
X123594761Y-98807976D01*
X123499523Y-98712738D01*
X123309047Y-98665119D01*
X122975714Y-98665119D01*
X122785238Y-98712738D01*
X122690000Y-98807976D01*
X122642380Y-98903214D01*
X123642380Y-99760357D02*
X122642380Y-99760357D01*
X123356666Y-100093690D01*
X122642380Y-100427023D01*
X123642380Y-100427023D01*
X122372380Y-96855595D02*
X121372380Y-96855595D01*
X121372380Y-97093690D01*
X121420000Y-97236547D01*
X121515238Y-97331785D01*
X121610476Y-97379404D01*
X121800952Y-97427023D01*
X121943809Y-97427023D01*
X122134285Y-97379404D01*
X122229523Y-97331785D01*
X122324761Y-97236547D01*
X122372380Y-97093690D01*
X122372380Y-96855595D01*
X121372380Y-97712738D02*
X122372380Y-98046071D01*
X121372380Y-98379404D01*
X122277142Y-99284166D02*
X122324761Y-99236547D01*
X122372380Y-99093690D01*
X122372380Y-98998452D01*
X122324761Y-98855595D01*
X122229523Y-98760357D01*
X122134285Y-98712738D01*
X121943809Y-98665119D01*
X121800952Y-98665119D01*
X121610476Y-98712738D01*
X121515238Y-98760357D01*
X121420000Y-98855595D01*
X121372380Y-98998452D01*
X121372380Y-99093690D01*
X121420000Y-99236547D01*
X121467619Y-99284166D01*
X122277142Y-100284166D02*
X122324761Y-100236547D01*
X122372380Y-100093690D01*
X122372380Y-99998452D01*
X122324761Y-99855595D01*
X122229523Y-99760357D01*
X122134285Y-99712738D01*
X121943809Y-99665119D01*
X121800952Y-99665119D01*
X121610476Y-99712738D01*
X121515238Y-99760357D01*
X121420000Y-99855595D01*
X121372380Y-99998452D01*
X121372380Y-100093690D01*
X121420000Y-100236547D01*
X121467619Y-100284166D01*
X123912380Y-92469976D02*
X124912380Y-92803309D01*
X123912380Y-93136642D01*
X123960000Y-93993785D02*
X123912380Y-93898547D01*
X123912380Y-93755690D01*
X123960000Y-93612833D01*
X124055238Y-93517595D01*
X124150476Y-93469976D01*
X124340952Y-93422357D01*
X124483809Y-93422357D01*
X124674285Y-93469976D01*
X124769523Y-93517595D01*
X124864761Y-93612833D01*
X124912380Y-93755690D01*
X124912380Y-93850928D01*
X124864761Y-93993785D01*
X124817142Y-94041404D01*
X124483809Y-94041404D01*
X124483809Y-93850928D01*
X124912380Y-94469976D02*
X123912380Y-94469976D01*
X124388571Y-94469976D02*
X124388571Y-95041404D01*
X124912380Y-95041404D02*
X123912380Y-95041404D01*
X122642380Y-92708071D02*
X123642380Y-93041404D01*
X122642380Y-93374738D01*
X122690000Y-94231880D02*
X122642380Y-94136642D01*
X122642380Y-93993785D01*
X122690000Y-93850928D01*
X122785238Y-93755690D01*
X122880476Y-93708071D01*
X123070952Y-93660452D01*
X123213809Y-93660452D01*
X123404285Y-93708071D01*
X123499523Y-93755690D01*
X123594761Y-93850928D01*
X123642380Y-93993785D01*
X123642380Y-94089023D01*
X123594761Y-94231880D01*
X123547142Y-94279500D01*
X123213809Y-94279500D01*
X123213809Y-94089023D01*
X123642380Y-95184261D02*
X123642380Y-94708071D01*
X122642380Y-94708071D01*
X121848571Y-90660452D02*
X121896190Y-90803309D01*
X121943809Y-90850928D01*
X122039047Y-90898547D01*
X122181904Y-90898547D01*
X122277142Y-90850928D01*
X122324761Y-90803309D01*
X122372380Y-90708071D01*
X122372380Y-90327119D01*
X121372380Y-90327119D01*
X121372380Y-90660452D01*
X121420000Y-90755690D01*
X121467619Y-90803309D01*
X121562857Y-90850928D01*
X121658095Y-90850928D01*
X121753333Y-90803309D01*
X121800952Y-90755690D01*
X121848571Y-90660452D01*
X121848571Y-90327119D01*
X122372380Y-91803309D02*
X122372380Y-91327119D01*
X121372380Y-91327119D01*
X122467619Y-91898547D02*
X122467619Y-92660452D01*
X122277142Y-93469976D02*
X122324761Y-93422357D01*
X122372380Y-93279500D01*
X122372380Y-93184261D01*
X122324761Y-93041404D01*
X122229523Y-92946166D01*
X122134285Y-92898547D01*
X121943809Y-92850928D01*
X121800952Y-92850928D01*
X121610476Y-92898547D01*
X121515238Y-92946166D01*
X121420000Y-93041404D01*
X121372380Y-93184261D01*
X121372380Y-93279500D01*
X121420000Y-93422357D01*
X121467619Y-93469976D01*
X122086666Y-93850928D02*
X122086666Y-94327119D01*
X122372380Y-93755690D02*
X121372380Y-94089023D01*
X122372380Y-94422357D01*
X121372380Y-94612833D02*
X121372380Y-95184261D01*
X122372380Y-94898547D02*
X121372380Y-94898547D01*
X120578571Y-90327119D02*
X120626190Y-90469976D01*
X120673809Y-90517595D01*
X120769047Y-90565214D01*
X120911904Y-90565214D01*
X121007142Y-90517595D01*
X121054761Y-90469976D01*
X121102380Y-90374738D01*
X121102380Y-89993785D01*
X120102380Y-89993785D01*
X120102380Y-90327119D01*
X120150000Y-90422357D01*
X120197619Y-90469976D01*
X120292857Y-90517595D01*
X120388095Y-90517595D01*
X120483333Y-90469976D01*
X120530952Y-90422357D01*
X120578571Y-90327119D01*
X120578571Y-89993785D01*
X121102380Y-91469976D02*
X121102380Y-90993785D01*
X120102380Y-90993785D01*
X121197619Y-91565214D02*
X121197619Y-92327119D01*
X120816666Y-92517595D02*
X120816666Y-92993785D01*
X121102380Y-92422357D02*
X120102380Y-92755690D01*
X121102380Y-93089023D01*
X121102380Y-93422357D02*
X120102380Y-93422357D01*
X121102380Y-93993785D01*
X120102380Y-93993785D01*
X120102380Y-94660452D02*
X120102380Y-94850928D01*
X120150000Y-94946166D01*
X120245238Y-95041404D01*
X120435714Y-95089023D01*
X120769047Y-95089023D01*
X120959523Y-95041404D01*
X121054761Y-94946166D01*
X121102380Y-94850928D01*
X121102380Y-94660452D01*
X121054761Y-94565214D01*
X120959523Y-94469976D01*
X120769047Y-94422357D01*
X120435714Y-94422357D01*
X120245238Y-94469976D01*
X120150000Y-94565214D01*
X120102380Y-94660452D01*
X94702380Y-91898547D02*
X95702380Y-92231880D01*
X94702380Y-92565214D01*
X95702380Y-92898547D02*
X94702380Y-92898547D01*
X95416666Y-93231880D01*
X94702380Y-93565214D01*
X95702380Y-93565214D01*
X95702380Y-94041404D02*
X94702380Y-94041404D01*
X95702380Y-95089023D02*
X95226190Y-94755690D01*
X95702380Y-94517595D02*
X94702380Y-94517595D01*
X94702380Y-94898547D01*
X94750000Y-94993785D01*
X94797619Y-95041404D01*
X94892857Y-95089023D01*
X95035714Y-95089023D01*
X95130952Y-95041404D01*
X95178571Y-94993785D01*
X95226190Y-94898547D01*
X95226190Y-94517595D01*
X93908571Y-89993785D02*
X93908571Y-90327119D01*
X94432380Y-90469976D02*
X94432380Y-89993785D01*
X93432380Y-89993785D01*
X93432380Y-90469976D01*
X94432380Y-90898547D02*
X93432380Y-90898547D01*
X94432380Y-91469976D01*
X93432380Y-91469976D01*
X94527619Y-91708071D02*
X94527619Y-92469976D01*
X94432380Y-93184261D02*
X94432380Y-92708071D01*
X93432380Y-92708071D01*
X94337142Y-94089023D02*
X94384761Y-94041404D01*
X94432380Y-93898547D01*
X94432380Y-93803309D01*
X94384761Y-93660452D01*
X94289523Y-93565214D01*
X94194285Y-93517595D01*
X94003809Y-93469976D01*
X93860952Y-93469976D01*
X93670476Y-93517595D01*
X93575238Y-93565214D01*
X93480000Y-93660452D01*
X93432380Y-93803309D01*
X93432380Y-93898547D01*
X93480000Y-94041404D01*
X93527619Y-94089023D01*
X94432380Y-94517595D02*
X93432380Y-94517595D01*
X93432380Y-94755690D01*
X93480000Y-94898547D01*
X93575238Y-94993785D01*
X93670476Y-95041404D01*
X93860952Y-95089023D01*
X94003809Y-95089023D01*
X94194285Y-95041404D01*
X94289523Y-94993785D01*
X94384761Y-94898547D01*
X94432380Y-94755690D01*
X94432380Y-94517595D01*
X118038571Y-97188928D02*
X118086190Y-97331785D01*
X118133809Y-97379404D01*
X118229047Y-97427023D01*
X118371904Y-97427023D01*
X118467142Y-97379404D01*
X118514761Y-97331785D01*
X118562380Y-97236547D01*
X118562380Y-96855595D01*
X117562380Y-96855595D01*
X117562380Y-97188928D01*
X117610000Y-97284166D01*
X117657619Y-97331785D01*
X117752857Y-97379404D01*
X117848095Y-97379404D01*
X117943333Y-97331785D01*
X117990952Y-97284166D01*
X118038571Y-97188928D01*
X118038571Y-96855595D01*
X117562380Y-98284166D02*
X117562380Y-98093690D01*
X117610000Y-97998452D01*
X117657619Y-97950833D01*
X117800476Y-97855595D01*
X117990952Y-97807976D01*
X118371904Y-97807976D01*
X118467142Y-97855595D01*
X118514761Y-97903214D01*
X118562380Y-97998452D01*
X118562380Y-98188928D01*
X118514761Y-98284166D01*
X118467142Y-98331785D01*
X118371904Y-98379404D01*
X118133809Y-98379404D01*
X118038571Y-98331785D01*
X117990952Y-98284166D01*
X117943333Y-98188928D01*
X117943333Y-97998452D01*
X117990952Y-97903214D01*
X118038571Y-97855595D01*
X118133809Y-97807976D01*
X116768571Y-97188928D02*
X116816190Y-97331785D01*
X116863809Y-97379404D01*
X116959047Y-97427023D01*
X117101904Y-97427023D01*
X117197142Y-97379404D01*
X117244761Y-97331785D01*
X117292380Y-97236547D01*
X117292380Y-96855595D01*
X116292380Y-96855595D01*
X116292380Y-97188928D01*
X116340000Y-97284166D01*
X116387619Y-97331785D01*
X116482857Y-97379404D01*
X116578095Y-97379404D01*
X116673333Y-97331785D01*
X116720952Y-97284166D01*
X116768571Y-97188928D01*
X116768571Y-96855595D01*
X116625714Y-98284166D02*
X117292380Y-98284166D01*
X116244761Y-98046071D02*
X116959047Y-97807976D01*
X116959047Y-98427023D01*
X115498571Y-97188928D02*
X115546190Y-97331785D01*
X115593809Y-97379404D01*
X115689047Y-97427023D01*
X115831904Y-97427023D01*
X115927142Y-97379404D01*
X115974761Y-97331785D01*
X116022380Y-97236547D01*
X116022380Y-96855595D01*
X115022380Y-96855595D01*
X115022380Y-97188928D01*
X115070000Y-97284166D01*
X115117619Y-97331785D01*
X115212857Y-97379404D01*
X115308095Y-97379404D01*
X115403333Y-97331785D01*
X115450952Y-97284166D01*
X115498571Y-97188928D01*
X115498571Y-96855595D01*
X115117619Y-97807976D02*
X115070000Y-97855595D01*
X115022380Y-97950833D01*
X115022380Y-98188928D01*
X115070000Y-98284166D01*
X115117619Y-98331785D01*
X115212857Y-98379404D01*
X115308095Y-98379404D01*
X115450952Y-98331785D01*
X116022380Y-97760357D01*
X116022380Y-98379404D01*
X113752380Y-97046071D02*
X113752380Y-97236547D01*
X113800000Y-97331785D01*
X113895238Y-97427023D01*
X114085714Y-97474642D01*
X114419047Y-97474642D01*
X114609523Y-97427023D01*
X114704761Y-97331785D01*
X114752380Y-97236547D01*
X114752380Y-97046071D01*
X114704761Y-96950833D01*
X114609523Y-96855595D01*
X114419047Y-96807976D01*
X114085714Y-96807976D01*
X113895238Y-96855595D01*
X113800000Y-96950833D01*
X113752380Y-97046071D01*
X113752380Y-97807976D02*
X113752380Y-98427023D01*
X114133333Y-98093690D01*
X114133333Y-98236547D01*
X114180952Y-98331785D01*
X114228571Y-98379404D01*
X114323809Y-98427023D01*
X114561904Y-98427023D01*
X114657142Y-98379404D01*
X114704761Y-98331785D01*
X114752380Y-98236547D01*
X114752380Y-97950833D01*
X114704761Y-97855595D01*
X114657142Y-97807976D01*
X114371428Y-98855595D02*
X114371428Y-99617500D01*
X113704761Y-100807976D02*
X114990476Y-99950833D01*
X114228571Y-101474642D02*
X114276190Y-101617500D01*
X114323809Y-101665119D01*
X114419047Y-101712738D01*
X114561904Y-101712738D01*
X114657142Y-101665119D01*
X114704761Y-101617500D01*
X114752380Y-101522261D01*
X114752380Y-101141309D01*
X113752380Y-101141309D01*
X113752380Y-101474642D01*
X113800000Y-101569880D01*
X113847619Y-101617500D01*
X113942857Y-101665119D01*
X114038095Y-101665119D01*
X114133333Y-101617500D01*
X114180952Y-101569880D01*
X114228571Y-101474642D01*
X114228571Y-101141309D01*
X113752380Y-102569880D02*
X113752380Y-102379404D01*
X113800000Y-102284166D01*
X113847619Y-102236547D01*
X113990476Y-102141309D01*
X114180952Y-102093690D01*
X114561904Y-102093690D01*
X114657142Y-102141309D01*
X114704761Y-102188928D01*
X114752380Y-102284166D01*
X114752380Y-102474642D01*
X114704761Y-102569880D01*
X114657142Y-102617500D01*
X114561904Y-102665119D01*
X114323809Y-102665119D01*
X114228571Y-102617500D01*
X114180952Y-102569880D01*
X114133333Y-102474642D01*
X114133333Y-102284166D01*
X114180952Y-102188928D01*
X114228571Y-102141309D01*
X114323809Y-102093690D01*
X113704761Y-103807976D02*
X114990476Y-102950833D01*
X114228571Y-104474642D02*
X114276190Y-104617500D01*
X114323809Y-104665119D01*
X114419047Y-104712738D01*
X114561904Y-104712738D01*
X114657142Y-104665119D01*
X114704761Y-104617500D01*
X114752380Y-104522261D01*
X114752380Y-104141309D01*
X113752380Y-104141309D01*
X113752380Y-104474642D01*
X113800000Y-104569880D01*
X113847619Y-104617500D01*
X113942857Y-104665119D01*
X114038095Y-104665119D01*
X114133333Y-104617500D01*
X114180952Y-104569880D01*
X114228571Y-104474642D01*
X114228571Y-104141309D01*
X113752380Y-105331785D02*
X113752380Y-105427023D01*
X113800000Y-105522261D01*
X113847619Y-105569880D01*
X113942857Y-105617500D01*
X114133333Y-105665119D01*
X114371428Y-105665119D01*
X114561904Y-105617500D01*
X114657142Y-105569880D01*
X114704761Y-105522261D01*
X114752380Y-105427023D01*
X114752380Y-105331785D01*
X114704761Y-105236547D01*
X114657142Y-105188928D01*
X114561904Y-105141309D01*
X114371428Y-105093690D01*
X114133333Y-105093690D01*
X113942857Y-105141309D01*
X113847619Y-105188928D01*
X113800000Y-105236547D01*
X113752380Y-105331785D01*
X111212380Y-97046071D02*
X111212380Y-97236547D01*
X111260000Y-97331785D01*
X111355238Y-97427023D01*
X111545714Y-97474642D01*
X111879047Y-97474642D01*
X112069523Y-97427023D01*
X112164761Y-97331785D01*
X112212380Y-97236547D01*
X112212380Y-97046071D01*
X112164761Y-96950833D01*
X112069523Y-96855595D01*
X111879047Y-96807976D01*
X111545714Y-96807976D01*
X111355238Y-96855595D01*
X111260000Y-96950833D01*
X111212380Y-97046071D01*
X112117142Y-98474642D02*
X112164761Y-98427023D01*
X112212380Y-98284166D01*
X112212380Y-98188928D01*
X112164761Y-98046071D01*
X112069523Y-97950833D01*
X111974285Y-97903214D01*
X111783809Y-97855595D01*
X111640952Y-97855595D01*
X111450476Y-97903214D01*
X111355238Y-97950833D01*
X111260000Y-98046071D01*
X111212380Y-98188928D01*
X111212380Y-98284166D01*
X111260000Y-98427023D01*
X111307619Y-98474642D01*
X111831428Y-98903214D02*
X111831428Y-99665119D01*
X111164761Y-100855595D02*
X112450476Y-99998452D01*
X111688571Y-101522261D02*
X111736190Y-101665119D01*
X111783809Y-101712738D01*
X111879047Y-101760357D01*
X112021904Y-101760357D01*
X112117142Y-101712738D01*
X112164761Y-101665119D01*
X112212380Y-101569880D01*
X112212380Y-101188928D01*
X111212380Y-101188928D01*
X111212380Y-101522261D01*
X111260000Y-101617500D01*
X111307619Y-101665119D01*
X111402857Y-101712738D01*
X111498095Y-101712738D01*
X111593333Y-101665119D01*
X111640952Y-101617500D01*
X111688571Y-101522261D01*
X111688571Y-101188928D01*
X111545714Y-102617500D02*
X112212380Y-102617500D01*
X111164761Y-102379404D02*
X111879047Y-102141309D01*
X111879047Y-102760357D01*
X111164761Y-103855595D02*
X112450476Y-102998452D01*
X111260000Y-104712738D02*
X111212380Y-104617500D01*
X111212380Y-104474642D01*
X111260000Y-104331785D01*
X111355238Y-104236547D01*
X111450476Y-104188928D01*
X111640952Y-104141309D01*
X111783809Y-104141309D01*
X111974285Y-104188928D01*
X112069523Y-104236547D01*
X112164761Y-104331785D01*
X112212380Y-104474642D01*
X112212380Y-104569880D01*
X112164761Y-104712738D01*
X112117142Y-104760357D01*
X111783809Y-104760357D01*
X111783809Y-104569880D01*
X111212380Y-105617500D02*
X111212380Y-105427023D01*
X111260000Y-105331785D01*
X111307619Y-105284166D01*
X111450476Y-105188928D01*
X111640952Y-105141309D01*
X112021904Y-105141309D01*
X112117142Y-105188928D01*
X112164761Y-105236547D01*
X112212380Y-105331785D01*
X112212380Y-105522261D01*
X112164761Y-105617500D01*
X112117142Y-105665119D01*
X112021904Y-105712738D01*
X111783809Y-105712738D01*
X111688571Y-105665119D01*
X111640952Y-105617500D01*
X111593333Y-105522261D01*
X111593333Y-105331785D01*
X111640952Y-105236547D01*
X111688571Y-105188928D01*
X111783809Y-105141309D01*
X109942380Y-97046071D02*
X109942380Y-97236547D01*
X109990000Y-97331785D01*
X110085238Y-97427023D01*
X110275714Y-97474642D01*
X110609047Y-97474642D01*
X110799523Y-97427023D01*
X110894761Y-97331785D01*
X110942380Y-97236547D01*
X110942380Y-97046071D01*
X110894761Y-96950833D01*
X110799523Y-96855595D01*
X110609047Y-96807976D01*
X110275714Y-96807976D01*
X110085238Y-96855595D01*
X109990000Y-96950833D01*
X109942380Y-97046071D01*
X110037619Y-97855595D02*
X109990000Y-97903214D01*
X109942380Y-97998452D01*
X109942380Y-98236547D01*
X109990000Y-98331785D01*
X110037619Y-98379404D01*
X110132857Y-98427023D01*
X110228095Y-98427023D01*
X110370952Y-98379404D01*
X110942380Y-97807976D01*
X110942380Y-98427023D01*
X110561428Y-98855595D02*
X110561428Y-99617500D01*
X109894761Y-100807976D02*
X111180476Y-99950833D01*
X110418571Y-101474642D02*
X110466190Y-101617500D01*
X110513809Y-101665119D01*
X110609047Y-101712738D01*
X110751904Y-101712738D01*
X110847142Y-101665119D01*
X110894761Y-101617500D01*
X110942380Y-101522261D01*
X110942380Y-101141309D01*
X109942380Y-101141309D01*
X109942380Y-101474642D01*
X109990000Y-101569880D01*
X110037619Y-101617500D01*
X110132857Y-101665119D01*
X110228095Y-101665119D01*
X110323333Y-101617500D01*
X110370952Y-101569880D01*
X110418571Y-101474642D01*
X110418571Y-101141309D01*
X110037619Y-102093690D02*
X109990000Y-102141309D01*
X109942380Y-102236547D01*
X109942380Y-102474642D01*
X109990000Y-102569880D01*
X110037619Y-102617500D01*
X110132857Y-102665119D01*
X110228095Y-102665119D01*
X110370952Y-102617500D01*
X110942380Y-102046071D01*
X110942380Y-102665119D01*
X109894761Y-103807976D02*
X111180476Y-102950833D01*
X109990000Y-104665119D02*
X109942380Y-104569880D01*
X109942380Y-104427023D01*
X109990000Y-104284166D01*
X110085238Y-104188928D01*
X110180476Y-104141309D01*
X110370952Y-104093690D01*
X110513809Y-104093690D01*
X110704285Y-104141309D01*
X110799523Y-104188928D01*
X110894761Y-104284166D01*
X110942380Y-104427023D01*
X110942380Y-104522261D01*
X110894761Y-104665119D01*
X110847142Y-104712738D01*
X110513809Y-104712738D01*
X110513809Y-104522261D01*
X110275714Y-105569880D02*
X110942380Y-105569880D01*
X109894761Y-105331785D02*
X110609047Y-105093690D01*
X110609047Y-105712738D01*
X108672380Y-97046071D02*
X108672380Y-97236547D01*
X108720000Y-97331785D01*
X108815238Y-97427023D01*
X109005714Y-97474642D01*
X109339047Y-97474642D01*
X109529523Y-97427023D01*
X109624761Y-97331785D01*
X109672380Y-97236547D01*
X109672380Y-97046071D01*
X109624761Y-96950833D01*
X109529523Y-96855595D01*
X109339047Y-96807976D01*
X109005714Y-96807976D01*
X108815238Y-96855595D01*
X108720000Y-96950833D01*
X108672380Y-97046071D01*
X109672380Y-98427023D02*
X109672380Y-97855595D01*
X109672380Y-98141309D02*
X108672380Y-98141309D01*
X108815238Y-98046071D01*
X108910476Y-97950833D01*
X108958095Y-97855595D01*
X109291428Y-98855595D02*
X109291428Y-99617500D01*
X108624761Y-100807976D02*
X109910476Y-99950833D01*
X108720000Y-101665119D02*
X108672380Y-101569880D01*
X108672380Y-101427023D01*
X108720000Y-101284166D01*
X108815238Y-101188928D01*
X108910476Y-101141309D01*
X109100952Y-101093690D01*
X109243809Y-101093690D01*
X109434285Y-101141309D01*
X109529523Y-101188928D01*
X109624761Y-101284166D01*
X109672380Y-101427023D01*
X109672380Y-101522261D01*
X109624761Y-101665119D01*
X109577142Y-101712738D01*
X109243809Y-101712738D01*
X109243809Y-101522261D01*
X108672380Y-102569880D02*
X108672380Y-102379404D01*
X108720000Y-102284166D01*
X108767619Y-102236547D01*
X108910476Y-102141309D01*
X109100952Y-102093690D01*
X109481904Y-102093690D01*
X109577142Y-102141309D01*
X109624761Y-102188928D01*
X109672380Y-102284166D01*
X109672380Y-102474642D01*
X109624761Y-102569880D01*
X109577142Y-102617500D01*
X109481904Y-102665119D01*
X109243809Y-102665119D01*
X109148571Y-102617500D01*
X109100952Y-102569880D01*
X109053333Y-102474642D01*
X109053333Y-102284166D01*
X109100952Y-102188928D01*
X109148571Y-102141309D01*
X109243809Y-102093690D01*
X108624761Y-103807976D02*
X109910476Y-102950833D01*
X108720000Y-104665119D02*
X108672380Y-104569880D01*
X108672380Y-104427023D01*
X108720000Y-104284166D01*
X108815238Y-104188928D01*
X108910476Y-104141309D01*
X109100952Y-104093690D01*
X109243809Y-104093690D01*
X109434285Y-104141309D01*
X109529523Y-104188928D01*
X109624761Y-104284166D01*
X109672380Y-104427023D01*
X109672380Y-104522261D01*
X109624761Y-104665119D01*
X109577142Y-104712738D01*
X109243809Y-104712738D01*
X109243809Y-104522261D01*
X108767619Y-105093690D02*
X108720000Y-105141309D01*
X108672380Y-105236547D01*
X108672380Y-105474642D01*
X108720000Y-105569880D01*
X108767619Y-105617500D01*
X108862857Y-105665119D01*
X108958095Y-105665119D01*
X109100952Y-105617500D01*
X109672380Y-105046071D01*
X109672380Y-105665119D01*
X107402380Y-97046071D02*
X107402380Y-97236547D01*
X107450000Y-97331785D01*
X107545238Y-97427023D01*
X107735714Y-97474642D01*
X108069047Y-97474642D01*
X108259523Y-97427023D01*
X108354761Y-97331785D01*
X108402380Y-97236547D01*
X108402380Y-97046071D01*
X108354761Y-96950833D01*
X108259523Y-96855595D01*
X108069047Y-96807976D01*
X107735714Y-96807976D01*
X107545238Y-96855595D01*
X107450000Y-96950833D01*
X107402380Y-97046071D01*
X107402380Y-98093690D02*
X107402380Y-98188928D01*
X107450000Y-98284166D01*
X107497619Y-98331785D01*
X107592857Y-98379404D01*
X107783333Y-98427023D01*
X108021428Y-98427023D01*
X108211904Y-98379404D01*
X108307142Y-98331785D01*
X108354761Y-98284166D01*
X108402380Y-98188928D01*
X108402380Y-98093690D01*
X108354761Y-97998452D01*
X108307142Y-97950833D01*
X108211904Y-97903214D01*
X108021428Y-97855595D01*
X107783333Y-97855595D01*
X107592857Y-97903214D01*
X107497619Y-97950833D01*
X107450000Y-97998452D01*
X107402380Y-98093690D01*
X108021428Y-98855595D02*
X108021428Y-99617500D01*
X107354761Y-100807976D02*
X108640476Y-99950833D01*
X107450000Y-101665119D02*
X107402380Y-101569880D01*
X107402380Y-101427023D01*
X107450000Y-101284166D01*
X107545238Y-101188928D01*
X107640476Y-101141309D01*
X107830952Y-101093690D01*
X107973809Y-101093690D01*
X108164285Y-101141309D01*
X108259523Y-101188928D01*
X108354761Y-101284166D01*
X108402380Y-101427023D01*
X108402380Y-101522261D01*
X108354761Y-101665119D01*
X108307142Y-101712738D01*
X107973809Y-101712738D01*
X107973809Y-101522261D01*
X107735714Y-102569880D02*
X108402380Y-102569880D01*
X107354761Y-102331785D02*
X108069047Y-102093690D01*
X108069047Y-102712738D01*
X107354761Y-103807976D02*
X108640476Y-102950833D01*
X107450000Y-104665119D02*
X107402380Y-104569880D01*
X107402380Y-104427023D01*
X107450000Y-104284166D01*
X107545238Y-104188928D01*
X107640476Y-104141309D01*
X107830952Y-104093690D01*
X107973809Y-104093690D01*
X108164285Y-104141309D01*
X108259523Y-104188928D01*
X108354761Y-104284166D01*
X108402380Y-104427023D01*
X108402380Y-104522261D01*
X108354761Y-104665119D01*
X108307142Y-104712738D01*
X107973809Y-104712738D01*
X107973809Y-104522261D01*
X107402380Y-105331785D02*
X107402380Y-105427023D01*
X107450000Y-105522261D01*
X107497619Y-105569880D01*
X107592857Y-105617500D01*
X107783333Y-105665119D01*
X108021428Y-105665119D01*
X108211904Y-105617500D01*
X108307142Y-105569880D01*
X108354761Y-105522261D01*
X108402380Y-105427023D01*
X108402380Y-105331785D01*
X108354761Y-105236547D01*
X108307142Y-105188928D01*
X108211904Y-105141309D01*
X108021428Y-105093690D01*
X107783333Y-105093690D01*
X107592857Y-105141309D01*
X107497619Y-105188928D01*
X107450000Y-105236547D01*
X107402380Y-105331785D01*
X105338571Y-96855595D02*
X105338571Y-97188928D01*
X105862380Y-97331785D02*
X105862380Y-96855595D01*
X104862380Y-96855595D01*
X104862380Y-97331785D01*
X104862380Y-97665119D02*
X104862380Y-98284166D01*
X105243333Y-97950833D01*
X105243333Y-98093690D01*
X105290952Y-98188928D01*
X105338571Y-98236547D01*
X105433809Y-98284166D01*
X105671904Y-98284166D01*
X105767142Y-98236547D01*
X105814761Y-98188928D01*
X105862380Y-98093690D01*
X105862380Y-97807976D01*
X105814761Y-97712738D01*
X105767142Y-97665119D01*
X105481428Y-98712738D02*
X105481428Y-99474642D01*
X104814761Y-100665119D02*
X106100476Y-99807976D01*
X104910000Y-101522261D02*
X104862380Y-101427023D01*
X104862380Y-101284166D01*
X104910000Y-101141309D01*
X105005238Y-101046071D01*
X105100476Y-100998452D01*
X105290952Y-100950833D01*
X105433809Y-100950833D01*
X105624285Y-100998452D01*
X105719523Y-101046071D01*
X105814761Y-101141309D01*
X105862380Y-101284166D01*
X105862380Y-101379404D01*
X105814761Y-101522261D01*
X105767142Y-101569880D01*
X105433809Y-101569880D01*
X105433809Y-101379404D01*
X104957619Y-101950833D02*
X104910000Y-101998452D01*
X104862380Y-102093690D01*
X104862380Y-102331785D01*
X104910000Y-102427023D01*
X104957619Y-102474642D01*
X105052857Y-102522261D01*
X105148095Y-102522261D01*
X105290952Y-102474642D01*
X105862380Y-101903214D01*
X105862380Y-102522261D01*
X104814761Y-103665119D02*
X106100476Y-102807976D01*
X105862380Y-104569880D02*
X105386190Y-104236547D01*
X105862380Y-103998452D02*
X104862380Y-103998452D01*
X104862380Y-104379404D01*
X104910000Y-104474642D01*
X104957619Y-104522261D01*
X105052857Y-104569880D01*
X105195714Y-104569880D01*
X105290952Y-104522261D01*
X105338571Y-104474642D01*
X105386190Y-104379404D01*
X105386190Y-103998452D01*
X104862380Y-105427023D02*
X104862380Y-105236547D01*
X104910000Y-105141309D01*
X104957619Y-105093690D01*
X105100476Y-104998452D01*
X105290952Y-104950833D01*
X105671904Y-104950833D01*
X105767142Y-104998452D01*
X105814761Y-105046071D01*
X105862380Y-105141309D01*
X105862380Y-105331785D01*
X105814761Y-105427023D01*
X105767142Y-105474642D01*
X105671904Y-105522261D01*
X105433809Y-105522261D01*
X105338571Y-105474642D01*
X105290952Y-105427023D01*
X105243333Y-105331785D01*
X105243333Y-105141309D01*
X105290952Y-105046071D01*
X105338571Y-104998452D01*
X105433809Y-104950833D01*
X104068571Y-96855595D02*
X104068571Y-97188928D01*
X104592380Y-97331785D02*
X104592380Y-96855595D01*
X103592380Y-96855595D01*
X103592380Y-97331785D01*
X104497142Y-98331785D02*
X104544761Y-98284166D01*
X104592380Y-98141309D01*
X104592380Y-98046071D01*
X104544761Y-97903214D01*
X104449523Y-97807976D01*
X104354285Y-97760357D01*
X104163809Y-97712738D01*
X104020952Y-97712738D01*
X103830476Y-97760357D01*
X103735238Y-97807976D01*
X103640000Y-97903214D01*
X103592380Y-98046071D01*
X103592380Y-98141309D01*
X103640000Y-98284166D01*
X103687619Y-98331785D01*
X104211428Y-98760357D02*
X104211428Y-99522261D01*
X103544761Y-100712738D02*
X104830476Y-99855595D01*
X104592380Y-101617500D02*
X104116190Y-101284166D01*
X104592380Y-101046071D02*
X103592380Y-101046071D01*
X103592380Y-101427023D01*
X103640000Y-101522261D01*
X103687619Y-101569880D01*
X103782857Y-101617500D01*
X103925714Y-101617500D01*
X104020952Y-101569880D01*
X104068571Y-101522261D01*
X104116190Y-101427023D01*
X104116190Y-101046071D01*
X103592380Y-102474642D02*
X103592380Y-102284166D01*
X103640000Y-102188928D01*
X103687619Y-102141309D01*
X103830476Y-102046071D01*
X104020952Y-101998452D01*
X104401904Y-101998452D01*
X104497142Y-102046071D01*
X104544761Y-102093690D01*
X104592380Y-102188928D01*
X104592380Y-102379404D01*
X104544761Y-102474642D01*
X104497142Y-102522261D01*
X104401904Y-102569880D01*
X104163809Y-102569880D01*
X104068571Y-102522261D01*
X104020952Y-102474642D01*
X103973333Y-102379404D01*
X103973333Y-102188928D01*
X104020952Y-102093690D01*
X104068571Y-102046071D01*
X104163809Y-101998452D01*
X103544761Y-103712738D02*
X104830476Y-102855595D01*
X104592380Y-104617499D02*
X104116190Y-104284166D01*
X104592380Y-104046071D02*
X103592380Y-104046071D01*
X103592380Y-104427023D01*
X103640000Y-104522261D01*
X103687619Y-104569880D01*
X103782857Y-104617499D01*
X103925714Y-104617499D01*
X104020952Y-104569880D01*
X104068571Y-104522261D01*
X104116190Y-104427023D01*
X104116190Y-104046071D01*
X103925714Y-105474642D02*
X104592380Y-105474642D01*
X103544761Y-105236547D02*
X104259047Y-104998452D01*
X104259047Y-105617499D01*
X102798571Y-96855595D02*
X102798571Y-97188928D01*
X103322380Y-97331785D02*
X103322380Y-96855595D01*
X102322380Y-96855595D01*
X102322380Y-97331785D01*
X102417619Y-97712738D02*
X102370000Y-97760357D01*
X102322380Y-97855595D01*
X102322380Y-98093690D01*
X102370000Y-98188928D01*
X102417619Y-98236547D01*
X102512857Y-98284166D01*
X102608095Y-98284166D01*
X102750952Y-98236547D01*
X103322380Y-97665119D01*
X103322380Y-98284166D01*
X102941428Y-98712738D02*
X102941428Y-99474642D01*
X102274761Y-100665119D02*
X103560476Y-99807976D01*
X103322380Y-101569880D02*
X102846190Y-101236547D01*
X103322380Y-100998452D02*
X102322380Y-100998452D01*
X102322380Y-101379404D01*
X102370000Y-101474642D01*
X102417619Y-101522261D01*
X102512857Y-101569880D01*
X102655714Y-101569880D01*
X102750952Y-101522261D01*
X102798571Y-101474642D01*
X102846190Y-101379404D01*
X102846190Y-100998452D01*
X102655714Y-102427023D02*
X103322380Y-102427023D01*
X102274761Y-102188928D02*
X102989047Y-101950833D01*
X102989047Y-102569880D01*
X102274761Y-103665119D02*
X103560476Y-102807976D01*
X103322380Y-104569880D02*
X102846190Y-104236547D01*
X103322380Y-103998452D02*
X102322380Y-103998452D01*
X102322380Y-104379404D01*
X102370000Y-104474642D01*
X102417619Y-104522261D01*
X102512857Y-104569880D01*
X102655714Y-104569880D01*
X102750952Y-104522261D01*
X102798571Y-104474642D01*
X102846190Y-104379404D01*
X102846190Y-103998452D01*
X102417619Y-104950833D02*
X102370000Y-104998452D01*
X102322380Y-105093690D01*
X102322380Y-105331785D01*
X102370000Y-105427023D01*
X102417619Y-105474642D01*
X102512857Y-105522261D01*
X102608095Y-105522261D01*
X102750952Y-105474642D01*
X103322380Y-104903214D01*
X103322380Y-105522261D01*
X101528571Y-96855595D02*
X101528571Y-97188928D01*
X102052380Y-97331785D02*
X102052380Y-96855595D01*
X101052380Y-96855595D01*
X101052380Y-97331785D01*
X102052380Y-98284166D02*
X102052380Y-97712738D01*
X102052380Y-97998452D02*
X101052380Y-97998452D01*
X101195238Y-97903214D01*
X101290476Y-97807976D01*
X101338095Y-97712738D01*
X101671428Y-98712738D02*
X101671428Y-99474642D01*
X101004761Y-100665119D02*
X102290476Y-99807976D01*
X102052380Y-101569880D02*
X101576190Y-101236547D01*
X102052380Y-100998452D02*
X101052380Y-100998452D01*
X101052380Y-101379404D01*
X101100000Y-101474642D01*
X101147619Y-101522261D01*
X101242857Y-101569880D01*
X101385714Y-101569880D01*
X101480952Y-101522261D01*
X101528571Y-101474642D01*
X101576190Y-101379404D01*
X101576190Y-100998452D01*
X101147619Y-101950833D02*
X101100000Y-101998452D01*
X101052380Y-102093690D01*
X101052380Y-102331785D01*
X101100000Y-102427023D01*
X101147619Y-102474642D01*
X101242857Y-102522261D01*
X101338095Y-102522261D01*
X101480952Y-102474642D01*
X102052380Y-101903214D01*
X102052380Y-102522261D01*
X101004761Y-103665119D02*
X102290476Y-102807976D01*
X102052380Y-104569880D02*
X101576190Y-104236547D01*
X102052380Y-103998452D02*
X101052380Y-103998452D01*
X101052380Y-104379404D01*
X101100000Y-104474642D01*
X101147619Y-104522261D01*
X101242857Y-104569880D01*
X101385714Y-104569880D01*
X101480952Y-104522261D01*
X101528571Y-104474642D01*
X101576190Y-104379404D01*
X101576190Y-103998452D01*
X101052380Y-105188928D02*
X101052380Y-105284166D01*
X101100000Y-105379404D01*
X101147619Y-105427023D01*
X101242857Y-105474642D01*
X101433333Y-105522261D01*
X101671428Y-105522261D01*
X101861904Y-105474642D01*
X101957142Y-105427023D01*
X102004761Y-105379404D01*
X102052380Y-105284166D01*
X102052380Y-105188928D01*
X102004761Y-105093690D01*
X101957142Y-105046071D01*
X101861904Y-104998452D01*
X101671428Y-104950833D01*
X101433333Y-104950833D01*
X101242857Y-104998452D01*
X101147619Y-105046071D01*
X101100000Y-105093690D01*
X101052380Y-105188928D01*
X98988571Y-96855595D02*
X98988571Y-97188928D01*
X99512380Y-97331785D02*
X99512380Y-96855595D01*
X98512380Y-96855595D01*
X98512380Y-97331785D01*
X98512380Y-97950833D02*
X98512380Y-98046071D01*
X98560000Y-98141309D01*
X98607619Y-98188928D01*
X98702857Y-98236547D01*
X98893333Y-98284166D01*
X99131428Y-98284166D01*
X99321904Y-98236547D01*
X99417142Y-98188928D01*
X99464761Y-98141309D01*
X99512380Y-98046071D01*
X99512380Y-97950833D01*
X99464761Y-97855595D01*
X99417142Y-97807976D01*
X99321904Y-97760357D01*
X99131428Y-97712738D01*
X98893333Y-97712738D01*
X98702857Y-97760357D01*
X98607619Y-97807976D01*
X98560000Y-97855595D01*
X98512380Y-97950833D01*
X99131428Y-98712738D02*
X99131428Y-99474642D01*
X98464761Y-100665119D02*
X99750476Y-99807976D01*
X99512380Y-100998452D02*
X98512380Y-100998452D01*
X98512380Y-101236547D01*
X98560000Y-101379404D01*
X98655238Y-101474642D01*
X98750476Y-101522261D01*
X98940952Y-101569880D01*
X99083809Y-101569880D01*
X99274285Y-101522261D01*
X99369523Y-101474642D01*
X99464761Y-101379404D01*
X99512380Y-101236547D01*
X99512380Y-100998452D01*
X99512380Y-101998452D02*
X98512380Y-101998452D01*
X98988571Y-101998452D02*
X98988571Y-102569880D01*
X99512380Y-102569880D02*
X98512380Y-102569880D01*
X99464761Y-102998452D02*
X99512380Y-103141309D01*
X99512380Y-103379404D01*
X99464761Y-103474642D01*
X99417142Y-103522261D01*
X99321904Y-103569880D01*
X99226666Y-103569880D01*
X99131428Y-103522261D01*
X99083809Y-103474642D01*
X99036190Y-103379404D01*
X98988571Y-103188928D01*
X98940952Y-103093690D01*
X98893333Y-103046071D01*
X98798095Y-102998452D01*
X98702857Y-102998452D01*
X98607619Y-103046071D01*
X98560000Y-103093690D01*
X98512380Y-103188928D01*
X98512380Y-103427023D01*
X98560000Y-103569880D01*
X98242380Y-96855595D02*
X97242380Y-96855595D01*
X97242380Y-97093690D01*
X97290000Y-97236547D01*
X97385238Y-97331785D01*
X97480476Y-97379404D01*
X97670952Y-97427023D01*
X97813809Y-97427023D01*
X98004285Y-97379404D01*
X98099523Y-97331785D01*
X98194761Y-97236547D01*
X98242380Y-97093690D01*
X98242380Y-96855595D01*
X97242380Y-97712738D02*
X98242380Y-98046071D01*
X97242380Y-98379404D01*
X98194761Y-98665119D02*
X98242380Y-98807976D01*
X98242380Y-99046071D01*
X98194761Y-99141309D01*
X98147142Y-99188928D01*
X98051904Y-99236547D01*
X97956666Y-99236547D01*
X97861428Y-99188928D01*
X97813809Y-99141309D01*
X97766190Y-99046071D01*
X97718571Y-98855595D01*
X97670952Y-98760357D01*
X97623333Y-98712738D01*
X97528095Y-98665119D01*
X97432857Y-98665119D01*
X97337619Y-98712738D01*
X97290000Y-98760357D01*
X97242380Y-98855595D01*
X97242380Y-99093690D01*
X97290000Y-99236547D01*
X96591428Y-96855595D02*
X96591428Y-97617500D01*
X96972380Y-97236547D02*
X96210476Y-97236547D01*
X95972380Y-97998452D02*
X95972380Y-98617500D01*
X96353333Y-98284166D01*
X96353333Y-98427023D01*
X96400952Y-98522261D01*
X96448571Y-98569880D01*
X96543809Y-98617500D01*
X96781904Y-98617500D01*
X96877142Y-98569880D01*
X96924761Y-98522261D01*
X96972380Y-98427023D01*
X96972380Y-98141309D01*
X96924761Y-98046071D01*
X96877142Y-97998452D01*
X96877142Y-99046071D02*
X96924761Y-99093690D01*
X96972380Y-99046071D01*
X96924761Y-98998452D01*
X96877142Y-99046071D01*
X96972380Y-99046071D01*
X95972380Y-99427023D02*
X95972380Y-100046071D01*
X96353333Y-99712738D01*
X96353333Y-99855595D01*
X96400952Y-99950833D01*
X96448571Y-99998452D01*
X96543809Y-100046071D01*
X96781904Y-100046071D01*
X96877142Y-99998452D01*
X96924761Y-99950833D01*
X96972380Y-99855595D01*
X96972380Y-99569880D01*
X96924761Y-99474642D01*
X96877142Y-99427023D01*
X95972380Y-100331785D02*
X96972380Y-100665119D01*
X95972380Y-100998452D01*
X95702380Y-96855595D02*
X94702380Y-96855595D01*
X95178571Y-96855595D02*
X95178571Y-97427023D01*
X95702380Y-97427023D02*
X94702380Y-97427023D01*
X95702380Y-97903214D02*
X94702380Y-97903214D01*
X95416666Y-98236547D01*
X94702380Y-98569880D01*
X95702380Y-98569880D01*
X95702380Y-99046071D02*
X94702380Y-99046071D01*
X95702380Y-100093690D02*
X95226190Y-99760357D01*
X95702380Y-99522261D02*
X94702380Y-99522261D01*
X94702380Y-99903214D01*
X94750000Y-99998452D01*
X94797619Y-100046071D01*
X94892857Y-100093690D01*
X95035714Y-100093690D01*
X95130952Y-100046071D01*
X95178571Y-99998452D01*
X95226190Y-99903214D01*
X95226190Y-99522261D01*
X93908571Y-96855595D02*
X93908571Y-97188928D01*
X94432380Y-97331785D02*
X94432380Y-96855595D01*
X93432380Y-96855595D01*
X93432380Y-97331785D01*
X94432380Y-97760357D02*
X93432380Y-97760357D01*
X94432380Y-98331785D01*
X93432380Y-98331785D01*
X94527619Y-98569880D02*
X94527619Y-99331785D01*
X93908571Y-99903214D02*
X93956190Y-100046071D01*
X94003809Y-100093690D01*
X94099047Y-100141309D01*
X94241904Y-100141309D01*
X94337142Y-100093690D01*
X94384761Y-100046071D01*
X94432380Y-99950833D01*
X94432380Y-99569880D01*
X93432380Y-99569880D01*
X93432380Y-99903214D01*
X93480000Y-99998452D01*
X93527619Y-100046071D01*
X93622857Y-100093690D01*
X93718095Y-100093690D01*
X93813333Y-100046071D01*
X93860952Y-99998452D01*
X93908571Y-99903214D01*
X93908571Y-99569880D01*
X94432380Y-101046071D02*
X94432380Y-100569880D01*
X93432380Y-100569880D01*
X73712023Y-96904761D02*
X73569166Y-96952380D01*
X73331071Y-96952380D01*
X73235833Y-96904761D01*
X73188214Y-96857142D01*
X73140595Y-96761904D01*
X73140595Y-96666666D01*
X73188214Y-96571428D01*
X73235833Y-96523809D01*
X73331071Y-96476190D01*
X73521547Y-96428571D01*
X73616785Y-96380952D01*
X73664404Y-96333333D01*
X73712023Y-96238095D01*
X73712023Y-96142857D01*
X73664404Y-96047619D01*
X73616785Y-96000000D01*
X73521547Y-95952380D01*
X73283452Y-95952380D01*
X73140595Y-96000000D01*
X71997738Y-95904761D02*
X72854880Y-97190476D01*
X71664404Y-96952380D02*
X71664404Y-95952380D01*
X71283452Y-95952380D01*
X71188214Y-96000000D01*
X71140595Y-96047619D01*
X71092976Y-96142857D01*
X71092976Y-96285714D01*
X71140595Y-96380952D01*
X71188214Y-96428571D01*
X71283452Y-96476190D01*
X71664404Y-96476190D01*
X70664404Y-96952380D02*
X70664404Y-95952380D01*
X70426309Y-95952380D01*
X70283452Y-96000000D01*
X70188214Y-96095238D01*
X70140595Y-96190476D01*
X70092976Y-96380952D01*
X70092976Y-96523809D01*
X70140595Y-96714285D01*
X70188214Y-96809523D01*
X70283452Y-96904761D01*
X70426309Y-96952380D01*
X70664404Y-96952380D01*
X69664404Y-96952380D02*
X69664404Y-95952380D01*
X68854880Y-96428571D02*
X69188214Y-96428571D01*
X69188214Y-96952380D02*
X69188214Y-95952380D01*
X68712023Y-95952380D01*
X73140595Y-93250000D02*
X73235833Y-93202380D01*
X73378690Y-93202380D01*
X73521547Y-93250000D01*
X73616785Y-93345238D01*
X73664404Y-93440476D01*
X73712023Y-93630952D01*
X73712023Y-93773809D01*
X73664404Y-93964285D01*
X73616785Y-94059523D01*
X73521547Y-94154761D01*
X73378690Y-94202380D01*
X73283452Y-94202380D01*
X73140595Y-94154761D01*
X73092976Y-94107142D01*
X73092976Y-93773809D01*
X73283452Y-93773809D01*
X72664404Y-94202380D02*
X72664404Y-93202380D01*
X72092976Y-94202380D01*
X72092976Y-93202380D01*
X71616785Y-94202380D02*
X71616785Y-93202380D01*
X71378690Y-93202380D01*
X71235833Y-93250000D01*
X71140595Y-93345238D01*
X71092976Y-93440476D01*
X71045357Y-93630952D01*
X71045357Y-93773809D01*
X71092976Y-93964285D01*
X71140595Y-94059523D01*
X71235833Y-94154761D01*
X71378690Y-94202380D01*
X71616785Y-94202380D01*
X69640595Y-111500000D02*
X69735833Y-111452380D01*
X69878690Y-111452380D01*
X70021547Y-111500000D01*
X70116785Y-111595238D01*
X70164404Y-111690476D01*
X70212023Y-111880952D01*
X70212023Y-112023809D01*
X70164404Y-112214285D01*
X70116785Y-112309523D01*
X70021547Y-112404761D01*
X69878690Y-112452380D01*
X69783452Y-112452380D01*
X69640595Y-112404761D01*
X69592976Y-112357142D01*
X69592976Y-112023809D01*
X69783452Y-112023809D01*
X69164404Y-112452380D02*
X69164404Y-111452380D01*
X68592976Y-112452380D01*
X68592976Y-111452380D01*
X68116785Y-112452380D02*
X68116785Y-111452380D01*
X67878690Y-111452380D01*
X67735833Y-111500000D01*
X67640595Y-111595238D01*
X67592976Y-111690476D01*
X67545357Y-111880952D01*
X67545357Y-112023809D01*
X67592976Y-112214285D01*
X67640595Y-112309523D01*
X67735833Y-112404761D01*
X67878690Y-112452380D01*
X68116785Y-112452380D01*
X69592976Y-114952380D02*
X69926309Y-114476190D01*
X70164404Y-114952380D02*
X70164404Y-113952380D01*
X69783452Y-113952380D01*
X69688214Y-114000000D01*
X69640595Y-114047619D01*
X69592976Y-114142857D01*
X69592976Y-114285714D01*
X69640595Y-114380952D01*
X69688214Y-114428571D01*
X69783452Y-114476190D01*
X70164404Y-114476190D01*
X69259642Y-113952380D02*
X68592976Y-114952380D01*
X68592976Y-113952380D02*
X69259642Y-114952380D01*
X67497738Y-113904761D02*
X68354880Y-115190476D01*
X67212023Y-114904761D02*
X67069166Y-114952380D01*
X66831071Y-114952380D01*
X66735833Y-114904761D01*
X66688214Y-114857142D01*
X66640595Y-114761904D01*
X66640595Y-114666666D01*
X66688214Y-114571428D01*
X66735833Y-114523809D01*
X66831071Y-114476190D01*
X67021547Y-114428571D01*
X67116785Y-114380952D01*
X67164404Y-114333333D01*
X67212023Y-114238095D01*
X67212023Y-114142857D01*
X67164404Y-114047619D01*
X67116785Y-114000000D01*
X67021547Y-113952380D01*
X66783452Y-113952380D01*
X66640595Y-114000000D01*
X65640595Y-114857142D02*
X65688214Y-114904761D01*
X65831071Y-114952380D01*
X65926309Y-114952380D01*
X66069166Y-114904761D01*
X66164404Y-114809523D01*
X66212023Y-114714285D01*
X66259642Y-114523809D01*
X66259642Y-114380952D01*
X66212023Y-114190476D01*
X66164404Y-114095238D01*
X66069166Y-114000000D01*
X65926309Y-113952380D01*
X65831071Y-113952380D01*
X65688214Y-114000000D01*
X65640595Y-114047619D01*
X64735833Y-114952380D02*
X65212023Y-114952380D01*
X65212023Y-113952380D01*
X70307261Y-116702380D02*
X69735833Y-116702380D01*
X70021547Y-117702380D02*
X70021547Y-116702380D01*
X69497738Y-116702380D02*
X68831071Y-117702380D01*
X68831071Y-116702380D02*
X69497738Y-117702380D01*
X67735833Y-116654761D02*
X68592976Y-117940476D01*
X67450119Y-117654761D02*
X67307261Y-117702380D01*
X67069166Y-117702380D01*
X66973928Y-117654761D01*
X66926309Y-117607142D01*
X66878690Y-117511904D01*
X66878690Y-117416666D01*
X66926309Y-117321428D01*
X66973928Y-117273809D01*
X67069166Y-117226190D01*
X67259642Y-117178571D01*
X67354880Y-117130952D01*
X67402500Y-117083333D01*
X67450119Y-116988095D01*
X67450119Y-116892857D01*
X67402500Y-116797619D01*
X67354880Y-116750000D01*
X67259642Y-116702380D01*
X67021547Y-116702380D01*
X66878690Y-116750000D01*
X66450119Y-117702380D02*
X66450119Y-116702380D01*
X66212023Y-116702380D01*
X66069166Y-116750000D01*
X65973928Y-116845238D01*
X65926309Y-116940476D01*
X65878690Y-117130952D01*
X65878690Y-117273809D01*
X65926309Y-117464285D01*
X65973928Y-117559523D01*
X66069166Y-117654761D01*
X66212023Y-117702380D01*
X66450119Y-117702380D01*
X65497738Y-117416666D02*
X65021547Y-117416666D01*
X65592976Y-117702380D02*
X65259642Y-116702380D01*
X64926309Y-117702380D01*
X146128690Y-116302380D02*
X146128690Y-117016666D01*
X146176309Y-117159523D01*
X146271547Y-117254761D01*
X146414404Y-117302380D01*
X146509642Y-117302380D01*
X145652500Y-117302380D02*
X145652500Y-116302380D01*
X145271547Y-116302380D01*
X145176309Y-116350000D01*
X145128690Y-116397619D01*
X145081071Y-116492857D01*
X145081071Y-116635714D01*
X145128690Y-116730952D01*
X145176309Y-116778571D01*
X145271547Y-116826190D01*
X145652500Y-116826190D01*
X144128690Y-117302380D02*
X144700119Y-117302380D01*
X144414404Y-117302380D02*
X144414404Y-116302380D01*
X144509642Y-116445238D01*
X144604880Y-116540476D01*
X144700119Y-116588095D01*
X142128690Y-117302380D02*
X142176309Y-117302380D01*
X142271547Y-117254761D01*
X142414404Y-117111904D01*
X142652500Y-116826190D01*
X142747738Y-116683333D01*
X142795357Y-116540476D01*
X142795357Y-116445238D01*
X142747738Y-116350000D01*
X142652500Y-116302380D01*
X142604880Y-116302380D01*
X142509642Y-116350000D01*
X142462023Y-116445238D01*
X142462023Y-116492857D01*
X142509642Y-116588095D01*
X142557261Y-116635714D01*
X142842976Y-116826190D01*
X142890595Y-116873809D01*
X142938214Y-116969047D01*
X142938214Y-117111904D01*
X142890595Y-117207142D01*
X142842976Y-117254761D01*
X142747738Y-117302380D01*
X142604880Y-117302380D01*
X142509642Y-117254761D01*
X142462023Y-117207142D01*
X142319166Y-117016666D01*
X142271547Y-116873809D01*
X142271547Y-116778571D01*
X140652500Y-116302380D02*
X140652500Y-117016666D01*
X140700119Y-117159523D01*
X140795357Y-117254761D01*
X140938214Y-117302380D01*
X141033452Y-117302380D01*
X140176309Y-117302380D02*
X140176309Y-116302380D01*
X139795357Y-116302380D01*
X139700119Y-116350000D01*
X139652500Y-116397619D01*
X139604880Y-116492857D01*
X139604880Y-116635714D01*
X139652500Y-116730952D01*
X139700119Y-116778571D01*
X139795357Y-116826190D01*
X140176309Y-116826190D01*
X139223928Y-116397619D02*
X139176309Y-116350000D01*
X139081071Y-116302380D01*
X138842976Y-116302380D01*
X138747738Y-116350000D01*
X138700119Y-116397619D01*
X138652500Y-116492857D01*
X138652500Y-116588095D01*
X138700119Y-116730952D01*
X139271547Y-117302380D01*
X138652500Y-117302380D01*
X138223928Y-117207142D02*
X138176309Y-117254761D01*
X138223928Y-117302380D01*
X138271547Y-117254761D01*
X138223928Y-117207142D01*
X138223928Y-117302380D01*
X138223928Y-116683333D02*
X138176309Y-116730952D01*
X138223928Y-116778571D01*
X138271547Y-116730952D01*
X138223928Y-116683333D01*
X138223928Y-116778571D01*
X145890595Y-118952380D02*
X146462023Y-118952380D01*
X146176309Y-118952380D02*
X146176309Y-117952380D01*
X146271547Y-118095238D01*
X146366785Y-118190476D01*
X146462023Y-118238095D01*
X145462023Y-118571428D02*
X144700119Y-118571428D01*
X144271547Y-118047619D02*
X144223928Y-118000000D01*
X144128690Y-117952380D01*
X143890595Y-117952380D01*
X143795357Y-118000000D01*
X143747738Y-118047619D01*
X143700119Y-118142857D01*
X143700119Y-118238095D01*
X143747738Y-118380952D01*
X144319166Y-118952380D01*
X143700119Y-118952380D01*
X142509642Y-118571428D02*
X141747738Y-118571428D01*
X139985833Y-118000000D02*
X140081071Y-117952380D01*
X140223928Y-117952380D01*
X140366785Y-118000000D01*
X140462023Y-118095238D01*
X140509642Y-118190476D01*
X140557261Y-118380952D01*
X140557261Y-118523809D01*
X140509642Y-118714285D01*
X140462023Y-118809523D01*
X140366785Y-118904761D01*
X140223928Y-118952380D01*
X140128690Y-118952380D01*
X139985833Y-118904761D01*
X139938214Y-118857142D01*
X139938214Y-118523809D01*
X140128690Y-118523809D01*
X139509642Y-118952380D02*
X139509642Y-117952380D01*
X138938214Y-118952380D01*
X138938214Y-117952380D01*
X138462023Y-118952380D02*
X138462023Y-117952380D01*
X138223928Y-117952380D01*
X138081071Y-118000000D01*
X137985833Y-118095238D01*
X137938214Y-118190476D01*
X137890595Y-118380952D01*
X137890595Y-118523809D01*
X137938214Y-118714285D01*
X137985833Y-118809523D01*
X138081071Y-118904761D01*
X138223928Y-118952380D01*
X138462023Y-118952380D01*
X137462023Y-118571428D02*
X136700119Y-118571428D01*
X136271547Y-118904761D02*
X136128690Y-118952380D01*
X135890595Y-118952380D01*
X135795357Y-118904761D01*
X135747738Y-118857142D01*
X135700119Y-118761904D01*
X135700119Y-118666666D01*
X135747738Y-118571428D01*
X135795357Y-118523809D01*
X135890595Y-118476190D01*
X136081071Y-118428571D01*
X136176309Y-118380952D01*
X136223928Y-118333333D01*
X136271547Y-118238095D01*
X136271547Y-118142857D01*
X136223928Y-118047619D01*
X136176309Y-118000000D01*
X136081071Y-117952380D01*
X135842976Y-117952380D01*
X135700119Y-118000000D01*
X134795357Y-118952380D02*
X135271547Y-118952380D01*
X135271547Y-117952380D01*
X134462023Y-118428571D02*
X134128690Y-118428571D01*
X133985833Y-118952380D02*
X134462023Y-118952380D01*
X134462023Y-117952380D01*
X133985833Y-117952380D01*
X133557261Y-118428571D02*
X133223928Y-118428571D01*
X133081071Y-118952380D02*
X133557261Y-118952380D01*
X133557261Y-117952380D01*
X133081071Y-117952380D01*
X132795357Y-117952380D02*
X132462023Y-118952380D01*
X132128690Y-117952380D01*
X131795357Y-118428571D02*
X131462023Y-118428571D01*
X131319166Y-118952380D02*
X131795357Y-118952380D01*
X131795357Y-117952380D01*
X131319166Y-117952380D01*
X146509642Y-119602380D02*
X145890595Y-119602380D01*
X146223928Y-119983333D01*
X146081071Y-119983333D01*
X145985833Y-120030952D01*
X145938214Y-120078571D01*
X145890595Y-120173809D01*
X145890595Y-120411904D01*
X145938214Y-120507142D01*
X145985833Y-120554761D01*
X146081071Y-120602380D01*
X146366785Y-120602380D01*
X146462023Y-120554761D01*
X146509642Y-120507142D01*
X145462023Y-120221428D02*
X144700119Y-120221428D01*
X144271547Y-119697619D02*
X144223928Y-119650000D01*
X144128690Y-119602380D01*
X143890595Y-119602380D01*
X143795357Y-119650000D01*
X143747738Y-119697619D01*
X143700119Y-119792857D01*
X143700119Y-119888095D01*
X143747738Y-120030952D01*
X144319166Y-120602380D01*
X143700119Y-120602380D01*
X142509642Y-120221428D02*
X141747738Y-120221428D01*
X139985833Y-119650000D02*
X140081071Y-119602380D01*
X140223928Y-119602380D01*
X140366785Y-119650000D01*
X140462023Y-119745238D01*
X140509642Y-119840476D01*
X140557261Y-120030952D01*
X140557261Y-120173809D01*
X140509642Y-120364285D01*
X140462023Y-120459523D01*
X140366785Y-120554761D01*
X140223928Y-120602380D01*
X140128690Y-120602380D01*
X139985833Y-120554761D01*
X139938214Y-120507142D01*
X139938214Y-120173809D01*
X140128690Y-120173809D01*
X139509642Y-120602380D02*
X139509642Y-119602380D01*
X138938214Y-120602380D01*
X138938214Y-119602380D01*
X138462023Y-120602380D02*
X138462023Y-119602380D01*
X138223928Y-119602380D01*
X138081071Y-119650000D01*
X137985833Y-119745238D01*
X137938214Y-119840476D01*
X137890595Y-120030952D01*
X137890595Y-120173809D01*
X137938214Y-120364285D01*
X137985833Y-120459523D01*
X138081071Y-120554761D01*
X138223928Y-120602380D01*
X138462023Y-120602380D01*
X137462023Y-120221428D02*
X136700119Y-120221428D01*
X135652500Y-120602380D02*
X135985833Y-120126190D01*
X136223928Y-120602380D02*
X136223928Y-119602380D01*
X135842976Y-119602380D01*
X135747738Y-119650000D01*
X135700119Y-119697619D01*
X135652500Y-119792857D01*
X135652500Y-119935714D01*
X135700119Y-120030952D01*
X135747738Y-120078571D01*
X135842976Y-120126190D01*
X136223928Y-120126190D01*
X135223928Y-120602380D02*
X135223928Y-119602380D01*
X134747738Y-120602380D02*
X134747738Y-119602380D01*
X134176309Y-120602380D01*
X134176309Y-119602380D01*
X133176309Y-119650000D02*
X133271547Y-119602380D01*
X133414404Y-119602380D01*
X133557261Y-119650000D01*
X133652500Y-119745238D01*
X133700119Y-119840476D01*
X133747738Y-120030952D01*
X133747738Y-120173809D01*
X133700119Y-120364285D01*
X133652500Y-120459523D01*
X133557261Y-120554761D01*
X133414404Y-120602380D01*
X133319166Y-120602380D01*
X133176309Y-120554761D01*
X133128690Y-120507142D01*
X133128690Y-120173809D01*
X133319166Y-120173809D01*
X132747738Y-119697619D02*
X132700119Y-119650000D01*
X132604880Y-119602380D01*
X132366785Y-119602380D01*
X132271547Y-119650000D01*
X132223928Y-119697619D01*
X132176309Y-119792857D01*
X132176309Y-119888095D01*
X132223928Y-120030952D01*
X132795357Y-120602380D01*
X132176309Y-120602380D01*
X142142857Y-93321428D02*
X142095238Y-93369047D01*
X142047619Y-93511904D01*
X142047619Y-93607142D01*
X142095238Y-93750000D01*
X142190476Y-93845238D01*
X142285714Y-93892857D01*
X142476190Y-93940476D01*
X142619047Y-93940476D01*
X142809523Y-93892857D01*
X142904761Y-93845238D01*
X143000000Y-93750000D01*
X143047619Y-93607142D01*
X143047619Y-93511904D01*
X143000000Y-93369047D01*
X142952380Y-93321428D01*
X143047619Y-93035714D02*
X142047619Y-92702380D01*
X143047619Y-92369047D01*
X142571428Y-91702380D02*
X142523809Y-91559523D01*
X142476190Y-91511904D01*
X142380952Y-91464285D01*
X142238095Y-91464285D01*
X142142857Y-91511904D01*
X142095238Y-91559523D01*
X142047619Y-91654761D01*
X142047619Y-92035714D01*
X143047619Y-92035714D01*
X143047619Y-91702380D01*
X143000000Y-91607142D01*
X142952380Y-91559523D01*
X142857142Y-91511904D01*
X142761904Y-91511904D01*
X142666666Y-91559523D01*
X142619047Y-91607142D01*
X142571428Y-91702380D01*
X142571428Y-92035714D01*
X142095238Y-91083333D02*
X142047619Y-90940476D01*
X142047619Y-90702380D01*
X142095238Y-90607142D01*
X142142857Y-90559523D01*
X142238095Y-90511904D01*
X142333333Y-90511904D01*
X142428571Y-90559523D01*
X142476190Y-90607142D01*
X142523809Y-90702380D01*
X142571428Y-90892857D01*
X142619047Y-90988095D01*
X142666666Y-91035714D01*
X142761904Y-91083333D01*
X142857142Y-91083333D01*
X142952380Y-91035714D01*
X143000000Y-90988095D01*
X143047619Y-90892857D01*
X143047619Y-90654761D01*
X143000000Y-90511904D01*
X142047619Y-89559523D02*
X142047619Y-90130952D01*
X142047619Y-89845238D02*
X143047619Y-89845238D01*
X142904761Y-89940476D01*
X142809523Y-90035714D01*
X142761904Y-90130952D01*
X85416666Y-79976190D02*
X85416666Y-80452380D01*
X85702380Y-79880952D02*
X84702380Y-80214285D01*
X85702380Y-80547619D01*
X84702380Y-80880952D02*
X85511904Y-80880952D01*
X85607142Y-80928571D01*
X85654761Y-80976190D01*
X85702380Y-81071428D01*
X85702380Y-81261904D01*
X85654761Y-81357142D01*
X85607142Y-81404761D01*
X85511904Y-81452380D01*
X84702380Y-81452380D01*
X85702380Y-81928571D02*
X84702380Y-81928571D01*
X84702380Y-82166666D01*
X84750000Y-82309523D01*
X84845238Y-82404761D01*
X84940476Y-82452380D01*
X85130952Y-82500000D01*
X85273809Y-82500000D01*
X85464285Y-82452380D01*
X85559523Y-82404761D01*
X85654761Y-82309523D01*
X85702380Y-82166666D01*
X85702380Y-81928571D01*
X85702380Y-82928571D02*
X84702380Y-82928571D01*
X84702380Y-83595238D02*
X84702380Y-83785714D01*
X84750000Y-83880952D01*
X84845238Y-83976190D01*
X85035714Y-84023809D01*
X85369047Y-84023809D01*
X85559523Y-83976190D01*
X85654761Y-83880952D01*
X85702380Y-83785714D01*
X85702380Y-83595238D01*
X85654761Y-83500000D01*
X85559523Y-83404761D01*
X85369047Y-83357142D01*
X85035714Y-83357142D01*
X84845238Y-83404761D01*
X84750000Y-83500000D01*
X84702380Y-83595238D01*
X146857142Y-79559523D02*
X146904761Y-79511904D01*
X146952380Y-79369047D01*
X146952380Y-79273809D01*
X146904761Y-79130952D01*
X146809523Y-79035714D01*
X146714285Y-78988095D01*
X146523809Y-78940476D01*
X146380952Y-78940476D01*
X146190476Y-78988095D01*
X146095238Y-79035714D01*
X146000000Y-79130952D01*
X145952380Y-79273809D01*
X145952380Y-79369047D01*
X146000000Y-79511904D01*
X146047619Y-79559523D01*
X145952380Y-79845238D02*
X146952380Y-80178571D01*
X145952380Y-80511904D01*
X146428571Y-81178571D02*
X146476190Y-81321428D01*
X146523809Y-81369047D01*
X146619047Y-81416666D01*
X146761904Y-81416666D01*
X146857142Y-81369047D01*
X146904761Y-81321428D01*
X146952380Y-81226190D01*
X146952380Y-80845238D01*
X145952380Y-80845238D01*
X145952380Y-81178571D01*
X146000000Y-81273809D01*
X146047619Y-81321428D01*
X146142857Y-81369047D01*
X146238095Y-81369047D01*
X146333333Y-81321428D01*
X146380952Y-81273809D01*
X146428571Y-81178571D01*
X146428571Y-80845238D01*
X146904761Y-81797619D02*
X146952380Y-81940476D01*
X146952380Y-82178571D01*
X146904761Y-82273809D01*
X146857142Y-82321428D01*
X146761904Y-82369047D01*
X146666666Y-82369047D01*
X146571428Y-82321428D01*
X146523809Y-82273809D01*
X146476190Y-82178571D01*
X146428571Y-81988095D01*
X146380952Y-81892857D01*
X146333333Y-81845238D01*
X146238095Y-81797619D01*
X146142857Y-81797619D01*
X146047619Y-81845238D01*
X146000000Y-81892857D01*
X145952380Y-81988095D01*
X145952380Y-82226190D01*
X146000000Y-82369047D01*
X146047619Y-82750000D02*
X146000000Y-82797619D01*
X145952380Y-82892857D01*
X145952380Y-83130952D01*
X146000000Y-83226190D01*
X146047619Y-83273809D01*
X146142857Y-83321428D01*
X146238095Y-83321428D01*
X146380952Y-83273809D01*
X146952380Y-82702380D01*
X146952380Y-83321428D01*
X146571428Y-83750000D02*
X146571428Y-84511904D01*
X146952380Y-84130952D02*
X146190476Y-84130952D01*
X140857142Y-79559523D02*
X140904761Y-79511904D01*
X140952380Y-79369047D01*
X140952380Y-79273809D01*
X140904761Y-79130952D01*
X140809523Y-79035714D01*
X140714285Y-78988095D01*
X140523809Y-78940476D01*
X140380952Y-78940476D01*
X140190476Y-78988095D01*
X140095238Y-79035714D01*
X140000000Y-79130952D01*
X139952380Y-79273809D01*
X139952380Y-79369047D01*
X140000000Y-79511904D01*
X140047619Y-79559523D01*
X139952380Y-79845238D02*
X140952380Y-80178571D01*
X139952380Y-80511904D01*
X140428571Y-81178571D02*
X140476190Y-81321428D01*
X140523809Y-81369047D01*
X140619047Y-81416666D01*
X140761904Y-81416666D01*
X140857142Y-81369047D01*
X140904761Y-81321428D01*
X140952380Y-81226190D01*
X140952380Y-80845238D01*
X139952380Y-80845238D01*
X139952380Y-81178571D01*
X140000000Y-81273809D01*
X140047619Y-81321428D01*
X140142857Y-81369047D01*
X140238095Y-81369047D01*
X140333333Y-81321428D01*
X140380952Y-81273809D01*
X140428571Y-81178571D01*
X140428571Y-80845238D01*
X140904761Y-81797619D02*
X140952380Y-81940476D01*
X140952380Y-82178571D01*
X140904761Y-82273809D01*
X140857142Y-82321428D01*
X140761904Y-82369047D01*
X140666666Y-82369047D01*
X140571428Y-82321428D01*
X140523809Y-82273809D01*
X140476190Y-82178571D01*
X140428571Y-81988095D01*
X140380952Y-81892857D01*
X140333333Y-81845238D01*
X140238095Y-81797619D01*
X140142857Y-81797619D01*
X140047619Y-81845238D01*
X140000000Y-81892857D01*
X139952380Y-81988095D01*
X139952380Y-82226190D01*
X140000000Y-82369047D01*
X140047619Y-82750000D02*
X140000000Y-82797619D01*
X139952380Y-82892857D01*
X139952380Y-83130952D01*
X140000000Y-83226190D01*
X140047619Y-83273809D01*
X140142857Y-83321428D01*
X140238095Y-83321428D01*
X140380952Y-83273809D01*
X140952380Y-82702380D01*
X140952380Y-83321428D01*
X140571428Y-83750000D02*
X140571428Y-84511904D01*
X143345238Y-126127380D02*
X143678571Y-125651190D01*
X143916666Y-126127380D02*
X143916666Y-125127380D01*
X143535714Y-125127380D01*
X143440476Y-125175000D01*
X143392857Y-125222619D01*
X143345238Y-125317857D01*
X143345238Y-125460714D01*
X143392857Y-125555952D01*
X143440476Y-125603571D01*
X143535714Y-125651190D01*
X143916666Y-125651190D01*
X142392857Y-125175000D02*
X142488095Y-125127380D01*
X142630952Y-125127380D01*
X142773809Y-125175000D01*
X142869047Y-125270238D01*
X142916666Y-125365476D01*
X142964285Y-125555952D01*
X142964285Y-125698809D01*
X142916666Y-125889285D01*
X142869047Y-125984523D01*
X142773809Y-126079761D01*
X142630952Y-126127380D01*
X142535714Y-126127380D01*
X142392857Y-126079761D01*
X142345238Y-126032142D01*
X142345238Y-125698809D01*
X142535714Y-125698809D01*
X141964285Y-126079761D02*
X141869047Y-126127380D01*
X141678571Y-126127380D01*
X141583333Y-126079761D01*
X141535714Y-125984523D01*
X141535714Y-125936904D01*
X141583333Y-125841666D01*
X141678571Y-125794047D01*
X141821428Y-125794047D01*
X141916666Y-125746428D01*
X141964285Y-125651190D01*
X141964285Y-125603571D01*
X141916666Y-125508333D01*
X141821428Y-125460714D01*
X141678571Y-125460714D01*
X141583333Y-125508333D01*
X140773809Y-125603571D02*
X140630952Y-125651190D01*
X140583333Y-125698809D01*
X140535714Y-125794047D01*
X140535714Y-125936904D01*
X140583333Y-126032142D01*
X140630952Y-126079761D01*
X140726190Y-126127380D01*
X141107142Y-126127380D01*
X141107142Y-125127380D01*
X140773809Y-125127380D01*
X140678571Y-125175000D01*
X140630952Y-125222619D01*
X140583333Y-125317857D01*
X140583333Y-125413095D01*
X140630952Y-125508333D01*
X140678571Y-125555952D01*
X140773809Y-125603571D01*
X141107142Y-125603571D01*
X144011904Y-127301190D02*
X144011904Y-127777380D01*
X144345238Y-126777380D02*
X144011904Y-127301190D01*
X143678571Y-126777380D01*
X143345238Y-127777380D02*
X143345238Y-126777380D01*
X142964285Y-126777380D01*
X142869047Y-126825000D01*
X142821428Y-126872619D01*
X142773809Y-126967857D01*
X142773809Y-127110714D01*
X142821428Y-127205952D01*
X142869047Y-127253571D01*
X142964285Y-127301190D01*
X143345238Y-127301190D01*
X142345238Y-127777380D02*
X142345238Y-126777380D01*
X142345238Y-127158333D02*
X142250000Y-127110714D01*
X142059523Y-127110714D01*
X141964285Y-127158333D01*
X141916666Y-127205952D01*
X141869047Y-127301190D01*
X141869047Y-127586904D01*
X141916666Y-127682142D01*
X141964285Y-127729761D01*
X142059523Y-127777380D01*
X142250000Y-127777380D01*
X142345238Y-127729761D01*
X141440476Y-127777380D02*
X141440476Y-126777380D01*
X141059523Y-126777380D01*
X140964285Y-126825000D01*
X140916666Y-126872619D01*
X140869047Y-126967857D01*
X140869047Y-127110714D01*
X140916666Y-127205952D01*
X140964285Y-127253571D01*
X141059523Y-127301190D01*
X141440476Y-127301190D01*
X140440476Y-127777380D02*
X140440476Y-127110714D01*
X140440476Y-127301190D02*
X140392857Y-127205952D01*
X140345238Y-127158333D01*
X140250000Y-127110714D01*
X140154761Y-127110714D01*
X75202380Y-81811785D02*
X75202380Y-81335595D01*
X74202380Y-81335595D01*
X74678571Y-82145119D02*
X74678571Y-82478452D01*
X75202380Y-82621309D02*
X75202380Y-82145119D01*
X74202380Y-82145119D01*
X74202380Y-82621309D01*
X75202380Y-83049880D02*
X74202380Y-83049880D01*
X74202380Y-83287976D01*
X74250000Y-83430833D01*
X74345238Y-83526071D01*
X74440476Y-83573690D01*
X74630952Y-83621309D01*
X74773809Y-83621309D01*
X74964285Y-83573690D01*
X75059523Y-83526071D01*
X75154761Y-83430833D01*
X75202380Y-83287976D01*
X75202380Y-83049880D01*
X74916666Y-84002261D02*
X74916666Y-84478452D01*
X75202380Y-83907023D02*
X74202380Y-84240357D01*
X75202380Y-84573690D01*
X74297619Y-84859404D02*
X74250000Y-84907023D01*
X74202380Y-85002261D01*
X74202380Y-85240357D01*
X74250000Y-85335595D01*
X74297619Y-85383214D01*
X74392857Y-85430833D01*
X74488095Y-85430833D01*
X74630952Y-85383214D01*
X75202380Y-84811785D01*
X75202380Y-85430833D01*
X73202380Y-81811785D02*
X73202380Y-81335595D01*
X72202380Y-81335595D01*
X72678571Y-82145119D02*
X72678571Y-82478452D01*
X73202380Y-82621309D02*
X73202380Y-82145119D01*
X72202380Y-82145119D01*
X72202380Y-82621309D01*
X73202380Y-83049880D02*
X72202380Y-83049880D01*
X72202380Y-83287976D01*
X72250000Y-83430833D01*
X72345238Y-83526071D01*
X72440476Y-83573690D01*
X72630952Y-83621309D01*
X72773809Y-83621309D01*
X72964285Y-83573690D01*
X73059523Y-83526071D01*
X73154761Y-83430833D01*
X73202380Y-83287976D01*
X73202380Y-83049880D01*
X72916666Y-84002261D02*
X72916666Y-84478452D01*
X73202380Y-83907023D02*
X72202380Y-84240357D01*
X73202380Y-84573690D01*
X73202380Y-85430833D02*
X73202380Y-84859404D01*
X73202380Y-85145119D02*
X72202380Y-85145119D01*
X72345238Y-85049880D01*
X72440476Y-84954642D01*
X72488095Y-84859404D01*
X71154761Y-81287976D02*
X71202380Y-81430833D01*
X71202380Y-81668928D01*
X71154761Y-81764166D01*
X71107142Y-81811785D01*
X71011904Y-81859404D01*
X70916666Y-81859404D01*
X70821428Y-81811785D01*
X70773809Y-81764166D01*
X70726190Y-81668928D01*
X70678571Y-81478452D01*
X70630952Y-81383214D01*
X70583333Y-81335595D01*
X70488095Y-81287976D01*
X70392857Y-81287976D01*
X70297619Y-81335595D01*
X70250000Y-81383214D01*
X70202380Y-81478452D01*
X70202380Y-81716547D01*
X70250000Y-81859404D01*
X71202380Y-82859404D02*
X70726190Y-82526071D01*
X71202380Y-82287976D02*
X70202380Y-82287976D01*
X70202380Y-82668928D01*
X70250000Y-82764166D01*
X70297619Y-82811785D01*
X70392857Y-82859404D01*
X70535714Y-82859404D01*
X70630952Y-82811785D01*
X70678571Y-82764166D01*
X70726190Y-82668928D01*
X70726190Y-82287976D01*
X71107142Y-83859404D02*
X71154761Y-83811785D01*
X71202380Y-83668928D01*
X71202380Y-83573690D01*
X71154761Y-83430833D01*
X71059523Y-83335595D01*
X70964285Y-83287976D01*
X70773809Y-83240357D01*
X70630952Y-83240357D01*
X70440476Y-83287976D01*
X70345238Y-83335595D01*
X70250000Y-83430833D01*
X70202380Y-83573690D01*
X70202380Y-83668928D01*
X70250000Y-83811785D01*
X70297619Y-83859404D01*
X69202380Y-81335595D02*
X68202380Y-81335595D01*
X68202380Y-81573690D01*
X68250000Y-81716547D01*
X68345238Y-81811785D01*
X68440476Y-81859404D01*
X68630952Y-81907023D01*
X68773809Y-81907023D01*
X68964285Y-81859404D01*
X69059523Y-81811785D01*
X69154761Y-81716547D01*
X69202380Y-81573690D01*
X69202380Y-81335595D01*
X68202380Y-82526071D02*
X68202380Y-82716547D01*
X68250000Y-82811785D01*
X68345238Y-82907023D01*
X68535714Y-82954642D01*
X68869047Y-82954642D01*
X69059523Y-82907023D01*
X69154761Y-82811785D01*
X69202380Y-82716547D01*
X69202380Y-82526071D01*
X69154761Y-82430833D01*
X69059523Y-82335595D01*
X68869047Y-82287976D01*
X68535714Y-82287976D01*
X68345238Y-82335595D01*
X68250000Y-82430833D01*
X68202380Y-82526071D01*
X68202380Y-83287976D02*
X69202380Y-83526071D01*
X68488095Y-83716547D01*
X69202380Y-83907023D01*
X68202380Y-84145119D01*
X69202380Y-84526071D02*
X68202380Y-84526071D01*
X69202380Y-85097500D01*
X68202380Y-85097500D01*
X66202380Y-81335595D02*
X67011904Y-81335595D01*
X67107142Y-81383214D01*
X67154761Y-81430833D01*
X67202380Y-81526071D01*
X67202380Y-81716547D01*
X67154761Y-81811785D01*
X67107142Y-81859404D01*
X67011904Y-81907023D01*
X66202380Y-81907023D01*
X67202380Y-82383214D02*
X66202380Y-82383214D01*
X66202380Y-82764166D01*
X66250000Y-82859404D01*
X66297619Y-82907023D01*
X66392857Y-82954642D01*
X66535714Y-82954642D01*
X66630952Y-82907023D01*
X66678571Y-82859404D01*
X66726190Y-82764166D01*
X66726190Y-82383214D01*
X65202380Y-81335595D02*
X64202380Y-81335595D01*
X64916666Y-81668928D01*
X64202380Y-82002261D01*
X65202380Y-82002261D01*
X64678571Y-82478452D02*
X64678571Y-82811785D01*
X65202380Y-82954642D02*
X65202380Y-82478452D01*
X64202380Y-82478452D01*
X64202380Y-82954642D01*
X65202380Y-83383214D02*
X64202380Y-83383214D01*
X65202380Y-83954642D01*
X64202380Y-83954642D01*
X64202380Y-84430833D02*
X65011904Y-84430833D01*
X65107142Y-84478452D01*
X65154761Y-84526071D01*
X65202380Y-84621309D01*
X65202380Y-84811785D01*
X65154761Y-84907023D01*
X65107142Y-84954642D01*
X65011904Y-85002261D01*
X64202380Y-85002261D01*
X63202380Y-81335595D02*
X62202380Y-81335595D01*
X62202380Y-81716547D01*
X62250000Y-81811785D01*
X62297619Y-81859404D01*
X62392857Y-81907023D01*
X62535714Y-81907023D01*
X62630952Y-81859404D01*
X62678571Y-81811785D01*
X62726190Y-81716547D01*
X62726190Y-81335595D01*
X62202380Y-82240357D02*
X63202380Y-82478452D01*
X62488095Y-82668928D01*
X63202380Y-82859404D01*
X62202380Y-83097500D01*
X63202380Y-84049880D02*
X62726190Y-83716547D01*
X63202380Y-83478452D02*
X62202380Y-83478452D01*
X62202380Y-83859404D01*
X62250000Y-83954642D01*
X62297619Y-84002261D01*
X62392857Y-84049880D01*
X62535714Y-84049880D01*
X62630952Y-84002261D01*
X62678571Y-83954642D01*
X62726190Y-83859404D01*
X62726190Y-83478452D01*
X61202380Y-81335595D02*
X60202380Y-81335595D01*
X61202380Y-82383214D02*
X60726190Y-82049880D01*
X61202380Y-81811785D02*
X60202380Y-81811785D01*
X60202380Y-82192738D01*
X60250000Y-82287976D01*
X60297619Y-82335595D01*
X60392857Y-82383214D01*
X60535714Y-82383214D01*
X60630952Y-82335595D01*
X60678571Y-82287976D01*
X60726190Y-82192738D01*
X60726190Y-81811785D01*
X58250000Y-81859404D02*
X58202380Y-81764166D01*
X58202380Y-81621309D01*
X58250000Y-81478452D01*
X58345238Y-81383214D01*
X58440476Y-81335595D01*
X58630952Y-81287976D01*
X58773809Y-81287976D01*
X58964285Y-81335595D01*
X59059523Y-81383214D01*
X59154761Y-81478452D01*
X59202380Y-81621309D01*
X59202380Y-81716547D01*
X59154761Y-81859404D01*
X59107142Y-81907023D01*
X58773809Y-81907023D01*
X58773809Y-81716547D01*
X59202380Y-82335595D02*
X58202380Y-82335595D01*
X59202380Y-82907023D01*
X58202380Y-82907023D01*
X59202380Y-83383214D02*
X58202380Y-83383214D01*
X58202380Y-83621309D01*
X58250000Y-83764166D01*
X58345238Y-83859404D01*
X58440476Y-83907023D01*
X58630952Y-83954642D01*
X58773809Y-83954642D01*
X58964285Y-83907023D01*
X59059523Y-83859404D01*
X59154761Y-83764166D01*
X59202380Y-83621309D01*
X59202380Y-83383214D01*
X56821428Y-81335595D02*
X56821428Y-82097500D01*
X57202380Y-81716547D02*
X56440476Y-81716547D01*
X56202380Y-82478452D02*
X56202380Y-83097500D01*
X56583333Y-82764166D01*
X56583333Y-82907023D01*
X56630952Y-83002261D01*
X56678571Y-83049880D01*
X56773809Y-83097500D01*
X57011904Y-83097500D01*
X57107142Y-83049880D01*
X57154761Y-83002261D01*
X57202380Y-82907023D01*
X57202380Y-82621309D01*
X57154761Y-82526071D01*
X57107142Y-82478452D01*
X57107142Y-83526071D02*
X57154761Y-83573690D01*
X57202380Y-83526071D01*
X57154761Y-83478452D01*
X57107142Y-83526071D01*
X57202380Y-83526071D01*
X56202380Y-83907023D02*
X56202380Y-84526071D01*
X56583333Y-84192738D01*
X56583333Y-84335595D01*
X56630952Y-84430833D01*
X56678571Y-84478452D01*
X56773809Y-84526071D01*
X57011904Y-84526071D01*
X57107142Y-84478452D01*
X57154761Y-84430833D01*
X57202380Y-84335595D01*
X57202380Y-84049880D01*
X57154761Y-83954642D01*
X57107142Y-83907023D01*
X56202380Y-84811785D02*
X57202380Y-85145119D01*
X56202380Y-85478452D01*
X105640595Y-83320380D02*
X106212023Y-83320380D01*
X105926309Y-83320380D02*
X105926309Y-82320380D01*
X106021547Y-82463238D01*
X106116785Y-82558476D01*
X106212023Y-82606095D01*
X105212023Y-82939428D02*
X104450119Y-82939428D01*
X104021547Y-82415619D02*
X103973928Y-82368000D01*
X103878690Y-82320380D01*
X103640595Y-82320380D01*
X103545357Y-82368000D01*
X103497738Y-82415619D01*
X103450119Y-82510857D01*
X103450119Y-82606095D01*
X103497738Y-82748952D01*
X104069166Y-83320380D01*
X103450119Y-83320380D01*
X102259642Y-82939428D02*
X101497738Y-82939428D01*
X100354880Y-82320380D02*
X99735833Y-82320380D01*
X100069166Y-82701333D01*
X99926309Y-82701333D01*
X99831071Y-82748952D01*
X99783452Y-82796571D01*
X99735833Y-82891809D01*
X99735833Y-83129904D01*
X99783452Y-83225142D01*
X99831071Y-83272761D01*
X99926309Y-83320380D01*
X100212023Y-83320380D01*
X100307261Y-83272761D01*
X100354880Y-83225142D01*
X99307261Y-83225142D02*
X99259642Y-83272761D01*
X99307261Y-83320380D01*
X99354880Y-83272761D01*
X99307261Y-83225142D01*
X99307261Y-83320380D01*
X98926309Y-82320380D02*
X98307261Y-82320380D01*
X98640595Y-82701333D01*
X98497738Y-82701333D01*
X98402500Y-82748952D01*
X98354880Y-82796571D01*
X98307261Y-82891809D01*
X98307261Y-83129904D01*
X98354880Y-83225142D01*
X98402500Y-83272761D01*
X98497738Y-83320380D01*
X98783452Y-83320380D01*
X98878690Y-83272761D01*
X98926309Y-83225142D01*
X98021547Y-82320380D02*
X97688214Y-83320380D01*
X97354880Y-82320380D01*
X106259642Y-83970380D02*
X105640595Y-83970380D01*
X105973928Y-84351333D01*
X105831071Y-84351333D01*
X105735833Y-84398952D01*
X105688214Y-84446571D01*
X105640595Y-84541809D01*
X105640595Y-84779904D01*
X105688214Y-84875142D01*
X105735833Y-84922761D01*
X105831071Y-84970380D01*
X106116785Y-84970380D01*
X106212023Y-84922761D01*
X106259642Y-84875142D01*
X105212023Y-84589428D02*
X104450119Y-84589428D01*
X104021547Y-84065619D02*
X103973928Y-84018000D01*
X103878690Y-83970380D01*
X103640595Y-83970380D01*
X103545357Y-84018000D01*
X103497738Y-84065619D01*
X103450119Y-84160857D01*
X103450119Y-84256095D01*
X103497738Y-84398952D01*
X104069166Y-84970380D01*
X103450119Y-84970380D01*
X102259642Y-84589428D02*
X101497738Y-84589428D01*
X99735833Y-84970380D02*
X100307261Y-84970380D01*
X100021547Y-84970380D02*
X100021547Y-83970380D01*
X100116785Y-84113238D01*
X100212023Y-84208476D01*
X100307261Y-84256095D01*
X99354880Y-84065619D02*
X99307261Y-84018000D01*
X99212023Y-83970380D01*
X98973928Y-83970380D01*
X98878690Y-84018000D01*
X98831071Y-84065619D01*
X98783452Y-84160857D01*
X98783452Y-84256095D01*
X98831071Y-84398952D01*
X99402500Y-84970380D01*
X98783452Y-84970380D01*
X98497738Y-83970380D02*
X98164404Y-84970380D01*
X97831071Y-83970380D01*
X96783452Y-83922761D02*
X97640595Y-85208476D01*
X95973928Y-83970380D02*
X96450119Y-83970380D01*
X96497738Y-84446571D01*
X96450119Y-84398952D01*
X96354880Y-84351333D01*
X96116785Y-84351333D01*
X96021547Y-84398952D01*
X95973928Y-84446571D01*
X95926309Y-84541809D01*
X95926309Y-84779904D01*
X95973928Y-84875142D01*
X96021547Y-84922761D01*
X96116785Y-84970380D01*
X96354880Y-84970380D01*
X96450119Y-84922761D01*
X96497738Y-84875142D01*
X95640595Y-83970380D02*
X95307261Y-84970380D01*
X94973928Y-83970380D01*
X99473928Y-76627380D02*
X99283452Y-76627380D01*
X99188214Y-76675000D01*
X99092976Y-76770238D01*
X99045357Y-76960714D01*
X99045357Y-77294047D01*
X99092976Y-77484523D01*
X99188214Y-77579761D01*
X99283452Y-77627380D01*
X99473928Y-77627380D01*
X99569166Y-77579761D01*
X99664404Y-77484523D01*
X99712023Y-77294047D01*
X99712023Y-76960714D01*
X99664404Y-76770238D01*
X99569166Y-76675000D01*
X99473928Y-76627380D01*
X98616785Y-77246428D02*
X97854880Y-77246428D01*
X96902500Y-76627380D02*
X97378690Y-76627380D01*
X97426309Y-77103571D01*
X97378690Y-77055952D01*
X97283452Y-77008333D01*
X97045357Y-77008333D01*
X96950119Y-77055952D01*
X96902500Y-77103571D01*
X96854880Y-77198809D01*
X96854880Y-77436904D01*
X96902500Y-77532142D01*
X96950119Y-77579761D01*
X97045357Y-77627380D01*
X97283452Y-77627380D01*
X97378690Y-77579761D01*
X97426309Y-77532142D01*
X96569166Y-76627380D02*
X96235833Y-77627380D01*
X95902500Y-76627380D01*
X99092976Y-79182142D02*
X99140595Y-79229761D01*
X99283452Y-79277380D01*
X99378690Y-79277380D01*
X99521547Y-79229761D01*
X99616785Y-79134523D01*
X99664404Y-79039285D01*
X99712023Y-78848809D01*
X99712023Y-78705952D01*
X99664404Y-78515476D01*
X99616785Y-78420238D01*
X99521547Y-78325000D01*
X99378690Y-78277380D01*
X99283452Y-78277380D01*
X99140595Y-78325000D01*
X99092976Y-78372619D01*
X98664404Y-78896428D02*
X97902500Y-78896428D01*
X96902500Y-79277380D02*
X97473928Y-79277380D01*
X97188214Y-79277380D02*
X97188214Y-78277380D01*
X97283452Y-78420238D01*
X97378690Y-78515476D01*
X97473928Y-78563095D01*
X96521547Y-78372619D02*
X96473928Y-78325000D01*
X96378690Y-78277380D01*
X96140595Y-78277380D01*
X96045357Y-78325000D01*
X95997738Y-78372619D01*
X95950119Y-78467857D01*
X95950119Y-78563095D01*
X95997738Y-78705952D01*
X96569166Y-79277380D01*
X95950119Y-79277380D01*
X95664404Y-78277380D02*
X95331071Y-79277380D01*
X94997738Y-78277380D01*
X67764166Y-101952380D02*
X67764166Y-102761904D01*
X67716547Y-102857142D01*
X67668928Y-102904761D01*
X67573690Y-102952380D01*
X67383214Y-102952380D01*
X67287976Y-102904761D01*
X67240357Y-102857142D01*
X67192738Y-102761904D01*
X67192738Y-101952380D01*
X66764166Y-102904761D02*
X66621309Y-102952380D01*
X66383214Y-102952380D01*
X66287976Y-102904761D01*
X66240357Y-102857142D01*
X66192738Y-102761904D01*
X66192738Y-102666666D01*
X66240357Y-102571428D01*
X66287976Y-102523809D01*
X66383214Y-102476190D01*
X66573690Y-102428571D01*
X66668928Y-102380952D01*
X66716547Y-102333333D01*
X66764166Y-102238095D01*
X66764166Y-102142857D01*
X66716547Y-102047619D01*
X66668928Y-102000000D01*
X66573690Y-101952380D01*
X66335595Y-101952380D01*
X66192738Y-102000000D01*
X65430833Y-102428571D02*
X65287976Y-102476190D01*
X65240357Y-102523809D01*
X65192738Y-102619047D01*
X65192738Y-102761904D01*
X65240357Y-102857142D01*
X65287976Y-102904761D01*
X65383214Y-102952380D01*
X65764166Y-102952380D01*
X65764166Y-101952380D01*
X65430833Y-101952380D01*
X65335595Y-102000000D01*
X65287976Y-102047619D01*
X65240357Y-102142857D01*
X65240357Y-102238095D01*
X65287976Y-102333333D01*
X65335595Y-102380952D01*
X65430833Y-102428571D01*
X65764166Y-102428571D01*
X64002261Y-102952380D02*
X64002261Y-101952380D01*
X63621309Y-101952380D01*
X63526071Y-102000000D01*
X63478452Y-102047619D01*
X63430833Y-102142857D01*
X63430833Y-102285714D01*
X63478452Y-102380952D01*
X63526071Y-102428571D01*
X63621309Y-102476190D01*
X64002261Y-102476190D01*
X63097500Y-101952380D02*
X62859404Y-102952380D01*
X62668928Y-102238095D01*
X62478452Y-102952380D01*
X62240357Y-101952380D01*
X61287976Y-102952380D02*
X61621309Y-102476190D01*
X61859404Y-102952380D02*
X61859404Y-101952380D01*
X61478452Y-101952380D01*
X61383214Y-102000000D01*
X61335595Y-102047619D01*
X61287976Y-102142857D01*
X61287976Y-102285714D01*
X61335595Y-102380952D01*
X61383214Y-102428571D01*
X61478452Y-102476190D01*
X61859404Y-102476190D01*
X68097500Y-99452380D02*
X68097500Y-100166666D01*
X68145119Y-100309523D01*
X68240357Y-100404761D01*
X68383214Y-100452380D01*
X68478452Y-100452380D01*
X67668928Y-100166666D02*
X67192738Y-100166666D01*
X67764166Y-100452380D02*
X67430833Y-99452380D01*
X67097500Y-100452380D01*
X66192738Y-100357142D02*
X66240357Y-100404761D01*
X66383214Y-100452380D01*
X66478452Y-100452380D01*
X66621309Y-100404761D01*
X66716547Y-100309523D01*
X66764166Y-100214285D01*
X66811785Y-100023809D01*
X66811785Y-99880952D01*
X66764166Y-99690476D01*
X66716547Y-99595238D01*
X66621309Y-99500000D01*
X66478452Y-99452380D01*
X66383214Y-99452380D01*
X66240357Y-99500000D01*
X66192738Y-99547619D01*
X65764166Y-100452380D02*
X65764166Y-99452380D01*
X65192738Y-100452380D02*
X65621309Y-99880952D01*
X65192738Y-99452380D02*
X65764166Y-100023809D01*
X64002261Y-100452380D02*
X64002261Y-99452380D01*
X63621309Y-99452380D01*
X63526071Y-99500000D01*
X63478452Y-99547619D01*
X63430833Y-99642857D01*
X63430833Y-99785714D01*
X63478452Y-99880952D01*
X63526071Y-99928571D01*
X63621309Y-99976190D01*
X64002261Y-99976190D01*
X63097500Y-99452380D02*
X62859404Y-100452380D01*
X62668928Y-99738095D01*
X62478452Y-100452380D01*
X62240357Y-99452380D01*
X61287976Y-100452380D02*
X61621309Y-99976190D01*
X61859404Y-100452380D02*
X61859404Y-99452380D01*
X61478452Y-99452380D01*
X61383214Y-99500000D01*
X61335595Y-99547619D01*
X61287976Y-99642857D01*
X61287976Y-99785714D01*
X61335595Y-99880952D01*
X61383214Y-99928571D01*
X61478452Y-99976190D01*
X61859404Y-99976190D01*
X55392857Y-90728571D02*
X56107142Y-90728571D01*
X56178571Y-91442857D01*
X56107142Y-91371428D01*
X55964285Y-91300000D01*
X55607142Y-91300000D01*
X55464285Y-91371428D01*
X55392857Y-91442857D01*
X55321428Y-91585714D01*
X55321428Y-91942857D01*
X55392857Y-92085714D01*
X55464285Y-92157142D01*
X55607142Y-92228571D01*
X55964285Y-92228571D01*
X56107142Y-92157142D01*
X56178571Y-92085714D01*
X54678571Y-91657142D02*
X53535714Y-91657142D01*
X52892857Y-90871428D02*
X52821428Y-90800000D01*
X52678571Y-90728571D01*
X52321428Y-90728571D01*
X52178571Y-90800000D01*
X52107142Y-90871428D01*
X52035714Y-91014285D01*
X52035714Y-91157142D01*
X52107142Y-91371428D01*
X52964285Y-92228571D01*
X52035714Y-92228571D01*
X50750000Y-91228571D02*
X50750000Y-92228571D01*
X51107142Y-90657142D02*
X51464285Y-91728571D01*
X50535714Y-91728571D01*
X50178571Y-90728571D02*
X49678571Y-92228571D01*
X49178571Y-90728571D01*
X55964285Y-94628571D02*
X55964285Y-93128571D01*
X55607142Y-93128571D01*
X55392857Y-93200000D01*
X55250000Y-93342857D01*
X55178571Y-93485714D01*
X55107142Y-93771428D01*
X55107142Y-93985714D01*
X55178571Y-94271428D01*
X55250000Y-94414285D01*
X55392857Y-94557142D01*
X55607142Y-94628571D01*
X55964285Y-94628571D01*
X53607142Y-94485714D02*
X53678571Y-94557142D01*
X53892857Y-94628571D01*
X54035714Y-94628571D01*
X54250000Y-94557142D01*
X54392857Y-94414285D01*
X54464285Y-94271428D01*
X54535714Y-93985714D01*
X54535714Y-93771428D01*
X54464285Y-93485714D01*
X54392857Y-93342857D01*
X54250000Y-93200000D01*
X54035714Y-93128571D01*
X53892857Y-93128571D01*
X53678571Y-93200000D01*
X53607142Y-93271428D01*
X52964285Y-94057142D02*
X51821428Y-94057142D01*
X51107142Y-94628571D02*
X51107142Y-93128571D01*
X50392857Y-94628571D02*
X50392857Y-93128571D01*
X49535714Y-94628571D01*
X49535714Y-93128571D01*
D12*
%TO.C,JP4*%
X93200000Y-79400000D02*
X93800000Y-79400000D01*
X92500000Y-77300000D02*
X92500000Y-78700000D01*
X93800000Y-76600000D02*
X93200000Y-76600000D01*
X94500000Y-78700000D02*
X94500000Y-77300000D01*
X93800000Y-79400000D02*
G75*
G03*
X94500000Y-78700000I0J700000D01*
G01*
X92500000Y-78700000D02*
G75*
G03*
X93200000Y-79400000I700000J0D01*
G01*
X93200000Y-76600000D02*
G75*
G03*
X92500000Y-77300000I0J-700000D01*
G01*
X94500000Y-77300000D02*
G75*
G03*
X93800000Y-76600000I-700000J0D01*
G01*
%TO.C,JP3*%
X94500000Y-86650000D02*
X94500000Y-83850000D01*
X93800000Y-83200000D02*
X93200000Y-83200000D01*
X92500000Y-83850000D02*
X92500000Y-86650000D01*
X93200000Y-87300000D02*
X93800000Y-87300000D01*
X92300000Y-86450000D02*
X92000000Y-86750000D01*
X92000000Y-86750000D02*
X92000000Y-86150000D01*
X92300000Y-86450000D02*
X92000000Y-86150000D01*
X94500000Y-83900000D02*
G75*
G03*
X93800000Y-83200000I-700000J0D01*
G01*
X93200000Y-83200000D02*
G75*
G03*
X92500000Y-83900000I0J-700000D01*
G01*
X92500000Y-86600000D02*
G75*
G03*
X93200000Y-87300000I700000J0D01*
G01*
X93800000Y-87300000D02*
G75*
G03*
X94500000Y-86600000I0J700000D01*
G01*
%TO.C,JP5*%
X83000000Y-84200000D02*
X83000000Y-82800000D01*
X82300000Y-82100000D02*
X81700000Y-82100000D01*
X81000000Y-82800000D02*
X81000000Y-84200000D01*
X81700000Y-84900000D02*
X82300000Y-84900000D01*
X82300000Y-84900000D02*
G75*
G03*
X83000000Y-84200000I0J700000D01*
G01*
X81000000Y-84200000D02*
G75*
G03*
X81700000Y-84900000I700000J0D01*
G01*
X81700000Y-82100000D02*
G75*
G03*
X81000000Y-82800000I0J-700000D01*
G01*
X83000000Y-82800000D02*
G75*
G03*
X82300000Y-82100000I-700000J0D01*
G01*
%TO.C,JP2*%
X145450000Y-123200000D02*
X145150000Y-123500000D01*
X145750000Y-123500000D02*
X145150000Y-123500000D01*
X145450000Y-123200000D02*
X145750000Y-123500000D01*
X146300000Y-122300000D02*
X146300000Y-121700000D01*
X142850000Y-123000000D02*
X145650000Y-123000000D01*
X142200000Y-121700000D02*
X142200000Y-122300000D01*
X145650000Y-121000000D02*
X142850000Y-121000000D01*
X142900000Y-121000000D02*
G75*
G03*
X142200000Y-121700000I0J-700000D01*
G01*
X142200000Y-122300000D02*
G75*
G03*
X142900000Y-123000000I700000J0D01*
G01*
X145600000Y-123000000D02*
G75*
G03*
X146300000Y-122300000I0J700000D01*
G01*
X146300000Y-121700000D02*
G75*
G03*
X145600000Y-121000000I-700000J0D01*
G01*
%TO.C,JP1*%
X140450000Y-123200000D02*
X140150000Y-123500000D01*
X140750000Y-123500000D02*
X140150000Y-123500000D01*
X140450000Y-123200000D02*
X140750000Y-123500000D01*
X141300000Y-122300000D02*
X141300000Y-121700000D01*
X137850000Y-123000000D02*
X140650000Y-123000000D01*
X137200000Y-121700000D02*
X137200000Y-122300000D01*
X140650000Y-121000000D02*
X137850000Y-121000000D01*
X137900000Y-121000000D02*
G75*
G03*
X137200000Y-121700000I0J-700000D01*
G01*
X137200000Y-122300000D02*
G75*
G03*
X137900000Y-123000000I700000J0D01*
G01*
X140600000Y-123000000D02*
G75*
G03*
X141300000Y-122300000I0J700000D01*
G01*
X141300000Y-121700000D02*
G75*
G03*
X140600000Y-121000000I-700000J0D01*
G01*
%TO.C,U10*%
X84740000Y-108030000D02*
X84740000Y-118430000D01*
X74460000Y-118430000D02*
X74460000Y-108030000D01*
X84740000Y-118430000D02*
X74460000Y-118430000D01*
X74460000Y-108030000D02*
X84740000Y-108030000D01*
X77040000Y-113230000D02*
X77040000Y-111280000D01*
X77040000Y-113230000D02*
X77040000Y-115180000D01*
X82160000Y-113230000D02*
X82160000Y-111280000D01*
X82160000Y-113230000D02*
X82160000Y-116680000D01*
D13*
%TO.C,REF\u002A\u002A*%
X52950000Y-96250000D02*
G75*
G03*
X52950000Y-96250000I-200000J0D01*
G01*
D10*
X50750000Y-96250000D02*
G75*
G03*
X50750000Y-96250000I-1000000J0D01*
G01*
X56750000Y-96250000D02*
G75*
G03*
X56750000Y-96250000I-1000000J0D01*
G01*
X54750000Y-96250000D02*
X53750000Y-96250000D01*
X52750000Y-96250000D02*
X50750000Y-96250000D01*
D11*
X50250000Y-96250000D02*
X49250000Y-96250000D01*
X49750000Y-95750000D02*
X49750000Y-96750000D01*
X56250000Y-96250000D02*
X55250000Y-96250000D01*
D10*
X52042893Y-96957107D02*
G75*
G03*
X52042893Y-95542893I707107J707107D01*
G01*
%TO.C,JP4*%
X91202380Y-77166666D02*
X91916666Y-77166666D01*
X92059523Y-77119047D01*
X92154761Y-77023809D01*
X92202380Y-76880952D01*
X92202380Y-76785714D01*
X92202380Y-77642857D02*
X91202380Y-77642857D01*
X91202380Y-78023809D01*
X91250000Y-78119047D01*
X91297619Y-78166666D01*
X91392857Y-78214285D01*
X91535714Y-78214285D01*
X91630952Y-78166666D01*
X91678571Y-78119047D01*
X91726190Y-78023809D01*
X91726190Y-77642857D01*
X91535714Y-79071428D02*
X92202380Y-79071428D01*
X91154761Y-78833333D02*
X91869047Y-78595238D01*
X91869047Y-79214285D01*
%TO.C,JP3*%
X91202380Y-83666666D02*
X91916666Y-83666666D01*
X92059523Y-83619047D01*
X92154761Y-83523809D01*
X92202380Y-83380952D01*
X92202380Y-83285714D01*
X92202380Y-84142857D02*
X91202380Y-84142857D01*
X91202380Y-84523809D01*
X91250000Y-84619047D01*
X91297619Y-84666666D01*
X91392857Y-84714285D01*
X91535714Y-84714285D01*
X91630952Y-84666666D01*
X91678571Y-84619047D01*
X91726190Y-84523809D01*
X91726190Y-84142857D01*
X91202380Y-85047619D02*
X91202380Y-85666666D01*
X91583333Y-85333333D01*
X91583333Y-85476190D01*
X91630952Y-85571428D01*
X91678571Y-85619047D01*
X91773809Y-85666666D01*
X92011904Y-85666666D01*
X92107142Y-85619047D01*
X92154761Y-85571428D01*
X92202380Y-85476190D01*
X92202380Y-85190476D01*
X92154761Y-85095238D01*
X92107142Y-85047619D01*
%TO.C,JP5*%
X79702380Y-82666666D02*
X80416666Y-82666666D01*
X80559523Y-82619047D01*
X80654761Y-82523809D01*
X80702380Y-82380952D01*
X80702380Y-82285714D01*
X80702380Y-83142857D02*
X79702380Y-83142857D01*
X79702380Y-83523809D01*
X79750000Y-83619047D01*
X79797619Y-83666666D01*
X79892857Y-83714285D01*
X80035714Y-83714285D01*
X80130952Y-83666666D01*
X80178571Y-83619047D01*
X80226190Y-83523809D01*
X80226190Y-83142857D01*
X79702380Y-84619047D02*
X79702380Y-84142857D01*
X80178571Y-84095238D01*
X80130952Y-84142857D01*
X80083333Y-84238095D01*
X80083333Y-84476190D01*
X80130952Y-84571428D01*
X80178571Y-84619047D01*
X80273809Y-84666666D01*
X80511904Y-84666666D01*
X80607142Y-84619047D01*
X80654761Y-84571428D01*
X80702380Y-84476190D01*
X80702380Y-84238095D01*
X80654761Y-84142857D01*
X80607142Y-84095238D01*
%TO.C,JP2*%
X144333333Y-123202380D02*
X144333333Y-123916666D01*
X144380952Y-124059523D01*
X144476190Y-124154761D01*
X144619047Y-124202380D01*
X144714285Y-124202380D01*
X143857142Y-124202380D02*
X143857142Y-123202380D01*
X143476190Y-123202380D01*
X143380952Y-123250000D01*
X143333333Y-123297619D01*
X143285714Y-123392857D01*
X143285714Y-123535714D01*
X143333333Y-123630952D01*
X143380952Y-123678571D01*
X143476190Y-123726190D01*
X143857142Y-123726190D01*
X142904761Y-123297619D02*
X142857142Y-123250000D01*
X142761904Y-123202380D01*
X142523809Y-123202380D01*
X142428571Y-123250000D01*
X142380952Y-123297619D01*
X142333333Y-123392857D01*
X142333333Y-123488095D01*
X142380952Y-123630952D01*
X142952380Y-124202380D01*
X142333333Y-124202380D01*
%TO.C,JP1*%
X139083333Y-123202380D02*
X139083333Y-123916666D01*
X139130952Y-124059523D01*
X139226190Y-124154761D01*
X139369047Y-124202380D01*
X139464285Y-124202380D01*
X138607142Y-124202380D02*
X138607142Y-123202380D01*
X138226190Y-123202380D01*
X138130952Y-123250000D01*
X138083333Y-123297619D01*
X138035714Y-123392857D01*
X138035714Y-123535714D01*
X138083333Y-123630952D01*
X138130952Y-123678571D01*
X138226190Y-123726190D01*
X138607142Y-123726190D01*
X137083333Y-124202380D02*
X137654761Y-124202380D01*
X137369047Y-124202380D02*
X137369047Y-123202380D01*
X137464285Y-123345238D01*
X137559523Y-123440476D01*
X137654761Y-123488095D01*
%TO.C,J9*%
X66083333Y-77702380D02*
X66083333Y-78416666D01*
X66130952Y-78559523D01*
X66226190Y-78654761D01*
X66369047Y-78702380D01*
X66464285Y-78702380D01*
X65559523Y-78702380D02*
X65369047Y-78702380D01*
X65273809Y-78654761D01*
X65226190Y-78607142D01*
X65130952Y-78464285D01*
X65083333Y-78273809D01*
X65083333Y-77892857D01*
X65130952Y-77797619D01*
X65178571Y-77750000D01*
X65273809Y-77702380D01*
X65464285Y-77702380D01*
X65559523Y-77750000D01*
X65607142Y-77797619D01*
X65654761Y-77892857D01*
X65654761Y-78130952D01*
X65607142Y-78226190D01*
X65559523Y-78273809D01*
X65464285Y-78321428D01*
X65273809Y-78321428D01*
X65178571Y-78273809D01*
X65130952Y-78226190D01*
X65083333Y-78130952D01*
%TO.C,U10*%
X80838095Y-108302380D02*
X80838095Y-109111904D01*
X80790476Y-109207142D01*
X80742857Y-109254761D01*
X80647619Y-109302380D01*
X80457142Y-109302380D01*
X80361904Y-109254761D01*
X80314285Y-109207142D01*
X80266666Y-109111904D01*
X80266666Y-108302380D01*
X79266666Y-109302380D02*
X79838095Y-109302380D01*
X79552380Y-109302380D02*
X79552380Y-108302380D01*
X79647619Y-108445238D01*
X79742857Y-108540476D01*
X79838095Y-108588095D01*
X78647619Y-108302380D02*
X78552380Y-108302380D01*
X78457142Y-108350000D01*
X78409523Y-108397619D01*
X78361904Y-108492857D01*
X78314285Y-108683333D01*
X78314285Y-108921428D01*
X78361904Y-109111904D01*
X78409523Y-109207142D01*
X78457142Y-109254761D01*
X78552380Y-109302380D01*
X78647619Y-109302380D01*
X78742857Y-109254761D01*
X78790476Y-109207142D01*
X78838095Y-109111904D01*
X78885714Y-108921428D01*
X78885714Y-108683333D01*
X78838095Y-108492857D01*
X78790476Y-108397619D01*
X78742857Y-108350000D01*
X78647619Y-108302380D01*
%TD*%
%LPC*%
D14*
%TO.C,JP4*%
G36*
X92750000Y-77750000D02*
G01*
X92750000Y-78250000D01*
X94250000Y-78250000D01*
X94250000Y-77750000D01*
X92750000Y-77750000D01*
G37*
%TO.C,JP3*%
G36*
X94250000Y-86250000D02*
G01*
X94250000Y-84250000D01*
X92750000Y-84250000D01*
X92750000Y-86250000D01*
X94250000Y-86250000D01*
G37*
%TO.C,JP5*%
G36*
X82750000Y-83750000D02*
G01*
X82750000Y-83250000D01*
X81250000Y-83250000D01*
X81250000Y-83750000D01*
X82750000Y-83750000D01*
G37*
%TO.C,JP2*%
G36*
X145250000Y-121250000D02*
G01*
X143250000Y-121250000D01*
X143250000Y-122750000D01*
X145250000Y-122750000D01*
X145250000Y-121250000D01*
G37*
%TO.C,JP1*%
G36*
X140250000Y-121250000D02*
G01*
X138250000Y-121250000D01*
X138250000Y-122750000D01*
X140250000Y-122750000D01*
X140250000Y-121250000D01*
G37*
%TD*%
%TO.C,JP4*%
G36*
X92700602Y-77343889D02*
G01*
X92700602Y-77325466D01*
X92700843Y-77320565D01*
X92705653Y-77271734D01*
X92706373Y-77266881D01*
X92715945Y-77218756D01*
X92717137Y-77213995D01*
X92731381Y-77167040D01*
X92733034Y-77162421D01*
X92751811Y-77117088D01*
X92753909Y-77112651D01*
X92777040Y-77069378D01*
X92779562Y-77065171D01*
X92806822Y-77024372D01*
X92809746Y-77020430D01*
X92840874Y-76982501D01*
X92844169Y-76978866D01*
X92878866Y-76944169D01*
X92882501Y-76940874D01*
X92920430Y-76909746D01*
X92924372Y-76906822D01*
X92965171Y-76879562D01*
X92969378Y-76877040D01*
X93012651Y-76853909D01*
X93017088Y-76851811D01*
X93062421Y-76833034D01*
X93067040Y-76831381D01*
X93113995Y-76817137D01*
X93118756Y-76815945D01*
X93166881Y-76806373D01*
X93171734Y-76805653D01*
X93220565Y-76800843D01*
X93225466Y-76800602D01*
X93243889Y-76800602D01*
X93250000Y-76800000D01*
X93750000Y-76800000D01*
X93756111Y-76800602D01*
X93774534Y-76800602D01*
X93779435Y-76800843D01*
X93828266Y-76805653D01*
X93833119Y-76806373D01*
X93881244Y-76815945D01*
X93886005Y-76817137D01*
X93932960Y-76831381D01*
X93937579Y-76833034D01*
X93982912Y-76851811D01*
X93987349Y-76853909D01*
X94030622Y-76877040D01*
X94034829Y-76879562D01*
X94075628Y-76906822D01*
X94079570Y-76909746D01*
X94117499Y-76940874D01*
X94121134Y-76944169D01*
X94155831Y-76978866D01*
X94159126Y-76982501D01*
X94190254Y-77020430D01*
X94193178Y-77024372D01*
X94220438Y-77065171D01*
X94222960Y-77069378D01*
X94246091Y-77112651D01*
X94248189Y-77117088D01*
X94266966Y-77162421D01*
X94268619Y-77167040D01*
X94282863Y-77213995D01*
X94284055Y-77218756D01*
X94293627Y-77266881D01*
X94294347Y-77271734D01*
X94299157Y-77320565D01*
X94299398Y-77325466D01*
X94299398Y-77343889D01*
X94300000Y-77350000D01*
X94300000Y-77850000D01*
X94299039Y-77859755D01*
X94296194Y-77869134D01*
X94291573Y-77877779D01*
X94285355Y-77885355D01*
X94277779Y-77891573D01*
X94269134Y-77896194D01*
X94259755Y-77899039D01*
X94250000Y-77900000D01*
X92750000Y-77900000D01*
X92740245Y-77899039D01*
X92730866Y-77896194D01*
X92722221Y-77891573D01*
X92714645Y-77885355D01*
X92708427Y-77877779D01*
X92703806Y-77869134D01*
X92700961Y-77859755D01*
X92700000Y-77850000D01*
X92700000Y-77350000D01*
X92700602Y-77343889D01*
G37*
G36*
X92700961Y-78140245D02*
G01*
X92703806Y-78130866D01*
X92708427Y-78122221D01*
X92714645Y-78114645D01*
X92722221Y-78108427D01*
X92730866Y-78103806D01*
X92740245Y-78100961D01*
X92750000Y-78100000D01*
X94250000Y-78100000D01*
X94259755Y-78100961D01*
X94269134Y-78103806D01*
X94277779Y-78108427D01*
X94285355Y-78114645D01*
X94291573Y-78122221D01*
X94296194Y-78130866D01*
X94299039Y-78140245D01*
X94300000Y-78150000D01*
X94300000Y-78650000D01*
X94299398Y-78656111D01*
X94299398Y-78674534D01*
X94299157Y-78679435D01*
X94294347Y-78728266D01*
X94293627Y-78733119D01*
X94284055Y-78781244D01*
X94282863Y-78786005D01*
X94268619Y-78832960D01*
X94266966Y-78837579D01*
X94248189Y-78882912D01*
X94246091Y-78887349D01*
X94222960Y-78930622D01*
X94220438Y-78934829D01*
X94193178Y-78975628D01*
X94190254Y-78979570D01*
X94159126Y-79017499D01*
X94155831Y-79021134D01*
X94121134Y-79055831D01*
X94117499Y-79059126D01*
X94079570Y-79090254D01*
X94075628Y-79093178D01*
X94034829Y-79120438D01*
X94030622Y-79122960D01*
X93987349Y-79146091D01*
X93982912Y-79148189D01*
X93937579Y-79166966D01*
X93932960Y-79168619D01*
X93886005Y-79182863D01*
X93881244Y-79184055D01*
X93833119Y-79193627D01*
X93828266Y-79194347D01*
X93779435Y-79199157D01*
X93774534Y-79199398D01*
X93756111Y-79199398D01*
X93750000Y-79200000D01*
X93250000Y-79200000D01*
X93243889Y-79199398D01*
X93225466Y-79199398D01*
X93220565Y-79199157D01*
X93171734Y-79194347D01*
X93166881Y-79193627D01*
X93118756Y-79184055D01*
X93113995Y-79182863D01*
X93067040Y-79168619D01*
X93062421Y-79166966D01*
X93017088Y-79148189D01*
X93012651Y-79146091D01*
X92969378Y-79122960D01*
X92965171Y-79120438D01*
X92924372Y-79093178D01*
X92920430Y-79090254D01*
X92882501Y-79059126D01*
X92878866Y-79055831D01*
X92844169Y-79021134D01*
X92840874Y-79017499D01*
X92809746Y-78979570D01*
X92806822Y-78975628D01*
X92779562Y-78934829D01*
X92777040Y-78930622D01*
X92753909Y-78887349D01*
X92751811Y-78882912D01*
X92733034Y-78837579D01*
X92731381Y-78832960D01*
X92717137Y-78786005D01*
X92715945Y-78781244D01*
X92706373Y-78733119D01*
X92705653Y-78728266D01*
X92700843Y-78679435D01*
X92700602Y-78674534D01*
X92700602Y-78656111D01*
X92700000Y-78650000D01*
X92700000Y-78150000D01*
X92700961Y-78140245D01*
G37*
%TD*%
%TO.C,JP3*%
G36*
X92700602Y-83943889D02*
G01*
X92700602Y-83925466D01*
X92700843Y-83920565D01*
X92705653Y-83871734D01*
X92706373Y-83866881D01*
X92715945Y-83818756D01*
X92717137Y-83813995D01*
X92731381Y-83767040D01*
X92733034Y-83762421D01*
X92751811Y-83717088D01*
X92753909Y-83712651D01*
X92777040Y-83669378D01*
X92779562Y-83665171D01*
X92806822Y-83624372D01*
X92809746Y-83620430D01*
X92840874Y-83582501D01*
X92844169Y-83578866D01*
X92878866Y-83544169D01*
X92882501Y-83540874D01*
X92920430Y-83509746D01*
X92924372Y-83506822D01*
X92965171Y-83479562D01*
X92969378Y-83477040D01*
X93012651Y-83453909D01*
X93017088Y-83451811D01*
X93062421Y-83433034D01*
X93067040Y-83431381D01*
X93113995Y-83417137D01*
X93118756Y-83415945D01*
X93166881Y-83406373D01*
X93171734Y-83405653D01*
X93220565Y-83400843D01*
X93225466Y-83400602D01*
X93243889Y-83400602D01*
X93250000Y-83400000D01*
X93750000Y-83400000D01*
X93756111Y-83400602D01*
X93774534Y-83400602D01*
X93779435Y-83400843D01*
X93828266Y-83405653D01*
X93833119Y-83406373D01*
X93881244Y-83415945D01*
X93886005Y-83417137D01*
X93932960Y-83431381D01*
X93937579Y-83433034D01*
X93982912Y-83451811D01*
X93987349Y-83453909D01*
X94030622Y-83477040D01*
X94034829Y-83479562D01*
X94075628Y-83506822D01*
X94079570Y-83509746D01*
X94117499Y-83540874D01*
X94121134Y-83544169D01*
X94155831Y-83578866D01*
X94159126Y-83582501D01*
X94190254Y-83620430D01*
X94193178Y-83624372D01*
X94220438Y-83665171D01*
X94222960Y-83669378D01*
X94246091Y-83712651D01*
X94248189Y-83717088D01*
X94266966Y-83762421D01*
X94268619Y-83767040D01*
X94282863Y-83813995D01*
X94284055Y-83818756D01*
X94293627Y-83866881D01*
X94294347Y-83871734D01*
X94299157Y-83920565D01*
X94299398Y-83925466D01*
X94299398Y-83943889D01*
X94300000Y-83950000D01*
X94300000Y-84500000D01*
X94299039Y-84509755D01*
X94296194Y-84519134D01*
X94291573Y-84527779D01*
X94285355Y-84535355D01*
X94277779Y-84541573D01*
X94269134Y-84546194D01*
X94259755Y-84549039D01*
X94250000Y-84550000D01*
X92750000Y-84550000D01*
X92740245Y-84549039D01*
X92730866Y-84546194D01*
X92722221Y-84541573D01*
X92714645Y-84535355D01*
X92708427Y-84527779D01*
X92703806Y-84519134D01*
X92700961Y-84509755D01*
X92700000Y-84500000D01*
X92700000Y-83950000D01*
X92700602Y-83943889D01*
G37*
G36*
G01*
X94250000Y-85800000D02*
X92750000Y-85800000D01*
G75*
G02*
X92700000Y-85750000I0J50000D01*
G01*
X92700000Y-84750000D01*
G75*
G02*
X92750000Y-84700000I50000J0D01*
G01*
X94250000Y-84700000D01*
G75*
G02*
X94300000Y-84750000I0J-50000D01*
G01*
X94300000Y-85750000D01*
G75*
G02*
X94250000Y-85800000I-50000J0D01*
G01*
G37*
G36*
X92700961Y-85990245D02*
G01*
X92703806Y-85980866D01*
X92708427Y-85972221D01*
X92714645Y-85964645D01*
X92722221Y-85958427D01*
X92730866Y-85953806D01*
X92740245Y-85950961D01*
X92750000Y-85950000D01*
X94250000Y-85950000D01*
X94259755Y-85950961D01*
X94269134Y-85953806D01*
X94277779Y-85958427D01*
X94285355Y-85964645D01*
X94291573Y-85972221D01*
X94296194Y-85980866D01*
X94299039Y-85990245D01*
X94300000Y-86000000D01*
X94300000Y-86550000D01*
X94299398Y-86556111D01*
X94299398Y-86574534D01*
X94299157Y-86579435D01*
X94294347Y-86628266D01*
X94293627Y-86633119D01*
X94284055Y-86681244D01*
X94282863Y-86686005D01*
X94268619Y-86732960D01*
X94266966Y-86737579D01*
X94248189Y-86782912D01*
X94246091Y-86787349D01*
X94222960Y-86830622D01*
X94220438Y-86834829D01*
X94193178Y-86875628D01*
X94190254Y-86879570D01*
X94159126Y-86917499D01*
X94155831Y-86921134D01*
X94121134Y-86955831D01*
X94117499Y-86959126D01*
X94079570Y-86990254D01*
X94075628Y-86993178D01*
X94034829Y-87020438D01*
X94030622Y-87022960D01*
X93987349Y-87046091D01*
X93982912Y-87048189D01*
X93937579Y-87066966D01*
X93932960Y-87068619D01*
X93886005Y-87082863D01*
X93881244Y-87084055D01*
X93833119Y-87093627D01*
X93828266Y-87094347D01*
X93779435Y-87099157D01*
X93774534Y-87099398D01*
X93756111Y-87099398D01*
X93750000Y-87100000D01*
X93250000Y-87100000D01*
X93243889Y-87099398D01*
X93225466Y-87099398D01*
X93220565Y-87099157D01*
X93171734Y-87094347D01*
X93166881Y-87093627D01*
X93118756Y-87084055D01*
X93113995Y-87082863D01*
X93067040Y-87068619D01*
X93062421Y-87066966D01*
X93017088Y-87048189D01*
X93012651Y-87046091D01*
X92969378Y-87022960D01*
X92965171Y-87020438D01*
X92924372Y-86993178D01*
X92920430Y-86990254D01*
X92882501Y-86959126D01*
X92878866Y-86955831D01*
X92844169Y-86921134D01*
X92840874Y-86917499D01*
X92809746Y-86879570D01*
X92806822Y-86875628D01*
X92779562Y-86834829D01*
X92777040Y-86830622D01*
X92753909Y-86787349D01*
X92751811Y-86782912D01*
X92733034Y-86737579D01*
X92731381Y-86732960D01*
X92717137Y-86686005D01*
X92715945Y-86681244D01*
X92706373Y-86633119D01*
X92705653Y-86628266D01*
X92700843Y-86579435D01*
X92700602Y-86574534D01*
X92700602Y-86556111D01*
X92700000Y-86550000D01*
X92700000Y-86000000D01*
X92700961Y-85990245D01*
G37*
%TD*%
%TO.C,JP5*%
G36*
X81200961Y-83640245D02*
G01*
X81203806Y-83630866D01*
X81208427Y-83622221D01*
X81214645Y-83614645D01*
X81222221Y-83608427D01*
X81230866Y-83603806D01*
X81240245Y-83600961D01*
X81250000Y-83600000D01*
X82750000Y-83600000D01*
X82759755Y-83600961D01*
X82769134Y-83603806D01*
X82777779Y-83608427D01*
X82785355Y-83614645D01*
X82791573Y-83622221D01*
X82796194Y-83630866D01*
X82799039Y-83640245D01*
X82800000Y-83650000D01*
X82800000Y-84150000D01*
X82799398Y-84156111D01*
X82799398Y-84174534D01*
X82799157Y-84179435D01*
X82794347Y-84228266D01*
X82793627Y-84233119D01*
X82784055Y-84281244D01*
X82782863Y-84286005D01*
X82768619Y-84332960D01*
X82766966Y-84337579D01*
X82748189Y-84382912D01*
X82746091Y-84387349D01*
X82722960Y-84430622D01*
X82720438Y-84434829D01*
X82693178Y-84475628D01*
X82690254Y-84479570D01*
X82659126Y-84517499D01*
X82655831Y-84521134D01*
X82621134Y-84555831D01*
X82617499Y-84559126D01*
X82579570Y-84590254D01*
X82575628Y-84593178D01*
X82534829Y-84620438D01*
X82530622Y-84622960D01*
X82487349Y-84646091D01*
X82482912Y-84648189D01*
X82437579Y-84666966D01*
X82432960Y-84668619D01*
X82386005Y-84682863D01*
X82381244Y-84684055D01*
X82333119Y-84693627D01*
X82328266Y-84694347D01*
X82279435Y-84699157D01*
X82274534Y-84699398D01*
X82256111Y-84699398D01*
X82250000Y-84700000D01*
X81750000Y-84700000D01*
X81743889Y-84699398D01*
X81725466Y-84699398D01*
X81720565Y-84699157D01*
X81671734Y-84694347D01*
X81666881Y-84693627D01*
X81618756Y-84684055D01*
X81613995Y-84682863D01*
X81567040Y-84668619D01*
X81562421Y-84666966D01*
X81517088Y-84648189D01*
X81512651Y-84646091D01*
X81469378Y-84622960D01*
X81465171Y-84620438D01*
X81424372Y-84593178D01*
X81420430Y-84590254D01*
X81382501Y-84559126D01*
X81378866Y-84555831D01*
X81344169Y-84521134D01*
X81340874Y-84517499D01*
X81309746Y-84479570D01*
X81306822Y-84475628D01*
X81279562Y-84434829D01*
X81277040Y-84430622D01*
X81253909Y-84387349D01*
X81251811Y-84382912D01*
X81233034Y-84337579D01*
X81231381Y-84332960D01*
X81217137Y-84286005D01*
X81215945Y-84281244D01*
X81206373Y-84233119D01*
X81205653Y-84228266D01*
X81200843Y-84179435D01*
X81200602Y-84174534D01*
X81200602Y-84156111D01*
X81200000Y-84150000D01*
X81200000Y-83650000D01*
X81200961Y-83640245D01*
G37*
G36*
X81200602Y-82843889D02*
G01*
X81200602Y-82825466D01*
X81200843Y-82820565D01*
X81205653Y-82771734D01*
X81206373Y-82766881D01*
X81215945Y-82718756D01*
X81217137Y-82713995D01*
X81231381Y-82667040D01*
X81233034Y-82662421D01*
X81251811Y-82617088D01*
X81253909Y-82612651D01*
X81277040Y-82569378D01*
X81279562Y-82565171D01*
X81306822Y-82524372D01*
X81309746Y-82520430D01*
X81340874Y-82482501D01*
X81344169Y-82478866D01*
X81378866Y-82444169D01*
X81382501Y-82440874D01*
X81420430Y-82409746D01*
X81424372Y-82406822D01*
X81465171Y-82379562D01*
X81469378Y-82377040D01*
X81512651Y-82353909D01*
X81517088Y-82351811D01*
X81562421Y-82333034D01*
X81567040Y-82331381D01*
X81613995Y-82317137D01*
X81618756Y-82315945D01*
X81666881Y-82306373D01*
X81671734Y-82305653D01*
X81720565Y-82300843D01*
X81725466Y-82300602D01*
X81743889Y-82300602D01*
X81750000Y-82300000D01*
X82250000Y-82300000D01*
X82256111Y-82300602D01*
X82274534Y-82300602D01*
X82279435Y-82300843D01*
X82328266Y-82305653D01*
X82333119Y-82306373D01*
X82381244Y-82315945D01*
X82386005Y-82317137D01*
X82432960Y-82331381D01*
X82437579Y-82333034D01*
X82482912Y-82351811D01*
X82487349Y-82353909D01*
X82530622Y-82377040D01*
X82534829Y-82379562D01*
X82575628Y-82406822D01*
X82579570Y-82409746D01*
X82617499Y-82440874D01*
X82621134Y-82444169D01*
X82655831Y-82478866D01*
X82659126Y-82482501D01*
X82690254Y-82520430D01*
X82693178Y-82524372D01*
X82720438Y-82565171D01*
X82722960Y-82569378D01*
X82746091Y-82612651D01*
X82748189Y-82617088D01*
X82766966Y-82662421D01*
X82768619Y-82667040D01*
X82782863Y-82713995D01*
X82784055Y-82718756D01*
X82793627Y-82766881D01*
X82794347Y-82771734D01*
X82799157Y-82820565D01*
X82799398Y-82825466D01*
X82799398Y-82843889D01*
X82800000Y-82850000D01*
X82800000Y-83350000D01*
X82799039Y-83359755D01*
X82796194Y-83369134D01*
X82791573Y-83377779D01*
X82785355Y-83385355D01*
X82777779Y-83391573D01*
X82769134Y-83396194D01*
X82759755Y-83399039D01*
X82750000Y-83400000D01*
X81250000Y-83400000D01*
X81240245Y-83399039D01*
X81230866Y-83396194D01*
X81222221Y-83391573D01*
X81214645Y-83385355D01*
X81208427Y-83377779D01*
X81203806Y-83369134D01*
X81200961Y-83359755D01*
X81200000Y-83350000D01*
X81200000Y-82850000D01*
X81200602Y-82843889D01*
G37*
%TD*%
%TO.C,JP2*%
G36*
X142943889Y-122799398D02*
G01*
X142925466Y-122799398D01*
X142920565Y-122799157D01*
X142871734Y-122794347D01*
X142866881Y-122793627D01*
X142818756Y-122784055D01*
X142813995Y-122782863D01*
X142767040Y-122768619D01*
X142762421Y-122766966D01*
X142717088Y-122748189D01*
X142712651Y-122746091D01*
X142669378Y-122722960D01*
X142665171Y-122720438D01*
X142624372Y-122693178D01*
X142620430Y-122690254D01*
X142582501Y-122659126D01*
X142578866Y-122655831D01*
X142544169Y-122621134D01*
X142540874Y-122617499D01*
X142509746Y-122579570D01*
X142506822Y-122575628D01*
X142479562Y-122534829D01*
X142477040Y-122530622D01*
X142453909Y-122487349D01*
X142451811Y-122482912D01*
X142433034Y-122437579D01*
X142431381Y-122432960D01*
X142417137Y-122386005D01*
X142415945Y-122381244D01*
X142406373Y-122333119D01*
X142405653Y-122328266D01*
X142400843Y-122279435D01*
X142400602Y-122274534D01*
X142400602Y-122256111D01*
X142400000Y-122250000D01*
X142400000Y-121750000D01*
X142400602Y-121743889D01*
X142400602Y-121725466D01*
X142400843Y-121720565D01*
X142405653Y-121671734D01*
X142406373Y-121666881D01*
X142415945Y-121618756D01*
X142417137Y-121613995D01*
X142431381Y-121567040D01*
X142433034Y-121562421D01*
X142451811Y-121517088D01*
X142453909Y-121512651D01*
X142477040Y-121469378D01*
X142479562Y-121465171D01*
X142506822Y-121424372D01*
X142509746Y-121420430D01*
X142540874Y-121382501D01*
X142544169Y-121378866D01*
X142578866Y-121344169D01*
X142582501Y-121340874D01*
X142620430Y-121309746D01*
X142624372Y-121306822D01*
X142665171Y-121279562D01*
X142669378Y-121277040D01*
X142712651Y-121253909D01*
X142717088Y-121251811D01*
X142762421Y-121233034D01*
X142767040Y-121231381D01*
X142813995Y-121217137D01*
X142818756Y-121215945D01*
X142866881Y-121206373D01*
X142871734Y-121205653D01*
X142920565Y-121200843D01*
X142925466Y-121200602D01*
X142943889Y-121200602D01*
X142950000Y-121200000D01*
X143500000Y-121200000D01*
X143509755Y-121200961D01*
X143519134Y-121203806D01*
X143527779Y-121208427D01*
X143535355Y-121214645D01*
X143541573Y-121222221D01*
X143546194Y-121230866D01*
X143549039Y-121240245D01*
X143550000Y-121250000D01*
X143550000Y-122750000D01*
X143549039Y-122759755D01*
X143546194Y-122769134D01*
X143541573Y-122777779D01*
X143535355Y-122785355D01*
X143527779Y-122791573D01*
X143519134Y-122796194D01*
X143509755Y-122799039D01*
X143500000Y-122800000D01*
X142950000Y-122800000D01*
X142943889Y-122799398D01*
G37*
G36*
G01*
X144800000Y-121250000D02*
X144800000Y-122750000D01*
G75*
G02*
X144750000Y-122800000I-50000J0D01*
G01*
X143750000Y-122800000D01*
G75*
G02*
X143700000Y-122750000I0J50000D01*
G01*
X143700000Y-121250000D01*
G75*
G02*
X143750000Y-121200000I50000J0D01*
G01*
X144750000Y-121200000D01*
G75*
G02*
X144800000Y-121250000I0J-50000D01*
G01*
G37*
G36*
X144990245Y-122799039D02*
G01*
X144980866Y-122796194D01*
X144972221Y-122791573D01*
X144964645Y-122785355D01*
X144958427Y-122777779D01*
X144953806Y-122769134D01*
X144950961Y-122759755D01*
X144950000Y-122750000D01*
X144950000Y-121250000D01*
X144950961Y-121240245D01*
X144953806Y-121230866D01*
X144958427Y-121222221D01*
X144964645Y-121214645D01*
X144972221Y-121208427D01*
X144980866Y-121203806D01*
X144990245Y-121200961D01*
X145000000Y-121200000D01*
X145550000Y-121200000D01*
X145556111Y-121200602D01*
X145574534Y-121200602D01*
X145579435Y-121200843D01*
X145628266Y-121205653D01*
X145633119Y-121206373D01*
X145681244Y-121215945D01*
X145686005Y-121217137D01*
X145732960Y-121231381D01*
X145737579Y-121233034D01*
X145782912Y-121251811D01*
X145787349Y-121253909D01*
X145830622Y-121277040D01*
X145834829Y-121279562D01*
X145875628Y-121306822D01*
X145879570Y-121309746D01*
X145917499Y-121340874D01*
X145921134Y-121344169D01*
X145955831Y-121378866D01*
X145959126Y-121382501D01*
X145990254Y-121420430D01*
X145993178Y-121424372D01*
X146020438Y-121465171D01*
X146022960Y-121469378D01*
X146046091Y-121512651D01*
X146048189Y-121517088D01*
X146066966Y-121562421D01*
X146068619Y-121567040D01*
X146082863Y-121613995D01*
X146084055Y-121618756D01*
X146093627Y-121666881D01*
X146094347Y-121671734D01*
X146099157Y-121720565D01*
X146099398Y-121725466D01*
X146099398Y-121743889D01*
X146100000Y-121750000D01*
X146100000Y-122250000D01*
X146099398Y-122256111D01*
X146099398Y-122274534D01*
X146099157Y-122279435D01*
X146094347Y-122328266D01*
X146093627Y-122333119D01*
X146084055Y-122381244D01*
X146082863Y-122386005D01*
X146068619Y-122432960D01*
X146066966Y-122437579D01*
X146048189Y-122482912D01*
X146046091Y-122487349D01*
X146022960Y-122530622D01*
X146020438Y-122534829D01*
X145993178Y-122575628D01*
X145990254Y-122579570D01*
X145959126Y-122617499D01*
X145955831Y-122621134D01*
X145921134Y-122655831D01*
X145917499Y-122659126D01*
X145879570Y-122690254D01*
X145875628Y-122693178D01*
X145834829Y-122720438D01*
X145830622Y-122722960D01*
X145787349Y-122746091D01*
X145782912Y-122748189D01*
X145737579Y-122766966D01*
X145732960Y-122768619D01*
X145686005Y-122782863D01*
X145681244Y-122784055D01*
X145633119Y-122793627D01*
X145628266Y-122794347D01*
X145579435Y-122799157D01*
X145574534Y-122799398D01*
X145556111Y-122799398D01*
X145550000Y-122800000D01*
X145000000Y-122800000D01*
X144990245Y-122799039D01*
G37*
%TD*%
%TO.C,JP1*%
G36*
X137943889Y-122799398D02*
G01*
X137925466Y-122799398D01*
X137920565Y-122799157D01*
X137871734Y-122794347D01*
X137866881Y-122793627D01*
X137818756Y-122784055D01*
X137813995Y-122782863D01*
X137767040Y-122768619D01*
X137762421Y-122766966D01*
X137717088Y-122748189D01*
X137712651Y-122746091D01*
X137669378Y-122722960D01*
X137665171Y-122720438D01*
X137624372Y-122693178D01*
X137620430Y-122690254D01*
X137582501Y-122659126D01*
X137578866Y-122655831D01*
X137544169Y-122621134D01*
X137540874Y-122617499D01*
X137509746Y-122579570D01*
X137506822Y-122575628D01*
X137479562Y-122534829D01*
X137477040Y-122530622D01*
X137453909Y-122487349D01*
X137451811Y-122482912D01*
X137433034Y-122437579D01*
X137431381Y-122432960D01*
X137417137Y-122386005D01*
X137415945Y-122381244D01*
X137406373Y-122333119D01*
X137405653Y-122328266D01*
X137400843Y-122279435D01*
X137400602Y-122274534D01*
X137400602Y-122256111D01*
X137400000Y-122250000D01*
X137400000Y-121750000D01*
X137400602Y-121743889D01*
X137400602Y-121725466D01*
X137400843Y-121720565D01*
X137405653Y-121671734D01*
X137406373Y-121666881D01*
X137415945Y-121618756D01*
X137417137Y-121613995D01*
X137431381Y-121567040D01*
X137433034Y-121562421D01*
X137451811Y-121517088D01*
X137453909Y-121512651D01*
X137477040Y-121469378D01*
X137479562Y-121465171D01*
X137506822Y-121424372D01*
X137509746Y-121420430D01*
X137540874Y-121382501D01*
X137544169Y-121378866D01*
X137578866Y-121344169D01*
X137582501Y-121340874D01*
X137620430Y-121309746D01*
X137624372Y-121306822D01*
X137665171Y-121279562D01*
X137669378Y-121277040D01*
X137712651Y-121253909D01*
X137717088Y-121251811D01*
X137762421Y-121233034D01*
X137767040Y-121231381D01*
X137813995Y-121217137D01*
X137818756Y-121215945D01*
X137866881Y-121206373D01*
X137871734Y-121205653D01*
X137920565Y-121200843D01*
X137925466Y-121200602D01*
X137943889Y-121200602D01*
X137950000Y-121200000D01*
X138500000Y-121200000D01*
X138509755Y-121200961D01*
X138519134Y-121203806D01*
X138527779Y-121208427D01*
X138535355Y-121214645D01*
X138541573Y-121222221D01*
X138546194Y-121230866D01*
X138549039Y-121240245D01*
X138550000Y-121250000D01*
X138550000Y-122750000D01*
X138549039Y-122759755D01*
X138546194Y-122769134D01*
X138541573Y-122777779D01*
X138535355Y-122785355D01*
X138527779Y-122791573D01*
X138519134Y-122796194D01*
X138509755Y-122799039D01*
X138500000Y-122800000D01*
X137950000Y-122800000D01*
X137943889Y-122799398D01*
G37*
G36*
G01*
X139800000Y-121250000D02*
X139800000Y-122750000D01*
G75*
G02*
X139750000Y-122800000I-50000J0D01*
G01*
X138750000Y-122800000D01*
G75*
G02*
X138700000Y-122750000I0J50000D01*
G01*
X138700000Y-121250000D01*
G75*
G02*
X138750000Y-121200000I50000J0D01*
G01*
X139750000Y-121200000D01*
G75*
G02*
X139800000Y-121250000I0J-50000D01*
G01*
G37*
G36*
X139990245Y-122799039D02*
G01*
X139980866Y-122796194D01*
X139972221Y-122791573D01*
X139964645Y-122785355D01*
X139958427Y-122777779D01*
X139953806Y-122769134D01*
X139950961Y-122759755D01*
X139950000Y-122750000D01*
X139950000Y-121250000D01*
X139950961Y-121240245D01*
X139953806Y-121230866D01*
X139958427Y-121222221D01*
X139964645Y-121214645D01*
X139972221Y-121208427D01*
X139980866Y-121203806D01*
X139990245Y-121200961D01*
X140000000Y-121200000D01*
X140550000Y-121200000D01*
X140556111Y-121200602D01*
X140574534Y-121200602D01*
X140579435Y-121200843D01*
X140628266Y-121205653D01*
X140633119Y-121206373D01*
X140681244Y-121215945D01*
X140686005Y-121217137D01*
X140732960Y-121231381D01*
X140737579Y-121233034D01*
X140782912Y-121251811D01*
X140787349Y-121253909D01*
X140830622Y-121277040D01*
X140834829Y-121279562D01*
X140875628Y-121306822D01*
X140879570Y-121309746D01*
X140917499Y-121340874D01*
X140921134Y-121344169D01*
X140955831Y-121378866D01*
X140959126Y-121382501D01*
X140990254Y-121420430D01*
X140993178Y-121424372D01*
X141020438Y-121465171D01*
X141022960Y-121469378D01*
X141046091Y-121512651D01*
X141048189Y-121517088D01*
X141066966Y-121562421D01*
X141068619Y-121567040D01*
X141082863Y-121613995D01*
X141084055Y-121618756D01*
X141093627Y-121666881D01*
X141094347Y-121671734D01*
X141099157Y-121720565D01*
X141099398Y-121725466D01*
X141099398Y-121743889D01*
X141100000Y-121750000D01*
X141100000Y-122250000D01*
X141099398Y-122256111D01*
X141099398Y-122274534D01*
X141099157Y-122279435D01*
X141094347Y-122328266D01*
X141093627Y-122333119D01*
X141084055Y-122381244D01*
X141082863Y-122386005D01*
X141068619Y-122432960D01*
X141066966Y-122437579D01*
X141048189Y-122482912D01*
X141046091Y-122487349D01*
X141022960Y-122530622D01*
X141020438Y-122534829D01*
X140993178Y-122575628D01*
X140990254Y-122579570D01*
X140959126Y-122617499D01*
X140955831Y-122621134D01*
X140921134Y-122655831D01*
X140917499Y-122659126D01*
X140879570Y-122690254D01*
X140875628Y-122693178D01*
X140834829Y-122720438D01*
X140830622Y-122722960D01*
X140787349Y-122746091D01*
X140782912Y-122748189D01*
X140737579Y-122766966D01*
X140732960Y-122768619D01*
X140686005Y-122782863D01*
X140681244Y-122784055D01*
X140633119Y-122793627D01*
X140628266Y-122794347D01*
X140579435Y-122799157D01*
X140574534Y-122799398D01*
X140556111Y-122799398D01*
X140550000Y-122800000D01*
X140000000Y-122800000D01*
X139990245Y-122799039D01*
G37*
%TD*%
D15*
%TO.C,J8*%
X52790000Y-110230000D03*
X52790000Y-122270000D03*
D16*
X55500000Y-117500000D03*
X55500000Y-115000000D03*
X57500000Y-115000000D03*
G36*
G01*
X58400000Y-116650000D02*
X58400000Y-118350000D01*
G75*
G02*
X58350000Y-118400000I-50000J0D01*
G01*
X56650000Y-118400000D01*
G75*
G02*
X56600000Y-118350000I0J50000D01*
G01*
X56600000Y-116650000D01*
G75*
G02*
X56650000Y-116600000I50000J0D01*
G01*
X58350000Y-116600000D01*
G75*
G02*
X58400000Y-116650000I0J-50000D01*
G01*
G37*
%TD*%
D17*
%TO.C,J5*%
X140050000Y-91750000D03*
D18*
X140050000Y-96750000D03*
X140050000Y-86750000D03*
D19*
X144550000Y-91750000D03*
%TD*%
%TO.C,U3*%
G36*
G01*
X48814100Y-81010000D02*
X50185900Y-81010000D01*
G75*
G02*
X50450000Y-81274100I0J-264100D01*
G01*
X50450000Y-82645900D01*
G75*
G02*
X50185900Y-82910000I-264100J0D01*
G01*
X48814100Y-82910000D01*
G75*
G02*
X48550000Y-82645900I0J264100D01*
G01*
X48550000Y-81274100D01*
G75*
G02*
X48814100Y-81010000I264100J0D01*
G01*
G37*
D20*
X49500000Y-84500000D03*
X49500000Y-87040000D03*
%TD*%
D21*
%TO.C,J3*%
X138775000Y-125250000D03*
X145775000Y-125250000D03*
%TD*%
D22*
%TO.C,J7*%
X145650000Y-108050000D03*
D16*
X139200000Y-111450000D03*
X139200000Y-104650000D03*
X142000000Y-111450000D03*
X142000000Y-104650000D03*
X142000000Y-109350000D03*
G36*
G01*
X142850000Y-107650000D02*
X141150000Y-107650000D01*
G75*
G02*
X141100000Y-107600000I0J50000D01*
G01*
X141100000Y-105900000D01*
G75*
G02*
X141150000Y-105850000I50000J0D01*
G01*
X142850000Y-105850000D01*
G75*
G02*
X142900000Y-105900000I0J-50000D01*
G01*
X142900000Y-107600000D01*
G75*
G02*
X142850000Y-107650000I-50000J0D01*
G01*
G37*
D15*
X144850000Y-101200000D03*
X144850000Y-114900000D03*
%TD*%
D21*
%TO.C,J13*%
X85250000Y-85475000D03*
X85250000Y-78475000D03*
%TD*%
%TO.C,J14*%
G36*
G01*
X53950000Y-101750000D02*
X53950000Y-98250000D01*
G75*
G02*
X54000000Y-98200000I50000J0D01*
G01*
X57500000Y-98200000D01*
G75*
G02*
X57550000Y-98250000I0J-50000D01*
G01*
X57550000Y-101750000D01*
G75*
G02*
X57500000Y-101800000I-50000J0D01*
G01*
X54000000Y-101800000D01*
G75*
G02*
X53950000Y-101750000I0J50000D01*
G01*
G37*
G36*
G01*
X48200000Y-101025000D02*
X48200000Y-98975000D01*
G75*
G02*
X48975000Y-98200000I775000J0D01*
G01*
X50525000Y-98200000D01*
G75*
G02*
X51300000Y-98975000I0J-775000D01*
G01*
X51300000Y-101025000D01*
G75*
G02*
X50525000Y-101800000I-775000J0D01*
G01*
X48975000Y-101800000D01*
G75*
G02*
X48200000Y-101025000I0J775000D01*
G01*
G37*
G36*
G01*
X50950000Y-105600000D02*
X50950000Y-103800000D01*
G75*
G02*
X51850000Y-102900000I900000J0D01*
G01*
X53650000Y-102900000D01*
G75*
G02*
X54550000Y-103800000I0J-900000D01*
G01*
X54550000Y-105600000D01*
G75*
G02*
X53650000Y-106500000I-900000J0D01*
G01*
X51850000Y-106500000D01*
G75*
G02*
X50950000Y-105600000I0J900000D01*
G01*
G37*
%TD*%
%TO.C,J4*%
G36*
G01*
X129150000Y-138300000D02*
X129150000Y-136700000D01*
G75*
G02*
X129200000Y-136650000I50000J0D01*
G01*
X130800000Y-136650000D01*
G75*
G02*
X130850000Y-136700000I0J-50000D01*
G01*
X130850000Y-138300000D01*
G75*
G02*
X130800000Y-138350000I-50000J0D01*
G01*
X129200000Y-138350000D01*
G75*
G02*
X129150000Y-138300000I0J50000D01*
G01*
G37*
D23*
X127710000Y-137500000D03*
X125420000Y-137500000D03*
X123130000Y-137500000D03*
X120840000Y-137500000D03*
X131145000Y-140040000D03*
X128855000Y-140040000D03*
X126565000Y-140040000D03*
X124275000Y-140040000D03*
X121985000Y-140040000D03*
X130000000Y-142580000D03*
X127710000Y-142580000D03*
X125420000Y-142580000D03*
X123130000Y-142580000D03*
X120840000Y-142580000D03*
D24*
X113185000Y-140110000D03*
X138185000Y-140110000D03*
%TD*%
D25*
%TO.C,J1*%
X105360460Y-139198000D03*
D26*
X84535000Y-135388000D03*
X82630000Y-135388000D03*
X80725000Y-135388000D03*
X86440000Y-135388000D03*
X88345000Y-135388000D03*
X80725000Y-137293000D03*
X92155000Y-135388000D03*
X90250000Y-135388000D03*
D25*
X75139540Y-139198000D03*
D26*
X82630000Y-137293000D03*
X84535000Y-137293000D03*
X86440000Y-137293000D03*
X88345000Y-137293000D03*
X90250000Y-137293000D03*
X92155000Y-137293000D03*
X94060000Y-137293000D03*
X80725000Y-139198000D03*
X82630000Y-139198000D03*
X84535000Y-139198000D03*
X86440000Y-139198000D03*
X88345000Y-139198000D03*
X90250000Y-139198000D03*
X92155000Y-139198000D03*
X94060000Y-139198000D03*
X94060000Y-135388000D03*
X99775000Y-136023000D03*
X97235000Y-136023000D03*
X97235000Y-138563000D03*
X99775000Y-138563000D03*
X98505000Y-134753000D03*
X98505000Y-139833000D03*
D27*
X80725000Y-142497460D03*
X99775000Y-142497460D03*
%TD*%
%TO.C,J2*%
G36*
G01*
X67250000Y-138585000D02*
X67250000Y-135935000D01*
G75*
G02*
X67625000Y-135560000I375000J0D01*
G01*
X68375000Y-135560000D01*
G75*
G02*
X68750000Y-135935000I0J-375000D01*
G01*
X68750000Y-138585000D01*
G75*
G02*
X68375000Y-138960000I-375000J0D01*
G01*
X67625000Y-138960000D01*
G75*
G02*
X67250000Y-138585000I0J375000D01*
G01*
G37*
G36*
G01*
X52750000Y-138585000D02*
X52750000Y-135935000D01*
G75*
G02*
X53125000Y-135560000I375000J0D01*
G01*
X53875000Y-135560000D01*
G75*
G02*
X54250000Y-135935000I0J-375000D01*
G01*
X54250000Y-138585000D01*
G75*
G02*
X53875000Y-138960000I-375000J0D01*
G01*
X53125000Y-138960000D01*
G75*
G02*
X52750000Y-138585000I0J375000D01*
G01*
G37*
G36*
G01*
X52750000Y-143945000D02*
X52750000Y-142495000D01*
G75*
G02*
X53125000Y-142120000I375000J0D01*
G01*
X53875000Y-142120000D01*
G75*
G02*
X54250000Y-142495000I0J-375000D01*
G01*
X54250000Y-143945000D01*
G75*
G02*
X53875000Y-144320000I-375000J0D01*
G01*
X53125000Y-144320000D01*
G75*
G02*
X52750000Y-143945000I0J375000D01*
G01*
G37*
G36*
G01*
X67250000Y-143945000D02*
X67250000Y-142495000D01*
G75*
G02*
X67625000Y-142120000I375000J0D01*
G01*
X68375000Y-142120000D01*
G75*
G02*
X68750000Y-142495000I0J-375000D01*
G01*
X68750000Y-143945000D01*
G75*
G02*
X68375000Y-144320000I-375000J0D01*
G01*
X67625000Y-144320000D01*
G75*
G02*
X67250000Y-143945000I0J375000D01*
G01*
G37*
%TD*%
%TO.C,J9*%
G36*
G01*
X56100000Y-80654600D02*
X56100000Y-79345400D01*
G75*
G02*
X56370400Y-79075000I270400J0D01*
G01*
X57129600Y-79075000D01*
G75*
G02*
X57400000Y-79345400I0J-270400D01*
G01*
X57400000Y-80654600D01*
G75*
G02*
X57129600Y-80925000I-270400J0D01*
G01*
X56370400Y-80925000D01*
G75*
G02*
X56100000Y-80654600I0J270400D01*
G01*
G37*
D28*
X58750000Y-80000000D03*
X60750000Y-80000000D03*
X62750000Y-80000000D03*
X64750000Y-80000000D03*
X66750000Y-80000000D03*
X68750000Y-80000000D03*
X70750000Y-80000000D03*
X72750000Y-80000000D03*
X74750000Y-80000000D03*
%TD*%
%TO.C,U10*%
G36*
G01*
X81680000Y-116730000D02*
X81330000Y-116730000D01*
G75*
G02*
X81155000Y-116555000I0J175000D01*
G01*
X81155000Y-114855000D01*
G75*
G02*
X81330000Y-114680000I175000J0D01*
G01*
X81680000Y-114680000D01*
G75*
G02*
X81855000Y-114855000I0J-175000D01*
G01*
X81855000Y-116555000D01*
G75*
G02*
X81680000Y-116730000I-175000J0D01*
G01*
G37*
G36*
G01*
X80410000Y-116730000D02*
X80060000Y-116730000D01*
G75*
G02*
X79885000Y-116555000I0J175000D01*
G01*
X79885000Y-114855000D01*
G75*
G02*
X80060000Y-114680000I175000J0D01*
G01*
X80410000Y-114680000D01*
G75*
G02*
X80585000Y-114855000I0J-175000D01*
G01*
X80585000Y-116555000D01*
G75*
G02*
X80410000Y-116730000I-175000J0D01*
G01*
G37*
G36*
G01*
X79140000Y-116730000D02*
X78790000Y-116730000D01*
G75*
G02*
X78615000Y-116555000I0J175000D01*
G01*
X78615000Y-114855000D01*
G75*
G02*
X78790000Y-114680000I175000J0D01*
G01*
X79140000Y-114680000D01*
G75*
G02*
X79315000Y-114855000I0J-175000D01*
G01*
X79315000Y-116555000D01*
G75*
G02*
X79140000Y-116730000I-175000J0D01*
G01*
G37*
G36*
G01*
X77870000Y-116730000D02*
X77520000Y-116730000D01*
G75*
G02*
X77345000Y-116555000I0J175000D01*
G01*
X77345000Y-114855000D01*
G75*
G02*
X77520000Y-114680000I175000J0D01*
G01*
X77870000Y-114680000D01*
G75*
G02*
X78045000Y-114855000I0J-175000D01*
G01*
X78045000Y-116555000D01*
G75*
G02*
X77870000Y-116730000I-175000J0D01*
G01*
G37*
G36*
G01*
X77870000Y-111780000D02*
X77520000Y-111780000D01*
G75*
G02*
X77345000Y-111605000I0J175000D01*
G01*
X77345000Y-109905000D01*
G75*
G02*
X77520000Y-109730000I175000J0D01*
G01*
X77870000Y-109730000D01*
G75*
G02*
X78045000Y-109905000I0J-175000D01*
G01*
X78045000Y-111605000D01*
G75*
G02*
X77870000Y-111780000I-175000J0D01*
G01*
G37*
G36*
G01*
X79140000Y-111780000D02*
X78790000Y-111780000D01*
G75*
G02*
X78615000Y-111605000I0J175000D01*
G01*
X78615000Y-109905000D01*
G75*
G02*
X78790000Y-109730000I175000J0D01*
G01*
X79140000Y-109730000D01*
G75*
G02*
X79315000Y-109905000I0J-175000D01*
G01*
X79315000Y-111605000D01*
G75*
G02*
X79140000Y-111780000I-175000J0D01*
G01*
G37*
G36*
G01*
X80410000Y-111780000D02*
X80060000Y-111780000D01*
G75*
G02*
X79885000Y-111605000I0J175000D01*
G01*
X79885000Y-109905000D01*
G75*
G02*
X80060000Y-109730000I175000J0D01*
G01*
X80410000Y-109730000D01*
G75*
G02*
X80585000Y-109905000I0J-175000D01*
G01*
X80585000Y-111605000D01*
G75*
G02*
X80410000Y-111780000I-175000J0D01*
G01*
G37*
G36*
G01*
X81680000Y-111780000D02*
X81330000Y-111780000D01*
G75*
G02*
X81155000Y-111605000I0J175000D01*
G01*
X81155000Y-109905000D01*
G75*
G02*
X81330000Y-109730000I175000J0D01*
G01*
X81680000Y-109730000D01*
G75*
G02*
X81855000Y-109905000I0J-175000D01*
G01*
X81855000Y-111605000D01*
G75*
G02*
X81680000Y-111780000I-175000J0D01*
G01*
G37*
D29*
X75790000Y-114500000D03*
X75790000Y-111960000D03*
X75790000Y-109420000D03*
X75790000Y-117040000D03*
X83410000Y-109420000D03*
X83410000Y-111960000D03*
X83410000Y-114500000D03*
G36*
G01*
X84260000Y-116240000D02*
X84260000Y-117840000D01*
G75*
G02*
X84210000Y-117890000I-50000J0D01*
G01*
X82610000Y-117890000D01*
G75*
G02*
X82560000Y-117840000I0J50000D01*
G01*
X82560000Y-116240000D01*
G75*
G02*
X82610000Y-116190000I50000J0D01*
G01*
X84210000Y-116190000D01*
G75*
G02*
X84260000Y-116240000I0J-50000D01*
G01*
G37*
%TD*%
D30*
%TO.C,J15*%
X124460000Y-103050000D03*
X127000000Y-103050000D03*
X124460000Y-105590000D03*
X127000000Y-105590000D03*
X124460000Y-108130000D03*
X127000000Y-108130000D03*
X124460000Y-110670000D03*
X127000000Y-110670000D03*
X124460000Y-113210000D03*
X127000000Y-113210000D03*
X124460000Y-115750000D03*
G36*
G01*
X127900000Y-114900000D02*
X127900000Y-116600000D01*
G75*
G02*
X127850000Y-116650000I-50000J0D01*
G01*
X126150000Y-116650000D01*
G75*
G02*
X126100000Y-116600000I0J50000D01*
G01*
X126100000Y-114900000D01*
G75*
G02*
X126150000Y-114850000I50000J0D01*
G01*
X127850000Y-114850000D01*
G75*
G02*
X127900000Y-114900000I0J-50000D01*
G01*
G37*
%TD*%
%TO.C,J12*%
X75250000Y-93750000D03*
G36*
G01*
X76150000Y-95440000D02*
X76150000Y-97140000D01*
G75*
G02*
X76100000Y-97190000I-50000J0D01*
G01*
X74400000Y-97190000D01*
G75*
G02*
X74350000Y-97140000I0J50000D01*
G01*
X74350000Y-95440000D01*
G75*
G02*
X74400000Y-95390000I50000J0D01*
G01*
X76100000Y-95390000D01*
G75*
G02*
X76150000Y-95440000I0J-50000D01*
G01*
G37*
%TD*%
%TO.C,J6*%
G36*
G01*
X143900000Y-80850000D02*
X145600000Y-80850000D01*
G75*
G02*
X145650000Y-80900000I0J-50000D01*
G01*
X145650000Y-82600000D01*
G75*
G02*
X145600000Y-82650000I-50000J0D01*
G01*
X143900000Y-82650000D01*
G75*
G02*
X143850000Y-82600000I0J50000D01*
G01*
X143850000Y-80900000D01*
G75*
G02*
X143900000Y-80850000I50000J0D01*
G01*
G37*
X142210000Y-81750000D03*
%TD*%
%TO.C,JP6*%
X60000000Y-103790000D03*
X60000000Y-101250000D03*
G36*
G01*
X59100000Y-99560000D02*
X59100000Y-97860000D01*
G75*
G02*
X59150000Y-97810000I50000J0D01*
G01*
X60850000Y-97810000D01*
G75*
G02*
X60900000Y-97860000I0J-50000D01*
G01*
X60900000Y-99560000D01*
G75*
G02*
X60850000Y-99610000I-50000J0D01*
G01*
X59150000Y-99610000D01*
G75*
G02*
X59100000Y-99560000I0J50000D01*
G01*
G37*
%TD*%
%TO.C,J10*%
G36*
G01*
X72650000Y-116190000D02*
X72650000Y-117890000D01*
G75*
G02*
X72600000Y-117940000I-50000J0D01*
G01*
X70900000Y-117940000D01*
G75*
G02*
X70850000Y-117890000I0J50000D01*
G01*
X70850000Y-116190000D01*
G75*
G02*
X70900000Y-116140000I50000J0D01*
G01*
X72600000Y-116140000D01*
G75*
G02*
X72650000Y-116190000I0J-50000D01*
G01*
G37*
X71750000Y-114500000D03*
X71750000Y-111960000D03*
%TD*%
D31*
%TO.C,REF\u002A\u002A*%
X50000000Y-77500000D03*
%TD*%
%TO.C,REF\u002A\u002A*%
X145000000Y-77500000D03*
%TD*%
%TO.C,REF\u002A\u002A*%
X145000000Y-142500000D03*
%TD*%
%TO.C,REF\u002A\u002A*%
X50000000Y-142500000D03*
%TD*%
M02*
