%TF.GenerationSoftware,KiCad,Pcbnew,(5.1.10)-1*%
%TF.CreationDate,2021-11-12T20:21:06+04:00*%
%TF.ProjectId,RTD2662Board,52544432-3636-4324-926f-6172642e6b69,2*%
%TF.SameCoordinates,Original*%
%TF.FileFunction,Legend,Bot*%
%TF.FilePolarity,Positive*%
%FSLAX46Y46*%
G04 Gerber Fmt 4.6, Leading zero omitted, Abs format (unit mm)*
G04 Created by KiCad (PCBNEW (5.1.10)-1) date 2021-11-12 20:21:06*
%MOMM*%
%LPD*%
G01*
G04 APERTURE LIST*
%ADD10C,0.150000*%
%ADD11C,0.500000*%
%ADD12C,0.250000*%
G04 APERTURE END LIST*
D10*
X65892857Y-98978571D02*
X66607142Y-98978571D01*
X66678571Y-99692857D01*
X66607142Y-99621428D01*
X66464285Y-99550000D01*
X66107142Y-99550000D01*
X65964285Y-99621428D01*
X65892857Y-99692857D01*
X65821428Y-99835714D01*
X65821428Y-100192857D01*
X65892857Y-100335714D01*
X65964285Y-100407142D01*
X66107142Y-100478571D01*
X66464285Y-100478571D01*
X66607142Y-100407142D01*
X66678571Y-100335714D01*
X65178571Y-99907142D02*
X64035714Y-99907142D01*
X63392857Y-99121428D02*
X63321428Y-99050000D01*
X63178571Y-98978571D01*
X62821428Y-98978571D01*
X62678571Y-99050000D01*
X62607142Y-99121428D01*
X62535714Y-99264285D01*
X62535714Y-99407142D01*
X62607142Y-99621428D01*
X63464285Y-100478571D01*
X62535714Y-100478571D01*
X61250000Y-99478571D02*
X61250000Y-100478571D01*
X61607142Y-98907142D02*
X61964285Y-99978571D01*
X61035714Y-99978571D01*
X60678571Y-98978571D02*
X60178571Y-100478571D01*
X59678571Y-98978571D01*
X66464285Y-102878571D02*
X66464285Y-101378571D01*
X66107142Y-101378571D01*
X65892857Y-101450000D01*
X65750000Y-101592857D01*
X65678571Y-101735714D01*
X65607142Y-102021428D01*
X65607142Y-102235714D01*
X65678571Y-102521428D01*
X65750000Y-102664285D01*
X65892857Y-102807142D01*
X66107142Y-102878571D01*
X66464285Y-102878571D01*
X64107142Y-102735714D02*
X64178571Y-102807142D01*
X64392857Y-102878571D01*
X64535714Y-102878571D01*
X64750000Y-102807142D01*
X64892857Y-102664285D01*
X64964285Y-102521428D01*
X65035714Y-102235714D01*
X65035714Y-102021428D01*
X64964285Y-101735714D01*
X64892857Y-101592857D01*
X64750000Y-101450000D01*
X64535714Y-101378571D01*
X64392857Y-101378571D01*
X64178571Y-101450000D01*
X64107142Y-101521428D01*
X63464285Y-102307142D02*
X62321428Y-102307142D01*
X61607142Y-102878571D02*
X61607142Y-101378571D01*
X60892857Y-102878571D02*
X60892857Y-101378571D01*
X60035714Y-102878571D01*
X60035714Y-101378571D01*
D11*
%TO.C,REF\u002A\u002A*%
X63450000Y-104750000D02*
G75*
G03*
X63450000Y-104750000I-200000J0D01*
G01*
D10*
X61250000Y-104750000D02*
G75*
G03*
X61250000Y-104750000I-1000000J0D01*
G01*
X67250000Y-104750000D02*
G75*
G03*
X67250000Y-104750000I-1000000J0D01*
G01*
X65250000Y-104750000D02*
X64250000Y-104750000D01*
X63250000Y-104750000D02*
X61250000Y-104750000D01*
D12*
X60750000Y-104750000D02*
X59750000Y-104750000D01*
X60250000Y-104250000D02*
X60250000Y-105250000D01*
X66750000Y-104750000D02*
X65750000Y-104750000D01*
D10*
X62542893Y-105457107D02*
G75*
G03*
X62542893Y-104042893I707107J707107D01*
G01*
%TD*%
M02*
